<svg width="181" height="125" viewBox="0 0 181 125" fill="none" xmlns="http://www.w3.org/2000/svg">
<path d="M176.859 -6.38826L-29.0837 -7.71826C-31.0801 36.3789 -29.6821 81.0109 -26.1716 124.999C-7.74971 112.029 12.8827 102.767 34.3637 97.8249C48.9036 94.4789 63.7608 93.1069 78.569 91.7405C89.5519 90.7269 100.543 88.7361 111.562 88.4113C119.535 88.1761 127.67 87.9073 135.163 84.9337C142.653 81.9601 149.522 75.7581 151.503 67.3721C153.484 58.9861 149.04 48.7605 141.232 46.9881C136.871 45.9997 132.393 47.6153 127.938 47.7637C123.484 47.9149 118.191 45.6245 117.541 40.8393C117.087 37.4933 119.243 34.2285 121.995 32.6381C124.745 31.0449 127.967 30.7845 131.082 30.6921C139.254 30.4513 147.479 31.1401 155.568 29.8717C163.657 28.6033 171.857 25.0557 176.846 18.0277C181.834 10.9997 182.538 -0.00706148 176.859 -6.38826Z" fill="#EFE1FF"/>
</svg>
