<svg width="41" height="40" viewBox="0 0 41 40" fill="none" xmlns="http://www.w3.org/2000/svg">
<circle cx="20.5" cy="20" r="20" fill="url(#paint0_linear_715_324)"/>
<path d="M17.2436 13H15.0455C15.0455 10.238 17.4869 8 20.5 8C23.5131 8 25.9545 10.238 25.9545 13C25.9545 15.05 24.6084 16.813 22.6818 17.584C21.3378 18.121 21.5909 18.5 21.5909 19.5C21.5909 20 21.5909 21 21.5909 21H19.4091V19.5C19.4091 18 19.6938 16.564 21.7873 15.727C22.9687 15.253 23.7335 14.183 23.7335 13C23.7335 11.36 22.2782 10.025 20.488 10.025C18.6989 10.025 17.2436 11.36 17.2436 13ZM19.4091 24H21.5909V22H19.4091V24ZM24.3553 21.591L20.5 25.125L16.6447 21.591C11.9102 23.064 8.5 27.163 8.5 32H32.5C32.5 27.163 29.0887 23.064 24.3553 21.591Z" fill="black"/>
<defs>
<linearGradient id="paint0_linear_715_324" x1="20.5" y1="0" x2="20.5" y2="40" gradientUnits="userSpaceOnUse">
<stop stop-color="#C6426E"/>
<stop offset="1" stop-color="#533A71"/>
</linearGradient>
</defs>
</svg>
