<svg width="190" height="179" viewBox="0 0 190 179" fill="none" xmlns="http://www.w3.org/2000/svg">
<path d="M176.859 -6.38826L-29.0837 -7.71826C-31.0801 36.3789 -29.6821 81.0109 -26.1716 124.999C-7.74971 112.029 12.8827 102.767 34.3637 97.8249C48.9036 94.4789 63.7608 93.1069 78.569 91.7405C89.5519 90.7269 100.543 88.7361 111.562 88.4113C119.535 88.1761 127.67 87.9073 135.163 84.9337C142.653 81.9601 149.522 75.7581 151.503 67.3721C153.484 58.9861 149.04 48.7605 141.232 46.9881C136.871 45.9997 132.393 47.6153 127.938 47.7637C123.484 47.9149 118.191 45.6245 117.541 40.8393C117.087 37.4933 119.243 34.2285 121.995 32.6381C124.745 31.0449 127.967 30.7845 131.082 30.6921C139.254 30.4513 147.479 31.1401 155.568 29.8717C163.657 28.6033 171.857 25.0557 176.846 18.0277C181.834 10.9997 182.538 -0.00706148 176.859 -6.38826Z" fill="#EFE1FF"/>
<g clip-path="url(#clip0_2196_4515)">
<path d="M50.2258 136.58C33.8545 126.394 15.9795 122.835 -2.87059 123.77C-3.44579 143.874 -4.02099 163.981 -4.59619 184.085L88.9989 180.221C80.2135 162.094 66.597 146.767 50.2258 136.58Z" fill="#FF5548"/>
<path d="M45.1089 151.592C41.2733 159.325 37.4378 167.059 33.6023 174.792" stroke="#110605" stroke-width="0.6994" stroke-linecap="round" stroke-linejoin="round"/>
<path d="M158.871 128.634C148.811 113.876 133.791 103.658 117.683 98.0612C106.558 94.1944 95.7069 90.3976 84.5821 86.5308C83.1376 88.3396 80.744 89.188 78.5954 88.656C76.4442 88.124 74.636 85.9484 74.0557 83.6384C71.1977 84.3608 68.8247 84.7948 65.9668 85.5172C65.6985 87.0208 65.4303 88.5244 65.162 90.0252C43.0697 98.274 21.2301 107.654 -0.862179 115.903C-1.0221 119.896 -1.83202 124.098 -1.99194 128.091C10.2936 129.292 21.8466 134.218 32.1847 141.52C40.4078 147.33 47.501 154.8 54.7594 161.971C62.0152 169.142 69.6011 176.139 78.4458 180.751C87.293 185.36 97.6337 187.406 107.02 184.304L184.566 180.012C177.628 162.229 169.451 144.158 158.871 128.634Z" fill="#A6C3A5"/>
<path d="M64.9763 90.0525C66.0003 91.2201 67.5118 91.8669 68.995 91.7661" stroke="#110605" stroke-width="0.6994" stroke-linecap="round" stroke-linejoin="round"/>
<path d="M10.2034 116.576C10.7657 117.388 11.3306 118.203 11.8929 119.015" stroke="#789682" stroke-width="0.6994" stroke-linecap="round" stroke-linejoin="round"/>
<path d="M18.3298 120.382C19.2017 120.085 20.0735 119.791 20.9453 119.494" stroke="#789682" stroke-width="0.6994" stroke-linecap="round" stroke-linejoin="round"/>
<path d="M25.9641 110.587C26.4542 109.878 26.9443 109.167 27.4344 108.459" stroke="#789682" stroke-width="0.6994" stroke-linecap="round" stroke-linejoin="round"/>
<path d="M35.0012 110.443C35.9272 111.093 36.8532 111.745 37.7792 112.395" stroke="#789682" stroke-width="0.6994" stroke-linecap="round" stroke-linejoin="round"/>
<path d="M34.3444 124.459C34.2361 125.702 34.1278 126.942 34.0168 128.186" stroke="#789682" stroke-width="0.6994" stroke-linecap="round" stroke-linejoin="round"/>
<path d="M22.5657 131.005C23.2157 130.408 23.8657 129.812 24.5131 129.213" stroke="#789682" stroke-width="0.6994" stroke-linecap="round" stroke-linejoin="round"/>
<path d="M44.9683 120.909C46.1677 120.674 47.3645 120.436 48.5639 120.201" stroke="#789682" stroke-width="0.6994" stroke-linecap="round" stroke-linejoin="round"/>
<path d="M48.5269 100.154C48.4754 100.983 48.4263 101.812 48.3748 102.638" stroke="#789682" stroke-width="0.6994" stroke-linecap="round" stroke-linejoin="round"/>
<path d="M55.5942 107.256H58.3722" stroke="#789682" stroke-width="0.6994" stroke-linecap="round" stroke-linejoin="round"/>
<path d="M62.624 100.698C63.3334 100.11 64.0453 99.5194 64.7546 98.9314" stroke="#789682" stroke-width="0.6994" stroke-linecap="round" stroke-linejoin="round"/>
<path d="M69.5491 109.611C70.359 110.098 71.1689 110.583 71.9814 111.07" stroke="#789682" stroke-width="0.6994" stroke-linecap="round" stroke-linejoin="round"/>
<path d="M61.1749 118.787C60.953 120.086 60.7338 121.388 60.512 122.687" stroke="#789682" stroke-width="0.6994" stroke-linecap="round" stroke-linejoin="round"/>
<path d="M73.4011 129.252C73.7287 130.257 74.0537 131.262 74.3813 132.267" stroke="#789682" stroke-width="0.6994" stroke-linecap="round" stroke-linejoin="round"/>
<path d="M57.5398 136.112C58.7882 135.742 60.0392 135.375 61.2876 135.006" stroke="#789682" stroke-width="0.6994" stroke-linecap="round" stroke-linejoin="round"/>
<path d="M47.4174 133.685C47.3632 134.394 47.309 135.105 47.2549 135.813" stroke="#789682" stroke-width="0.6994" stroke-linecap="round" stroke-linejoin="round"/>
<path d="M58.6985 151.602C60.0604 151.498 61.4249 151.394 62.7868 151.291" stroke="#789682" stroke-width="0.6994" stroke-linecap="round" stroke-linejoin="round"/>
<path d="M46.2763 144.51C45.8946 145.456 45.5129 146.402 45.1311 147.349" stroke="#789682" stroke-width="0.6994" stroke-linecap="round" stroke-linejoin="round"/>
<path d="M72.8975 162.057C73.5526 161.29 74.2078 160.523 74.8629 159.756" stroke="#789682" stroke-width="0.6994" stroke-linecap="round" stroke-linejoin="round"/>
<path d="M82.3838 146.654C83.4697 147.192 84.5582 147.729 85.6441 148.267" stroke="#789682" stroke-width="0.6994" stroke-linecap="round" stroke-linejoin="round"/>
<path d="M88.1202 127.834C87.7952 128.957 87.4702 130.082 87.1426 131.205" stroke="#789682" stroke-width="0.6994" stroke-linecap="round" stroke-linejoin="round"/>
<path d="M82.8838 116.477C84.1374 115.707 85.3909 114.94 86.6419 114.17" stroke="#789682" stroke-width="0.6994" stroke-linecap="round" stroke-linejoin="round"/>
<path d="M98.5708 113.287C99.8244 113.584 101.078 113.878 102.329 114.174" stroke="#789682" stroke-width="0.6994" stroke-linecap="round" stroke-linejoin="round"/>
<path d="M102.334 125.345V128.361" stroke="#789682" stroke-width="0.6994" stroke-linecap="round" stroke-linejoin="round"/>
<path d="M101.228 98.408C100.898 99.0576 100.567 99.7044 100.237 100.354" stroke="#789682" stroke-width="0.6994" stroke-linecap="round" stroke-linejoin="round"/>
<path d="M84.3564 103.701V106.008" stroke="#789682" stroke-width="0.6994" stroke-linecap="round" stroke-linejoin="round"/>
<path d="M118.505 109.025C119.104 109.44 119.705 109.854 120.303 110.268" stroke="#789682" stroke-width="0.6994" stroke-linecap="round" stroke-linejoin="round"/>
<path d="M118.677 117.01C118.461 117.78 118.242 118.547 118.025 119.317" stroke="#789682" stroke-width="0.6994" stroke-linecap="round" stroke-linejoin="round"/>
<path d="M112.297 101.394C113.006 100.921 113.713 100.448 114.422 99.9744" stroke="#789682" stroke-width="0.6994" stroke-linecap="round" stroke-linejoin="round"/>
<path d="M132.728 110.443C133.816 111.034 134.907 111.625 135.996 112.218" stroke="#789682" stroke-width="0.6994" stroke-linecap="round" stroke-linejoin="round"/>
<path d="M127.066 127.658C127.066 128.722 127.066 129.786 127.066 130.85" stroke="#789682" stroke-width="0.6994" stroke-linecap="round" stroke-linejoin="round"/>
<path d="M110.511 138.615C111.491 138.791 112.471 138.968 113.454 139.144" stroke="#789682" stroke-width="0.6994" stroke-linecap="round" stroke-linejoin="round"/>
<path d="M98.4082 142.201C98.4624 143.206 98.5165 144.211 98.5707 145.217" stroke="#789682" stroke-width="0.6994" stroke-linecap="round" stroke-linejoin="round"/>
<path d="M105.438 155.154C106.418 155.037 107.398 154.919 108.378 154.799" stroke="#789682" stroke-width="0.6994" stroke-linecap="round" stroke-linejoin="round"/>
<path d="M116.877 159.767C117.587 160.241 118.294 160.714 119.003 161.187" stroke="#789682" stroke-width="0.6994" stroke-linecap="round" stroke-linejoin="round"/>
<path d="M105.763 167.392C105.219 167.924 104.675 168.456 104.128 168.988" stroke="#789682" stroke-width="0.6994" stroke-linecap="round" stroke-linejoin="round"/>
<path d="M87.129 162.607C86.6931 163.257 86.2572 163.909 85.8213 164.559" stroke="#789682" stroke-width="0.6994" stroke-linecap="round" stroke-linejoin="round"/>
<path d="M93.4868 173.447C94.142 174.273 94.7971 175.099 95.4523 175.928" stroke="#789682" stroke-width="0.6994" stroke-linecap="round" stroke-linejoin="round"/>
<path d="M77.635 170.931C77.3048 171.816 76.9747 172.704 76.6445 173.589" stroke="#789682" stroke-width="0.6994" stroke-linecap="round" stroke-linejoin="round"/>
<path d="M152.503 132.619C153.483 132.916 154.463 133.21 155.443 133.507" stroke="#789682" stroke-width="0.6994" stroke-linecap="round" stroke-linejoin="round"/>
<path d="M161.164 144.51C161.218 145.456 161.272 146.402 161.327 147.349" stroke="#789682" stroke-width="0.6994" stroke-linecap="round" stroke-linejoin="round"/>
<path d="M159.044 161.365C158.445 162.135 157.845 162.902 157.246 163.672" stroke="#789682" stroke-width="0.6994" stroke-linecap="round" stroke-linejoin="round"/>
<path d="M165.903 157.857C166.613 157.913 167.319 157.966 168.029 158.022" stroke="#789682" stroke-width="0.6994" stroke-linecap="round" stroke-linejoin="round"/>
<path d="M151.85 148.408C151.36 148.643 150.869 148.881 150.379 149.116" stroke="#789682" stroke-width="0.6994" stroke-linecap="round" stroke-linejoin="round"/>
<path d="M161.164 170.763C161.492 171.592 161.817 172.418 162.144 173.247" stroke="#789682" stroke-width="0.6994" stroke-linecap="round" stroke-linejoin="round"/>
<path d="M148.267 172.442C149.464 172.145 150.663 171.848 151.86 171.549" stroke="#789682" stroke-width="0.6994" stroke-linecap="round" stroke-linejoin="round"/>
<path d="M122.76 146.638L124.721 146.994" stroke="#789682" stroke-width="0.6994" stroke-linecap="round" stroke-linejoin="round"/>
<path d="M70.4636 142.912C70.6261 144.035 70.7912 145.16 70.9537 146.283" stroke="#789682" stroke-width="0.6994" stroke-linecap="round" stroke-linejoin="round"/>
<path d="M-0.9729 123.886C9.64895 123.713 20.0954 127.498 29.3141 133.224C38.5328 138.953 46.6346 146.569 54.303 154.546C60.3439 160.83 66.1939 167.401 73.0035 172.679C79.813 177.957 87.7652 181.928 96.1275 182.216" stroke="#110605" stroke-width="0.6994" stroke-linecap="round" stroke-linejoin="round"/>
<path d="M93.1822 89.6352C91.9905 87.6472 90.8014 85.6592 89.6097 83.6712C89.1145 82.8424 88.5935 81.9884 87.8248 81.4592C87.0562 80.93 86.0141 80.6332 85.3331 81.2856C85.0571 80.0088 84.7554 78.8664 84.4794 77.5896C87.1103 74.6244 89.7439 71.6564 92.3748 68.6912C93.048 67.9324 93.7316 67.1596 94.1572 66.2132C94.5828 65.2668 94.7169 64.1076 94.2681 63.1752C93.8193 62.2428 92.6586 61.4616 91.7945 61.9376C92.6431 60.9688 93.0068 59.5296 92.7359 58.2276C92.4651 56.9256 91.5649 55.7944 90.4171 55.3156C89.2693 54.8368 87.8558 55.1336 86.8524 55.9036C87.1645 54.3356 86.4474 52.6584 85.2944 51.656C84.1415 50.6508 82.6196 50.2504 81.1417 50.2308C79.6637 50.2112 78.3843 50.3008 76.9605 50.7376C71.4097 52.4428 66.5992 56.7996 64.0611 62.4248C61.523 68.0472 61.2986 74.8456 63.4601 80.6528C64.5434 83.562 65.539 86.6504 66.8107 89.47C68.0797 92.2896 69.7486 94.9468 71.9771 96.946C74.8402 99.5164 78.4797 101.278 82.194 101.334C87.9615 101.418 93.3937 101.359 94.6292 96.8928C95.3179 94.4064 94.4873 91.8136 93.1847 89.6352H93.1822Z" fill="#110605"/>
<path d="M76.7944 49.0876C72.6261 50.7788 68.9557 53.8868 66.4305 57.8656C63.9079 61.8444 62.5408 66.6744 62.5743 71.5072" stroke="#110605" stroke-width="0.6994" stroke-linecap="round" stroke-linejoin="round"/>
<path d="M87.2878 81.6297C86.888 77.5781 85.1779 73.7365 82.8023 70.5837C81.3166 71.1325 79.8308 71.6785 78.3451 72.2273C77.6538 72.4821 76.9548 72.7397 76.2275 72.7817C75.5001 72.8237 74.7108 72.8713 74.1846 72.3225C73.9189 73.1345 73.3076 73.8065 72.5648 74.1089C71.8193 74.4113 70.9836 74.3189 70.2923 73.8961C69.8512 74.5429 69.4128 75.1897 68.9717 75.8365C69.3921 78.0513 69.9776 80.2185 70.3981 82.4333C71.7729 83.4889 72.9207 84.3905 74.2981 85.4461C78.4612 83.3769 82.7507 82.2849 87.2904 81.6325L87.2878 81.6297Z" fill="#A24941"/>
<path d="M75.9629 80.9612C76.3461 80.9612 76.6567 80.624 76.6567 80.208C76.6567 79.7921 76.3461 79.4548 75.9629 79.4548C75.5797 79.4548 75.269 79.7921 75.269 80.208C75.269 80.624 75.5797 80.9612 75.9629 80.9612Z" fill="#110605"/>
<path d="M85.0581 78.2198C85.0581 77.8026 84.746 77.4666 84.3643 77.4666C83.9825 77.4666 83.6704 77.8054 83.6704 78.2198C83.6704 78.6342 83.9825 78.973 84.3643 78.973C84.746 78.973 85.0581 78.6342 85.0581 78.2198Z" fill="#110605"/>
<path d="M76.9325 83.9688C78.7973 83.9688 80.309 82.3279 80.309 80.3036C80.309 78.2794 78.7973 76.6384 76.9325 76.6384C75.0678 76.6384 73.5562 78.2794 73.5562 80.3036C73.5562 82.3279 75.0678 83.9688 76.9325 83.9688Z" stroke="#110605" stroke-width="0.6994" stroke-linecap="round" stroke-linejoin="round"/>
<path d="M85.9618 81.7423C87.8266 81.7423 89.3383 80.1013 89.3383 78.0771C89.3383 76.0528 87.8266 74.4119 85.9618 74.4119C84.0971 74.4119 82.5854 76.0528 82.5854 78.0771C82.5854 80.1013 84.0971 81.7423 85.9618 81.7423Z" stroke="#110605" stroke-width="0.6994" stroke-linecap="round" stroke-linejoin="round"/>
<path d="M80.02 78.5112C80.5823 77.786 81.6141 77.5452 82.4008 77.954" stroke="#110605" stroke-width="0.6994" stroke-linecap="round" stroke-linejoin="round"/>
<path d="M74.8584 75.9317C75.1937 75.2569 75.7844 74.7389 76.4628 74.5233C77.1411 74.3105 77.8969 74.4057 78.5134 74.7809" stroke="#110605" stroke-width="0.6994" stroke-linecap="round" stroke-linejoin="round"/>
<path d="M82.7212 74.1665C83.3738 73.9901 84.0289 73.8109 84.6815 73.6345" stroke="#110605" stroke-width="0.6994" stroke-linecap="round" stroke-linejoin="round"/>
<path d="M81.4927 78.3376L82.4651 81.5352C82.1917 81.6248 81.8486 81.888 81.5752 81.9748" stroke="#110605" stroke-width="0.6994" stroke-linecap="round" stroke-linejoin="round"/>
<path d="M79.9194 84.1033C80.0046 84.7109 80.3605 85.1981 80.7551 85.2485C81.1498 85.2989 81.5496 84.9097 81.6992 84.3301L79.9194 84.1033Z" fill="white"/>
<path d="M67.0336 77.777C65.0656 77.637 63.0872 79.037 62.414 81.0474C61.7382 83.0606 62.4243 85.5106 64.0158 86.779C65.6072 88.0446 67.9674 88.0166 69.5305 86.7118L67.0336 77.7798V77.777Z" fill="#A24941"/>
<path d="M64.6584 81.74C65.4477 81.7456 66.237 81.7512 67.0289 81.7596" stroke="#110605" stroke-width="0.6994" stroke-linecap="round" stroke-linejoin="round"/>
<path d="M28.6916 55.1228L6.61479 58.9588C3.10426 60.7144 -0.0915806 62.6772 -3.24099 65.1104C-3.60726 70.7412 -3.95548 76.386 -3.73881 82.0252C-3.38028 91.3072 -1.21361 100.038 0.659017 109.104C4.56934 100.609 5.83066 89.3528 12.7434 83.5316C17.3218 79.676 21.9105 75.9576 26.4863 72.102C27.0331 72.7656 27.4896 73.4852 28.0365 74.1488C27.567 75.6832 28.2789 77.52 29.6279 78.2032C30.069 77.1784 30.7139 76.1424 31.1549 75.1176C31.1859 75.7644 31.9752 76.1732 32.5684 76.2404C33.3422 74.79 34.1161 73.3396 34.8924 71.8892C35.2974 71.1332 35.7127 70.3324 35.723 69.456C35.7359 68.3976 35.2561 67.09 34.3405 66.7288C35.9371 67.174 37.5337 67.622 39.1304 68.0672C39.6024 68.1988 40.0925 68.3304 40.5671 68.2212C41.0417 68.1092 41.4621 67.5996 41.4466 67.0704C38.0934 62.1144 33.6956 57.9956 28.6865 55.1228H28.6916Z" fill="#FE9EC2"/>
<path d="M30.9207 75.7739C30.9334 74.2479 30.9488 72.7191 30.9615 71.1931" stroke="#110605" stroke-width="0.6994" stroke-linecap="round" stroke-linejoin="round"/>
<path d="M33.2729 66.5291C33.8765 66.6439 34.4801 66.7587 35.0862 66.8735" stroke="#110605" stroke-width="0.6994" stroke-linecap="round" stroke-linejoin="round"/>
<path d="M4.49512 80.1462C5.26377 80.765 6.035 81.3838 6.80366 82.0026" stroke="#110605" stroke-width="0.6994" stroke-linecap="round" stroke-linejoin="round"/>
<path d="M61.0389 42.3761L32.7612 62.8189L33.8059 64.2889L40.9378 59.5681L41.3196 59.7837C41.8793 60.1001 42.5293 60.1673 43.1303 59.9657C46.3777 58.8793 57.1698 54.8641 63.5615 47.5449C64.2966 46.7021 64.4127 45.4225 63.8633 44.4257L63.0044 42.8605C62.5968 42.1185 61.6992 41.8973 61.0389 42.3761Z" fill="#110605"/>
<path d="M55.354 52.6515C58.1475 51.0835 60.6314 48.8743 62.5969 46.2087" stroke="white" stroke-width="0.6994" stroke-linecap="round" stroke-linejoin="round"/>
<path d="M32.7648 62.822L34.4801 64.3004L23.1489 88.3412C22.4602 89.8 20.8765 90.472 19.4604 89.9036C17.7993 89.2372 17.0332 87.1624 17.8173 85.4348C20.0536 80.5068 24.8152 70.8888 31.065 63.0964L32.7622 62.822H32.7648Z" fill="#A24941"/>
<path d="M19.3955 88.0766C19.7463 88.5834 20.3396 88.8802 20.9225 88.841C21.5054 88.8018 22.06 88.4294 22.3515 87.8806" stroke="#110605" stroke-width="0.6994" stroke-linecap="round" stroke-linejoin="round"/>
<path d="M29.6302 50.3287C18.0307 50.9755 6.21205 54.9123 -3.2981 62.1503L2.72474 74.9155C10.0734 77.1331 16.8932 71.2979 24.2934 69.2903C28.6319 68.1143 32.728 66.6303 36.8576 64.7683C36.3365 63.3151 34.9617 62.4639 33.5302 62.3211C29.2691 61.8927 25.0079 61.4643 20.7468 61.0359C23.4087 59.7283 25.921 58.7259 28.5829 57.4183C31.8407 58.7427 34.776 60.2379 38.0338 61.5623C38.5006 61.7527 38.9778 61.9431 39.4756 61.9543C39.9734 61.9655 40.5048 61.7583 40.773 61.3019C37.3966 57.3315 33.623 53.5515 29.6302 50.3259V50.3287Z" fill="#FE9EC2"/>
<path d="M19.659 60.6853C24.1987 61.1921 28.7384 61.7017 33.2755 62.2085C34.7458 62.3737 36.0509 63.4433 36.7577 64.8545C32.7003 66.3385 28.5011 68.0325 24.4438 69.5193C17.3066 72.1289 10.7112 77.8661 3.49927 75.5113" stroke="#110605" stroke-width="0.6994" stroke-linecap="round" stroke-linejoin="round"/>
<path d="M22.7671 60.7389C25.0163 59.7253 27.2629 58.7117 29.5121 57.7009C32.0631 58.6109 34.0054 60.1453 36.5564 61.0553" stroke="#110605" stroke-width="0.6994" stroke-linecap="round" stroke-linejoin="round"/>
<path d="M145.835 132.051L135.029 129.9L133.436 139.333L144.241 141.484L145.835 132.051Z" fill="#FF5548"/>
<path d="M143.913 134.264L136.118 132.713L138.935 119.533L145.584 120.857L143.913 134.264Z" fill="#FF5548"/>
<path d="M144.904 124.856C144.123 124.808 143.37 125.522 143.308 126.368C143.243 127.213 143.88 128.05 144.657 128.14" stroke="#110605" stroke-width="0.6994" stroke-linecap="round" stroke-linejoin="round"/>
<path d="M136.649 130.217L144.328 131.365" stroke="#110605" stroke-width="0.6994" stroke-linecap="round" stroke-linejoin="round"/>
<path d="M146.843 137.788L132.23 134.881C129.863 134.411 127.557 135.99 126.93 138.513L110.688 203.873C110.117 206.169 111.474 208.505 113.631 208.933L140.041 214.189C142.197 214.617 144.23 212.957 144.446 210.591L150.614 143.225C150.851 140.624 149.213 138.261 146.843 137.788Z" fill="#FFBE50"/>
<mask id="mask0_2196_4515" style="mask-type:luminance" maskUnits="userSpaceOnUse" x="110" y="134" width="41" height="81">
<path d="M146.839 137.788L132.227 134.881C129.859 134.411 127.553 135.99 126.926 138.513L110.684 203.873C110.114 206.169 111.47 208.505 113.627 208.933L140.037 214.189C142.193 214.617 144.226 212.957 144.442 210.591L150.61 143.225C150.847 140.624 149.209 138.261 146.839 137.788Z" fill="white"/>
</mask>
<g mask="url(#mask0_2196_4515)">
<path d="M144.152 183.737C150.939 180.619 154.113 172.117 151.24 164.749C148.367 157.381 140.536 153.936 133.748 157.054C126.961 160.173 123.787 168.674 126.66 176.042C129.533 183.411 137.364 186.856 144.152 183.737Z" fill="white"/>
</g>
<path d="M133.704 165.467C137.782 166.444 141.863 167.424 145.941 168.401" stroke="#110605" stroke-width="0.6994" stroke-linecap="round" stroke-linejoin="round"/>
<path d="M137.622 169.994C139.366 170.153 141.112 170.313 142.856 170.473" stroke="#110605" stroke-width="0.6994" stroke-linecap="round" stroke-linejoin="round"/>
<path d="M128.426 138.847C129.102 137.19 130.954 136.218 132.571 136.672" stroke="white" stroke-width="0.6994" stroke-linecap="round" stroke-linejoin="round"/>
<path d="M126.98 146.541C125.054 154.955 123.129 163.369 121.203 171.783" stroke="white" stroke-width="0.6994" stroke-linecap="round" stroke-linejoin="round"/>
<path d="M169.052 211.683L146.903 205.072C143.39 204.022 141.324 200.08 142.288 196.266L151.868 158.452C154.517 147.997 164.471 141.854 174.102 144.729C183.734 147.605 189.393 158.41 186.744 168.865L177.164 206.679C176.197 210.493 172.565 212.736 169.052 211.688V211.683Z" fill="#FE9EC2"/>
<mask id="mask1_2196_4515" style="mask-type:luminance" maskUnits="userSpaceOnUse" x="142" y="144" width="46" height="68">
<path d="M169.056 211.679L146.907 205.068C143.394 204.018 141.328 200.076 142.292 196.262L151.872 158.448C154.521 147.993 164.475 141.85 174.106 144.725C183.738 147.601 189.397 158.406 186.748 168.861L177.168 206.675C176.201 210.489 172.569 212.732 169.056 211.685V211.679Z" fill="white"/>
</mask>
<g mask="url(#mask1_2196_4515)">
<path d="M182.43 164.777L176.645 154.571L166.5 160.367L161.525 150.239L151.826 154.492L150.209 150.144L163.511 144.314L168.29 154.047L178.208 148.383L184.128 158.829L195.136 153.523L196.888 157.807L182.43 164.777Z" fill="#FF5548"/>
<path d="M179.319 178.008L173.618 166.572L163.048 172.926L157.528 162.21L148.209 166.917L146.388 162.669L159.339 156.123L164.719 166.564L175.339 160.18L181.085 171.705L191.338 165.861L193.348 170.011L179.319 178.008Z" fill="#FF5548"/>
<path d="M175.082 191.686L170.152 178.921L160.351 185.89L153.99 173.858L143.734 178.506L142.071 174.18L155.842 167.939L161.818 179.243L172.128 171.91L177.158 184.938L187.267 178.529L189.444 182.578L175.082 191.686Z" fill="#FF5548"/>
</g>
<path d="M155.661 153.624C157.735 149.676 161.607 146.906 165.767 146.388" stroke="white" stroke-width="0.6994" stroke-linecap="round" stroke-linejoin="round"/>
<path d="M184.373 139.429L168.198 134.599L165.825 143.965L182 148.795L184.373 139.429Z" fill="#A24941"/>
<path d="M183.211 139.608L169.12 135.403L171.493 126.037L189.128 129.036L188.287 132.401C186.123 133.006 184.424 134.823 183.83 137.161L183.211 139.608Z" fill="#A24941"/>
<path d="M169.248 134.9L183.38 138.943" stroke="#110605" stroke-width="0.6994" stroke-linecap="round" stroke-linejoin="round"/>
<path d="M188.658 129.717C188.25 129.711 187.861 130.033 187.752 130.459C187.644 130.884 187.827 131.377 188.178 131.601" stroke="#110605" stroke-width="0.6994" stroke-linecap="round" stroke-linejoin="round"/>
<path d="M169.881 136.767C169.225 139.103 168.57 141.438 167.915 143.773" stroke="#110605" stroke-width="0.6994" stroke-linecap="round" stroke-linejoin="round"/>
<path d="M173.054 137.76C172.577 140.182 172.097 142.601 171.62 145.023" stroke="#110605" stroke-width="0.6994" stroke-linecap="round" stroke-linejoin="round"/>
<path d="M175.196 138.185C174.652 140.551 174.108 142.917 173.561 145.281" stroke="#110605" stroke-width="0.6994" stroke-linecap="round" stroke-linejoin="round"/>
<path d="M180.825 139.869C180.306 142.114 179.788 144.363 179.27 146.608" stroke="#110605" stroke-width="0.6994" stroke-linecap="round" stroke-linejoin="round"/>
</g>
<defs>
<clipPath id="clip0_2196_4515">
<rect width="193.453" height="137" fill="white" transform="translate(-4.32642 41.4429)"/>
</clipPath>
</defs>
</svg>
