<svg width="190" height="138" viewBox="0 0 190 138" fill="none" xmlns="http://www.w3.org/2000/svg">
<g clip-path="url(#clip0_971_4030)">
<path d="M50.2258 95.5804C33.8545 85.394 15.9795 81.8352 -2.87059 82.7704C-3.44579 102.874 -4.02099 122.981 -4.59619 143.085L88.9989 139.221C80.2135 121.094 66.597 105.767 50.2258 95.5804Z" fill="#FF5548"/>
<path d="M45.1089 110.592C41.2733 118.325 37.4378 126.059 33.6023 133.792" stroke="#110605" stroke-width="0.6994" stroke-linecap="round" stroke-linejoin="round"/>
<path d="M158.871 87.6344C148.811 72.8756 133.791 62.6584 117.683 57.0612C106.558 53.1944 95.7069 49.3976 84.5821 45.5308C83.1376 47.3396 80.744 48.188 78.5954 47.656C76.4442 47.124 74.636 44.9484 74.0557 42.6384C71.1977 43.3608 68.8247 43.7948 65.9668 44.5172C65.6985 46.0208 65.4303 47.5244 65.162 49.0252C43.0697 57.274 21.2301 66.654 -0.862179 74.9028C-1.0221 78.8956 -1.83202 83.0984 -1.99194 87.0912C10.2936 88.2924 21.8466 93.2176 32.1847 100.52C40.4078 106.33 47.501 113.8 54.7594 120.971C62.0152 128.142 69.6011 135.139 78.4458 139.751C87.293 144.36 97.6337 146.406 107.02 143.304L184.566 139.012C177.628 121.229 169.451 103.158 158.871 87.6344Z" fill="#A6C3A5"/>
<path d="M64.9763 49.0525C66.0003 50.2201 67.5118 50.8669 68.995 50.7661" stroke="#110605" stroke-width="0.6994" stroke-linecap="round" stroke-linejoin="round"/>
<path d="M10.2034 75.5759C10.7657 76.3879 11.3306 77.2027 11.8929 78.0147" stroke="#789682" stroke-width="0.6994" stroke-linecap="round" stroke-linejoin="round"/>
<path d="M18.3298 79.3815C19.2017 79.0847 20.0735 78.7907 20.9453 78.4939" stroke="#789682" stroke-width="0.6994" stroke-linecap="round" stroke-linejoin="round"/>
<path d="M25.9641 69.5867C26.4542 68.8783 26.9443 68.1671 27.4344 67.4587" stroke="#789682" stroke-width="0.6994" stroke-linecap="round" stroke-linejoin="round"/>
<path d="M35.0012 69.4431C35.9272 70.0927 36.8532 70.7451 37.7792 71.3947" stroke="#789682" stroke-width="0.6994" stroke-linecap="round" stroke-linejoin="round"/>
<path d="M34.3444 83.4587C34.2361 84.7019 34.1278 85.9423 34.0168 87.1855" stroke="#789682" stroke-width="0.6994" stroke-linecap="round" stroke-linejoin="round"/>
<path d="M22.5657 90.0049C23.2157 89.4085 23.8657 88.8121 24.5131 88.2129" stroke="#789682" stroke-width="0.6994" stroke-linecap="round" stroke-linejoin="round"/>
<path d="M44.9683 79.9093C46.1677 79.6741 47.3645 79.4361 48.5639 79.2009" stroke="#789682" stroke-width="0.6994" stroke-linecap="round" stroke-linejoin="round"/>
<path d="M48.5269 59.1541C48.4754 59.9829 48.4263 60.8117 48.3748 61.6377" stroke="#789682" stroke-width="0.6994" stroke-linecap="round" stroke-linejoin="round"/>
<path d="M55.5942 66.2556H58.3722" stroke="#789682" stroke-width="0.6994" stroke-linecap="round" stroke-linejoin="round"/>
<path d="M62.624 59.6982C63.3334 59.1102 64.0453 58.5194 64.7546 57.9314" stroke="#789682" stroke-width="0.6994" stroke-linecap="round" stroke-linejoin="round"/>
<path d="M69.5491 68.6111C70.359 69.0983 71.1689 69.5827 71.9814 70.0699" stroke="#789682" stroke-width="0.6994" stroke-linecap="round" stroke-linejoin="round"/>
<path d="M61.1749 77.7869C60.953 79.0861 60.7338 80.3881 60.512 81.6873" stroke="#789682" stroke-width="0.6994" stroke-linecap="round" stroke-linejoin="round"/>
<path d="M73.4011 88.2517C73.7287 89.2569 74.0537 90.2621 74.3813 91.2673" stroke="#789682" stroke-width="0.6994" stroke-linecap="round" stroke-linejoin="round"/>
<path d="M57.5398 95.1116C58.7882 94.742 60.0392 94.3752 61.2876 94.0056" stroke="#789682" stroke-width="0.6994" stroke-linecap="round" stroke-linejoin="round"/>
<path d="M47.4174 92.6853C47.3632 93.3937 47.309 94.1049 47.2549 94.8133" stroke="#789682" stroke-width="0.6994" stroke-linecap="round" stroke-linejoin="round"/>
<path d="M58.6985 110.602C60.0604 110.498 61.4249 110.394 62.7868 110.291" stroke="#789682" stroke-width="0.6994" stroke-linecap="round" stroke-linejoin="round"/>
<path d="M46.2763 103.51C45.8946 104.456 45.5129 105.402 45.1311 106.349" stroke="#789682" stroke-width="0.6994" stroke-linecap="round" stroke-linejoin="round"/>
<path d="M72.8975 121.057C73.5526 120.29 74.2078 119.523 74.8629 118.756" stroke="#789682" stroke-width="0.6994" stroke-linecap="round" stroke-linejoin="round"/>
<path d="M82.3838 105.654C83.4697 106.192 84.5582 106.729 85.6441 107.267" stroke="#789682" stroke-width="0.6994" stroke-linecap="round" stroke-linejoin="round"/>
<path d="M88.1202 86.8337C87.7952 87.9565 87.4702 89.0821 87.1426 90.2049" stroke="#789682" stroke-width="0.6994" stroke-linecap="round" stroke-linejoin="round"/>
<path d="M82.8838 75.4769C84.1374 74.7069 85.3909 73.9397 86.6419 73.1697" stroke="#789682" stroke-width="0.6994" stroke-linecap="round" stroke-linejoin="round"/>
<path d="M98.5708 72.2869C99.8244 72.5837 101.078 72.8777 102.329 73.1745" stroke="#789682" stroke-width="0.6994" stroke-linecap="round" stroke-linejoin="round"/>
<path d="M102.334 84.3455V87.3611" stroke="#789682" stroke-width="0.6994" stroke-linecap="round" stroke-linejoin="round"/>
<path d="M101.228 57.408C100.898 58.0576 100.567 58.7044 100.237 59.354" stroke="#789682" stroke-width="0.6994" stroke-linecap="round" stroke-linejoin="round"/>
<path d="M84.3564 62.7009V65.0081" stroke="#789682" stroke-width="0.6994" stroke-linecap="round" stroke-linejoin="round"/>
<path d="M118.505 68.0251C119.104 68.4395 119.705 68.8539 120.303 69.2683" stroke="#789682" stroke-width="0.6994" stroke-linecap="round" stroke-linejoin="round"/>
<path d="M118.677 76.0095C118.461 76.7795 118.242 77.5467 118.025 78.3167" stroke="#789682" stroke-width="0.6994" stroke-linecap="round" stroke-linejoin="round"/>
<path d="M112.297 60.394C113.006 59.9208 113.713 59.4476 114.422 58.9744" stroke="#789682" stroke-width="0.6994" stroke-linecap="round" stroke-linejoin="round"/>
<path d="M132.728 69.4431C133.816 70.0339 134.907 70.6247 135.996 71.2183" stroke="#789682" stroke-width="0.6994" stroke-linecap="round" stroke-linejoin="round"/>
<path d="M127.066 86.658C127.066 87.722 127.066 88.786 127.066 89.85" stroke="#789682" stroke-width="0.6994" stroke-linecap="round" stroke-linejoin="round"/>
<path d="M110.511 97.615C111.491 97.7914 112.471 97.9678 113.454 98.1442" stroke="#789682" stroke-width="0.6994" stroke-linecap="round" stroke-linejoin="round"/>
<path d="M98.4082 101.201C98.4624 102.206 98.5165 103.211 98.5707 104.217" stroke="#789682" stroke-width="0.6994" stroke-linecap="round" stroke-linejoin="round"/>
<path d="M105.438 114.154C106.418 114.037 107.398 113.919 108.378 113.799" stroke="#789682" stroke-width="0.6994" stroke-linecap="round" stroke-linejoin="round"/>
<path d="M116.877 118.767C117.587 119.241 118.294 119.714 119.003 120.187" stroke="#789682" stroke-width="0.6994" stroke-linecap="round" stroke-linejoin="round"/>
<path d="M105.763 126.392C105.219 126.924 104.675 127.456 104.128 127.988" stroke="#789682" stroke-width="0.6994" stroke-linecap="round" stroke-linejoin="round"/>
<path d="M87.129 121.607C86.6931 122.257 86.2572 122.909 85.8213 123.559" stroke="#789682" stroke-width="0.6994" stroke-linecap="round" stroke-linejoin="round"/>
<path d="M93.4868 132.447C94.142 133.273 94.7971 134.099 95.4523 134.928" stroke="#789682" stroke-width="0.6994" stroke-linecap="round" stroke-linejoin="round"/>
<path d="M77.635 129.931C77.3048 130.816 76.9747 131.704 76.6445 132.589" stroke="#789682" stroke-width="0.6994" stroke-linecap="round" stroke-linejoin="round"/>
<path d="M152.503 91.6189C153.483 91.9157 154.463 92.2097 155.443 92.5065" stroke="#789682" stroke-width="0.6994" stroke-linecap="round" stroke-linejoin="round"/>
<path d="M161.164 103.51C161.218 104.456 161.272 105.402 161.327 106.349" stroke="#789682" stroke-width="0.6994" stroke-linecap="round" stroke-linejoin="round"/>
<path d="M159.044 120.365C158.445 121.135 157.845 121.902 157.246 122.672" stroke="#789682" stroke-width="0.6994" stroke-linecap="round" stroke-linejoin="round"/>
<path d="M165.903 116.857C166.613 116.913 167.319 116.966 168.029 117.022" stroke="#789682" stroke-width="0.6994" stroke-linecap="round" stroke-linejoin="round"/>
<path d="M151.85 107.408C151.36 107.643 150.869 107.881 150.379 108.116" stroke="#789682" stroke-width="0.6994" stroke-linecap="round" stroke-linejoin="round"/>
<path d="M161.164 129.763C161.492 130.592 161.817 131.418 162.144 132.247" stroke="#789682" stroke-width="0.6994" stroke-linecap="round" stroke-linejoin="round"/>
<path d="M148.267 131.442C149.464 131.145 150.663 130.848 151.86 130.549" stroke="#789682" stroke-width="0.6994" stroke-linecap="round" stroke-linejoin="round"/>
<path d="M122.76 105.638L124.721 105.994" stroke="#789682" stroke-width="0.6994" stroke-linecap="round" stroke-linejoin="round"/>
<path d="M70.4636 101.912C70.6261 103.035 70.7912 104.16 70.9537 105.283" stroke="#789682" stroke-width="0.6994" stroke-linecap="round" stroke-linejoin="round"/>
<path d="M-0.9729 82.8863C9.64895 82.7127 20.0954 86.4983 29.3141 92.2243C38.5328 97.9531 46.6346 105.569 54.303 113.546C60.3439 119.83 66.1939 126.401 73.0035 131.679C79.813 136.957 87.7652 140.928 96.1275 141.216" stroke="#110605" stroke-width="0.6994" stroke-linecap="round" stroke-linejoin="round"/>
<path d="M93.1822 48.6352C91.9905 46.6472 90.8014 44.6592 89.6097 42.6712C89.1145 41.8424 88.5935 40.9884 87.8248 40.4592C87.0562 39.93 86.0141 39.6332 85.3331 40.2856C85.0571 39.0088 84.7554 37.8664 84.4794 36.5896C87.1103 33.6244 89.7439 30.6564 92.3748 27.6912C93.048 26.9324 93.7316 26.1596 94.1572 25.2132C94.5828 24.2668 94.7169 23.1076 94.2681 22.1752C93.8193 21.2428 92.6586 20.4616 91.7945 20.9376C92.6431 19.9688 93.0068 18.5296 92.7359 17.2276C92.4651 15.9256 91.5649 14.7944 90.4171 14.3156C89.2693 13.8368 87.8558 14.1336 86.8524 14.9036C87.1645 13.3356 86.4474 11.6584 85.2944 10.656C84.1415 9.65076 82.6196 9.25036 81.1417 9.23076C79.6637 9.21116 78.3843 9.30076 76.9605 9.73756C71.4097 11.4428 66.5992 15.7996 64.0611 21.4248C61.523 27.0472 61.2986 33.8456 63.4601 39.6528C64.5434 42.562 65.539 45.6504 66.8107 48.47C68.0797 51.2896 69.7486 53.9468 71.9771 55.946C74.8402 58.5164 78.4797 60.2776 82.194 60.3336C87.9615 60.4176 93.3937 60.3588 94.6292 55.8928C95.3179 53.4064 94.4873 50.8136 93.1847 48.6352H93.1822Z" fill="#110605"/>
<path d="M76.7944 8.08765C72.6261 9.77885 68.9557 12.8868 66.4305 16.8656C63.9079 20.8444 62.5408 25.6744 62.5743 30.5072" stroke="#110605" stroke-width="0.6994" stroke-linecap="round" stroke-linejoin="round"/>
<path d="M87.2878 40.6297C86.888 36.5781 85.1779 32.7365 82.8023 29.5837C81.3166 30.1325 79.8308 30.6785 78.3451 31.2273C77.6538 31.4821 76.9548 31.7397 76.2275 31.7817C75.5001 31.8237 74.7108 31.8713 74.1846 31.3225C73.9189 32.1345 73.3076 32.8065 72.5648 33.1089C71.8193 33.4113 70.9836 33.3189 70.2923 32.8961C69.8512 33.5429 69.4128 34.1897 68.9717 34.8365C69.3921 37.0513 69.9776 39.2185 70.3981 41.4333C71.7729 42.4889 72.9207 43.3905 74.2981 44.4461C78.4612 42.3769 82.7507 41.2849 87.2904 40.6325L87.2878 40.6297Z" fill="#A24941"/>
<path d="M75.9629 39.9612C76.3461 39.9612 76.6567 39.624 76.6567 39.208C76.6567 38.7921 76.3461 38.4548 75.9629 38.4548C75.5797 38.4548 75.269 38.7921 75.269 39.208C75.269 39.624 75.5797 39.9612 75.9629 39.9612Z" fill="#110605"/>
<path d="M85.0581 37.2198C85.0581 36.8026 84.746 36.4666 84.3643 36.4666C83.9825 36.4666 83.6704 36.8054 83.6704 37.2198C83.6704 37.6342 83.9825 37.973 84.3643 37.973C84.746 37.973 85.0581 37.6342 85.0581 37.2198Z" fill="#110605"/>
<path d="M76.9325 42.9688C78.7973 42.9688 80.309 41.3279 80.309 39.3036C80.309 37.2794 78.7973 35.6384 76.9325 35.6384C75.0678 35.6384 73.5562 37.2794 73.5562 39.3036C73.5562 41.3279 75.0678 42.9688 76.9325 42.9688Z" stroke="#110605" stroke-width="0.6994" stroke-linecap="round" stroke-linejoin="round"/>
<path d="M85.9618 40.7423C87.8266 40.7423 89.3383 39.1013 89.3383 37.0771C89.3383 35.0528 87.8266 33.4119 85.9618 33.4119C84.0971 33.4119 82.5854 35.0528 82.5854 37.0771C82.5854 39.1013 84.0971 40.7423 85.9618 40.7423Z" stroke="#110605" stroke-width="0.6994" stroke-linecap="round" stroke-linejoin="round"/>
<path d="M80.02 37.5112C80.5823 36.786 81.6141 36.5452 82.4008 36.954" stroke="#110605" stroke-width="0.6994" stroke-linecap="round" stroke-linejoin="round"/>
<path d="M74.8584 34.9317C75.1937 34.2569 75.7844 33.7389 76.4628 33.5233C77.1411 33.3105 77.8969 33.4057 78.5134 33.7809" stroke="#110605" stroke-width="0.6994" stroke-linecap="round" stroke-linejoin="round"/>
<path d="M82.7212 33.1665C83.3738 32.9901 84.0289 32.8109 84.6815 32.6345" stroke="#110605" stroke-width="0.6994" stroke-linecap="round" stroke-linejoin="round"/>
<path d="M81.4927 37.3376L82.4651 40.5352C82.1917 40.6248 81.8486 40.888 81.5752 40.9748" stroke="#110605" stroke-width="0.6994" stroke-linecap="round" stroke-linejoin="round"/>
<path d="M79.9194 43.1033C80.0046 43.7109 80.3605 44.1981 80.7551 44.2485C81.1498 44.2989 81.5496 43.9097 81.6992 43.3301L79.9194 43.1033Z" fill="white"/>
<path d="M67.0336 36.777C65.0656 36.637 63.0872 38.037 62.414 40.0474C61.7382 42.0606 62.4243 44.5106 64.0158 45.779C65.6072 47.0446 67.9674 47.0166 69.5305 45.7118L67.0336 36.7798V36.777Z" fill="#A24941"/>
<path d="M64.6584 40.74C65.4477 40.7456 66.237 40.7512 67.0289 40.7596" stroke="#110605" stroke-width="0.6994" stroke-linecap="round" stroke-linejoin="round"/>
<path d="M28.6916 14.1228L6.61479 17.9588C3.10426 19.7144 -0.0915806 21.6772 -3.24099 24.1104C-3.60726 29.7412 -3.95548 35.386 -3.73881 41.0252C-3.38028 50.3072 -1.21361 59.0376 0.659017 68.104C4.56934 59.6088 5.83066 48.3528 12.7434 42.5316C17.3218 38.676 21.9105 34.9576 26.4863 31.102C27.0331 31.7656 27.4896 32.4852 28.0365 33.1488C27.567 34.6832 28.2789 36.52 29.6279 37.2032C30.069 36.1784 30.7139 35.1424 31.1549 34.1176C31.1859 34.7644 31.9752 35.1732 32.5684 35.2404C33.3422 33.79 34.1161 32.3396 34.8924 30.8892C35.2974 30.1332 35.7127 29.3324 35.723 28.456C35.7359 27.3976 35.2561 26.09 34.3405 25.7288C35.9371 26.174 37.5337 26.622 39.1304 27.0672C39.6024 27.1988 40.0925 27.3304 40.5671 27.2212C41.0417 27.1092 41.4621 26.5996 41.4466 26.0704C38.0934 21.1144 33.6956 16.9956 28.6865 14.1228H28.6916Z" fill="#FE9EC2"/>
<path d="M30.9207 34.7739C30.9334 33.2479 30.9488 31.7191 30.9615 30.1931" stroke="#110605" stroke-width="0.6994" stroke-linecap="round" stroke-linejoin="round"/>
<path d="M33.2729 25.5291C33.8765 25.6439 34.4801 25.7587 35.0862 25.8735" stroke="#110605" stroke-width="0.6994" stroke-linecap="round" stroke-linejoin="round"/>
<path d="M4.49512 39.1462C5.26377 39.765 6.035 40.3838 6.80366 41.0026" stroke="#110605" stroke-width="0.6994" stroke-linecap="round" stroke-linejoin="round"/>
<path d="M61.0389 1.37611L32.7612 21.8189L33.8059 23.2889L40.9378 18.5681L41.3196 18.7837C41.8793 19.1001 42.5293 19.1673 43.1303 18.9657C46.3777 17.8793 57.1698 13.8641 63.5615 6.54491C64.2966 5.70211 64.4127 4.42251 63.8633 3.42571L63.0044 1.86051C62.5968 1.11851 61.6992 0.897312 61.0389 1.37611Z" fill="#110605"/>
<path d="M55.354 11.6515C58.1475 10.0835 60.6314 7.87434 62.5969 5.20874" stroke="white" stroke-width="0.6994" stroke-linecap="round" stroke-linejoin="round"/>
<path d="M32.7648 21.822L34.4801 23.3004L23.1489 47.3412C22.4602 48.8 20.8765 49.472 19.4604 48.9036C17.7993 48.2372 17.0332 46.1624 17.8173 44.4348C20.0536 39.5068 24.8152 29.8888 31.065 22.0964L32.7622 21.822H32.7648Z" fill="#A24941"/>
<path d="M19.3955 47.0766C19.7463 47.5834 20.3396 47.8802 20.9225 47.841C21.5054 47.8018 22.06 47.4294 22.3515 46.8806" stroke="#110605" stroke-width="0.6994" stroke-linecap="round" stroke-linejoin="round"/>
<path d="M29.6302 9.32873C18.0307 9.97553 6.21205 13.9123 -3.2981 21.1503L2.72474 33.9155C10.0734 36.1331 16.8932 30.2979 24.2934 28.2903C28.6319 27.1143 32.728 25.6303 36.8576 23.7683C36.3365 22.3151 34.9617 21.4639 33.5302 21.3211C29.2691 20.8927 25.0079 20.4643 20.7468 20.0359C23.4087 18.7283 25.921 17.7259 28.5829 16.4183C31.8407 17.7427 34.776 19.2379 38.0338 20.5623C38.5006 20.7527 38.9778 20.9431 39.4756 20.9543C39.9734 20.9655 40.5048 20.7583 40.773 20.3019C37.3966 16.3315 33.623 12.5515 29.6302 9.32593V9.32873Z" fill="#FE9EC2"/>
<path d="M19.659 19.6853C24.1987 20.1921 28.7384 20.7017 33.2755 21.2085C34.7458 21.3737 36.0509 22.4433 36.7577 23.8545C32.7003 25.3385 28.5011 27.0325 24.4438 28.5193C17.3066 31.1289 10.7112 36.8661 3.49927 34.5113" stroke="#110605" stroke-width="0.6994" stroke-linecap="round" stroke-linejoin="round"/>
<path d="M22.7671 19.7389C25.0163 18.7253 27.2629 17.7117 29.5121 16.7009C32.0631 17.6109 34.0054 19.1453 36.5564 20.0553" stroke="#110605" stroke-width="0.6994" stroke-linecap="round" stroke-linejoin="round"/>
<path d="M145.835 91.0508L135.029 88.9001L133.436 98.3329L144.241 100.484L145.835 91.0508Z" fill="#FF5548"/>
<path d="M143.913 93.2638L136.118 91.7126L138.935 78.533L145.584 79.8574L143.913 93.2638Z" fill="#FF5548"/>
<path d="M144.904 83.8555C144.123 83.8079 143.37 84.5219 143.308 85.3675C143.243 86.2131 143.88 87.0503 144.657 87.1399" stroke="#110605" stroke-width="0.6994" stroke-linecap="round" stroke-linejoin="round"/>
<path d="M136.649 89.2166L144.328 90.3646" stroke="#110605" stroke-width="0.6994" stroke-linecap="round" stroke-linejoin="round"/>
<path d="M146.843 96.7877L132.23 93.8813C129.863 93.4109 127.557 94.9901 126.93 97.5129L110.688 162.873C110.117 165.169 111.474 167.505 113.631 167.933L140.041 173.189C142.197 173.617 144.23 171.957 144.446 169.591L150.614 102.225C150.851 99.6241 149.213 97.2609 146.843 96.7877Z" fill="#FFBE50"/>
<mask id="mask0_971_4030" style="mask-type:luminance" maskUnits="userSpaceOnUse" x="110" y="93" width="41" height="81">
<path d="M146.839 96.7877L132.227 93.8813C129.859 93.4109 127.553 94.9901 126.926 97.5129L110.684 162.873C110.114 165.169 111.47 167.505 113.627 167.933L140.037 173.189C142.193 173.617 144.226 171.957 144.442 169.591L150.61 102.225C150.847 99.6241 149.209 97.2609 146.839 96.7877Z" fill="white"/>
</mask>
<g mask="url(#mask0_971_4030)">
<path d="M144.152 142.737C150.939 139.619 154.113 131.117 151.24 123.749C148.367 116.381 140.536 112.936 133.748 116.054C126.961 119.173 123.787 127.674 126.66 135.042C129.533 142.411 137.364 145.856 144.152 142.737Z" fill="white"/>
</g>
<path d="M133.704 124.467C137.782 125.444 141.863 126.424 145.941 127.401" stroke="#110605" stroke-width="0.6994" stroke-linecap="round" stroke-linejoin="round"/>
<path d="M137.622 128.994C139.366 129.153 141.112 129.313 142.856 129.473" stroke="#110605" stroke-width="0.6994" stroke-linecap="round" stroke-linejoin="round"/>
<path d="M128.426 97.8474C129.102 96.1898 130.954 95.2182 132.571 95.6718" stroke="white" stroke-width="0.6994" stroke-linecap="round" stroke-linejoin="round"/>
<path d="M126.98 105.541C125.054 113.955 123.129 122.369 121.203 130.783" stroke="white" stroke-width="0.6994" stroke-linecap="round" stroke-linejoin="round"/>
<path d="M169.052 170.683L146.903 164.072C143.39 163.022 141.324 159.08 142.288 155.266L151.868 117.452C154.517 106.997 164.471 100.854 174.102 103.729C183.734 106.605 189.393 117.41 186.744 127.865L177.164 165.679C176.197 169.493 172.565 171.736 169.052 170.688V170.683Z" fill="#FE9EC2"/>
<mask id="mask1_971_4030" style="mask-type:luminance" maskUnits="userSpaceOnUse" x="142" y="103" width="46" height="68">
<path d="M169.056 170.679L146.907 164.068C143.394 163.018 141.328 159.076 142.292 155.262L151.872 117.448C154.521 106.993 164.475 100.85 174.106 103.725C183.738 106.601 189.397 117.406 186.748 127.861L177.168 165.675C176.201 169.489 172.569 171.732 169.056 170.685V170.679Z" fill="white"/>
</mask>
<g mask="url(#mask1_971_4030)">
<path d="M182.43 123.777L176.645 113.571L166.5 119.367L161.525 109.239L151.826 113.492L150.209 109.144L163.511 103.314L168.29 113.047L178.208 107.383L184.128 117.829L195.136 112.523L196.888 116.807L182.43 123.777Z" fill="#FF5548"/>
<path d="M179.319 137.008L173.618 125.572L163.048 131.926L157.528 121.21L148.209 125.917L146.388 121.669L159.339 115.123L164.719 125.564L175.339 119.18L181.085 130.705L191.338 124.861L193.348 129.011L179.319 137.008Z" fill="#FF5548"/>
<path d="M175.082 150.686L170.152 137.921L160.351 144.89L153.99 132.858L143.734 137.506L142.071 133.18L155.842 126.939L161.818 138.243L172.128 130.91L177.158 143.938L187.267 137.529L189.444 141.578L175.082 150.686Z" fill="#FF5548"/>
</g>
<path d="M155.661 112.624C157.735 108.676 161.607 105.906 165.767 105.388" stroke="white" stroke-width="0.6994" stroke-linecap="round" stroke-linejoin="round"/>
<path d="M184.373 98.4293L168.198 93.5994L165.825 102.965L182 107.795L184.373 98.4293Z" fill="#A24941"/>
<path d="M183.211 98.6085L169.12 94.4029L171.493 85.0369L189.128 88.0357L188.287 91.4013C186.123 92.0061 184.424 93.8233 183.83 96.1613L183.211 98.6085Z" fill="#A24941"/>
<path d="M169.248 93.9001L183.38 97.9433" stroke="#110605" stroke-width="0.6994" stroke-linecap="round" stroke-linejoin="round"/>
<path d="M188.658 88.7166C188.25 88.711 187.861 89.033 187.752 89.4586C187.644 89.8842 187.827 90.377 188.178 90.601" stroke="#110605" stroke-width="0.6994" stroke-linecap="round" stroke-linejoin="round"/>
<path d="M169.881 95.7673C169.225 98.1025 168.57 100.438 167.915 102.773" stroke="#110605" stroke-width="0.6994" stroke-linecap="round" stroke-linejoin="round"/>
<path d="M173.054 96.7595C172.577 99.1815 172.097 101.601 171.62 104.023" stroke="#110605" stroke-width="0.6994" stroke-linecap="round" stroke-linejoin="round"/>
<path d="M175.196 97.1853C174.652 99.5513 174.108 101.917 173.561 104.281" stroke="#110605" stroke-width="0.6994" stroke-linecap="round" stroke-linejoin="round"/>
<path d="M180.825 98.8689C180.306 101.114 179.788 103.363 179.27 105.608" stroke="#110605" stroke-width="0.6994" stroke-linecap="round" stroke-linejoin="round"/>
</g>
<defs>
<clipPath id="clip0_971_4030">
<rect width="193.453" height="137" fill="white" transform="translate(-4.32642 0.442871)"/>
</clipPath>
</defs>
</svg>
