<svg version="1.1" id="Layer_1" xmlns="http://www.w3.org/2000/svg" xmlns:xlink="http://www.w3.org/1999/xlink" x="0px" y="0px"
	 width="100%" viewBox="0 0 306 217" enable-background="new 0 0 306 217" xml:space="preserve">
<path fill="#FAFAFC" opacity="1.000000" stroke="none" 
	d="
M188.000000,218.000000 
	C126.666672,218.000000 65.833267,217.963287 5.000235,218.096863 
	C1.575420,218.104385 0.897221,217.424469 0.903542,213.999832 
	C1.032141,144.333420 1.032134,74.666641 0.903552,5.000226 
	C0.897232,1.575739 1.575864,0.900357 5.000065,0.904432 
	C104.333237,1.022646 203.666626,1.022640 302.999786,0.904451 
	C306.423706,0.900378 307.102783,1.575318 307.096466,5.000093 
	C306.967834,74.666512 306.967896,144.333298 307.096466,213.999710 
	C307.102783,217.424057 306.426208,218.112717 302.999725,218.098679 
	C264.833649,217.942184 226.666702,218.000000 188.000000,218.000000 
z"/>
<path fill="#DAE7EB" opacity="1.000000" stroke="none" 
	d="
M103.702545,33.312584 
	C106.336151,33.044846 108.727516,33.025600 111.566620,33.010582 
	C113.450012,34.272736 115.034050,36.475258 115.811493,32.175438 
	C116.092896,29.326044 118.307655,28.861610 120.029144,28.023672 
	C147.660248,14.574161 174.752838,15.858253 201.226105,31.229162 
	C203.352112,32.463570 205.354965,33.044319 207.761368,33.032028 
	C220.909760,32.964886 234.058716,32.983257 247.207413,33.006878 
	C254.377853,33.019756 255.998413,34.666550 256.014557,41.781544 
	C256.042908,54.293465 255.359177,54.938335 242.717209,54.999344 
	C239.202560,55.016304 235.285080,53.966465 233.770981,59.045559 
	C232.203354,64.304123 233.426941,72.461151 236.561401,75.016884 
	C238.025970,76.211052 239.681122,75.987640 241.317917,75.992058 
	C249.140518,76.013161 256.963501,75.962196 264.785797,76.014412 
	C271.216492,76.057327 272.980072,77.901314 273.006958,84.371513 
	C273.061890,97.598679 272.674469,97.982063 259.252716,97.982094 
	C256.090363,97.982094 252.927994,97.978409 249.765640,97.982849 
	C242.816452,97.992607 241.439575,99.289368 240.889648,106.701859 
	C239.956253,108.231667 238.523972,108.267921 237.369232,108.857193 
	C235.637527,109.740913 234.254333,110.964867 234.682388,113.076340 
	C235.139603,115.331787 236.966171,115.619888 238.921677,115.441650 
	C239.740463,115.367035 240.558441,115.261414 241.637512,115.719559 
	C243.354416,118.357117 245.650665,119.012375 248.278473,119.004822 
	C250.769318,118.997658 253.285812,118.793053 255.745224,119.074944 
	C259.619873,119.519028 262.290100,121.317574 262.034912,125.818047 
	C261.903503,128.135437 262.022308,130.466553 262.012543,132.791412 
	C261.987091,138.854645 260.286652,140.718613 254.069580,140.949203 
	C249.260284,141.127563 244.439041,140.964600 239.623383,140.995468 
	C234.173492,141.030396 232.177261,142.964920 232.012268,148.416687 
	C231.936951,150.905182 232.008301,153.398117 232.032120,156.335266 
	C230.060303,158.038391 231.435654,158.252243 232.806946,158.794281 
	C233.337326,159.706177 233.654709,160.357147 234.000092,161.279114 
	C232.702255,163.584564 230.606888,161.846252 228.912231,162.645844 
	C233.874146,162.289948 238.743866,162.741821 243.952606,162.151566 
	C248.299469,161.717667 252.629333,162.152512 254.153229,166.124146 
	C255.912476,170.709122 255.989288,175.978653 253.945129,180.616013 
	C252.665894,183.518051 249.514954,184.068130 246.280243,184.049301 
	C230.358627,183.956512 214.435989,184.041901 198.016861,184.110489 
	C193.425934,184.018402 189.320999,183.380768 184.926453,184.296112 
	C171.850220,184.184494 159.089203,183.284073 146.076385,184.966766 
	C145.137741,185.444931 144.432083,185.467682 143.881760,185.115311 
	C139.532944,182.330582 135.536514,183.125610 131.392975,186.152252 
	C130.294556,182.780777 127.607780,184.057297 125.723724,184.051254 
	C100.412605,183.970200 75.101128,183.980957 49.789795,184.014404 
	C46.045021,184.019363 42.022678,184.233444 40.311802,180.156464 
	C38.182362,175.082031 37.968357,169.655167 40.965504,164.818207 
	C42.544117,162.270569 45.739883,162.051758 48.613415,162.024765 
	C53.442142,161.979416 58.272373,162.064194 63.100513,161.994019 
	C68.039398,161.922241 69.889923,159.986511 70.009224,154.981384 
	C70.013191,154.814957 70.008621,154.648331 70.010742,154.481827 
	C70.180084,141.202530 69.972839,140.988937 56.917461,140.988800 
	C55.585281,140.988785 54.253105,140.988434 52.920925,140.988907 
	C48.948986,140.990295 44.442219,141.744659 42.368313,137.267059 
	C40.115761,132.403748 40.248817,127.173119 42.556210,122.289459 
	C43.679626,119.911736 45.894398,118.884201 48.750935,118.952171 
	C53.714729,119.070259 58.705437,119.389229 63.607483,117.970497 
	C67.129761,116.951096 68.947784,114.810028 68.991653,111.163002 
	C69.013680,109.331520 69.043175,107.498268 68.990479,105.668091 
	C68.841949,100.510551 66.453407,98.055031 61.295025,98.005722 
	C53.136169,97.927734 44.975979,98.003525 36.816479,97.976135 
	C28.984291,97.949844 27.014309,95.983780 27.002285,88.290108 
	C26.999681,86.624893 26.946629,84.957329 27.015009,83.294884 
	C27.222212,78.257385 29.351805,76.084335 34.480972,76.028839 
	C43.139122,75.935173 51.799107,76.027641 60.458130,75.993362 
	C67.027695,75.967354 69.006645,73.972694 68.984779,67.291992 
	C68.968269,62.251434 70.205040,56.589653 63.184395,54.205795 
	C62.381203,53.230743 62.248146,52.444260 62.708679,51.223404 
	C71.063606,47.699551 75.028160,49.310577 78.145332,57.202965 
	C80.836967,64.017921 83.286644,70.928291 86.387314,78.003830 
	C87.401016,80.222397 87.493988,82.313828 88.419022,84.542191 
	C90.118225,88.216278 91.125275,91.771820 92.798050,95.454361 
	C94.597763,100.134064 96.402939,104.420380 97.952255,109.191254 
	C98.794029,111.833458 99.759964,114.037453 100.820572,116.592949 
	C102.558624,120.993996 103.935753,125.144524 105.737274,129.522705 
	C106.959900,133.288849 108.438416,136.575897 109.701416,140.319305 
	C110.821587,143.047012 111.646942,145.508240 112.837334,148.202621 
	C113.340668,149.621735 113.652672,150.736206 114.233971,152.121933 
	C115.539528,154.693253 116.452263,157.063568 117.630684,159.697861 
	C118.155479,161.119629 118.299385,162.290176 118.885223,163.697266 
	C120.123657,166.541107 120.766022,169.231522 121.878616,171.739853 
	C122.577866,173.316284 123.022964,175.204575 125.608818,175.510895 
	C151.110184,175.488632 176.211044,175.519440 198.818619,175.505814 
	C176.932266,175.379684 152.551880,175.664734 127.737396,175.303513 
	C126.744209,175.094238 126.203789,174.907272 125.323257,174.466888 
	C121.756065,171.648773 121.736504,167.360641 119.505829,163.802399 
	C118.868851,162.291199 118.574860,161.063782 118.052017,159.500488 
	C117.622581,158.079971 117.436684,157.021759 117.892723,155.553772 
	C118.501984,154.724655 118.975502,154.374954 119.961090,153.977325 
	C141.388412,153.235168 162.380157,153.729919 183.839050,153.567642 
	C184.926804,153.562027 185.544662,153.562836 186.615982,153.565491 
	C193.249924,153.577133 199.430542,153.661682 206.008392,153.444687 
	C208.871124,152.574081 209.320755,150.462769 209.833191,148.310928 
	C211.180389,142.653641 212.284729,136.946091 213.563690,130.870193 
	C215.772018,120.521172 217.781464,110.533096 220.486420,100.287827 
	C220.779160,98.543640 221.122299,97.247971 222.357452,95.947968 
	C228.336411,93.365295 229.019318,91.589905 225.683502,86.660896 
	C186.718903,86.283882 148.137604,86.500748 109.556572,86.424515 
	C103.736221,86.413017 97.915527,86.490471 91.629944,86.329117 
	C90.865768,86.225227 90.567154,86.161118 89.862839,85.900452 
	C87.767166,83.924080 87.714119,81.568253 87.096619,78.984024 
	C83.881561,70.959183 81.033951,63.220558 78.232506,55.474838 
	C76.584396,50.917953 74.046257,48.663475 69.113441,49.314590 
	C67.495483,49.528156 65.819427,49.360081 63.813087,48.958313 
	C62.945774,48.709045 62.464878,48.523743 61.640335,48.161987 
	C59.713879,47.103897 57.689762,47.536690 56.095745,45.941280 
	C55.987473,43.909164 55.922279,42.236877 56.046337,40.578747 
	C56.399372,35.860325 59.374023,33.032078 64.096245,33.014000 
	C74.425850,32.974453 84.755737,33.007301 95.555717,33.019211 
	C96.270325,33.247818 96.488159,33.489674 96.654335,33.768353 
	C97.590424,35.338184 97.447441,37.985867 100.118500,37.878525 
	C102.708138,37.774452 102.442162,35.089573 103.702545,33.312584 
z"/>
<path fill="#3C9DB6" opacity="1.000000" stroke="none" 
	d="
M184.374344,184.484283 
	C188.671906,181.938873 192.753433,181.590530 197.185028,184.130478 
	C202.143158,190.765228 200.374207,197.968597 193.696045,199.679413 
	C189.850327,200.664597 186.324432,200.033585 183.900589,196.746216 
	C181.010239,192.826126 181.346619,188.726822 184.374344,184.484283 
z"/>
<path fill="#409CB5" opacity="1.000000" stroke="none" 
	d="
M131.021301,186.270447 
	C136.233627,180.651276 138.328995,180.480728 145.485992,185.120316 
	C149.813324,193.827087 145.992615,200.051041 136.398468,199.828461 
	C135.325867,199.219208 134.658234,198.741104 133.657379,198.253540 
	C132.622726,197.459946 131.891434,196.719406 131.004364,195.767487 
	C129.719482,192.990952 129.780685,190.364014 130.690186,187.270111 
	C130.939163,186.834229 130.994110,186.458405 131.021301,186.270447 
z"/>
<path fill="#BAD4DB" opacity="1.000000" stroke="none" 
	d="
M242.069885,115.596565 
	C240.969437,116.232857 240.048538,116.614258 239.090073,116.824028 
	C236.574936,117.374496 234.336411,116.835327 233.342697,114.281456 
	C232.302536,111.608185 233.325241,109.471565 235.846161,108.069427 
	C237.172913,107.331497 238.549637,106.860161 240.469147,107.084976 
	C242.424698,109.640640 244.004669,112.166832 242.069885,115.596565 
z"/>
<path fill="#BAD4DB" opacity="1.000000" stroke="none" 
	d="
M103.640236,32.903046 
	C104.293259,36.319477 103.959457,39.554943 99.875679,39.564171 
	C96.551003,39.571686 95.638763,36.877510 96.016273,33.428761 
	C98.378769,30.790911 100.817024,30.738373 103.640236,32.903046 
z"/>
<path fill="#018BAA" opacity="1.000000" stroke="none" 
	d="
M62.480095,50.927315 
	C63.110355,51.786209 63.035927,52.496025 62.970375,53.563381 
	C57.538834,54.886948 52.049984,54.102272 46.592087,54.380165 
	C43.374527,54.543991 43.758900,52.309147 43.853054,50.354179 
	C43.947392,48.395298 42.954422,45.711040 46.587093,45.774387 
	C49.408783,45.823589 52.232510,45.755978 55.510788,45.657639 
	C57.915821,45.726223 59.865391,45.877457 62.160084,46.269356 
	C62.425175,46.754978 62.345142,46.999928 61.961678,47.478607 
	C57.799858,49.015415 53.796551,48.066051 49.883411,48.481647 
	C48.800316,48.596676 47.228222,48.486633 47.280861,50.060005 
	C47.332722,51.610218 48.920902,51.488762 49.990822,51.510414 
	C53.934097,51.590195 57.908691,51.984676 62.480095,50.927315 
z"/>
<path fill="#53A9BF" opacity="1.000000" stroke="none" 
	d="
M233.472473,158.986755 
	C231.229691,158.964676 229.439423,158.874176 227.608231,158.781601 
	C228.151337,156.520996 230.010971,157.335342 231.673370,156.852173 
	C236.133942,156.781509 240.216766,156.781509 244.299591,156.781509 
	C244.294144,157.333252 244.288696,157.884979 244.283249,158.436722 
	C240.909531,159.428024 237.360535,158.577011 233.472473,158.986755 
z"/>
<path fill="#BAD4DB" opacity="1.000000" stroke="none" 
	d="
M115.622055,31.921719 
	C116.748848,33.581356 117.859016,35.531277 115.442657,36.559025 
	C113.063560,37.570919 112.193047,35.897640 112.017899,33.389252 
	C112.833160,31.862730 114.084579,32.014641 115.622055,31.921719 
z"/>
<path fill="#085B89" opacity="1.000000" stroke="none" 
	d="
M243.830414,161.869324 
	C241.227234,163.279373 233.942291,163.561234 227.353500,162.559647 
	C229.217972,161.179123 231.297455,162.164658 233.606781,161.664764 
	C237.138138,161.637482 240.248199,161.724869 243.830414,161.869324 
z"/>
<path fill="#3C9DB6" opacity="1.000000" stroke="none" 
	d="
M130.606567,186.994049 
	C130.935913,189.412048 130.932678,191.989853 130.889038,195.061890 
	C128.523346,192.901291 128.627823,190.080292 130.606567,186.994049 
z"/>
<path fill="#3C9DB6" opacity="1.000000" stroke="none" 
	d="
M133.506897,198.487366 
	C134.296783,198.102448 135.252914,197.964935 135.896896,199.364441 
	C135.214981,199.390503 134.437363,199.082367 133.506897,198.487366 
z"/>
<path fill="#2E86A3" opacity="1.000000" stroke="none" 
	d="
M141.843201,39.865746 
	C142.307877,39.087978 142.685318,38.597328 143.284470,38.022606 
	C143.927567,37.857437 144.301300,37.679539 144.801712,37.130409 
	C144.983368,36.870823 144.967651,36.965618 144.921814,36.951172 
	C145.450699,36.553295 146.212662,36.561863 146.845413,35.726860 
	C160.278000,28.702070 173.430710,31.517984 179.955170,45.332584 
	C184.532715,55.024872 182.268173,64.407364 173.777649,71.992996 
	C172.798340,72.286240 172.125336,72.466019 171.286179,72.963699 
	C171.115997,73.267174 171.203613,73.182854 171.228683,73.238251 
	C165.912949,76.100235 160.416290,78.031761 153.845856,76.192352 
	C150.654190,76.575775 148.634995,74.959839 146.295654,73.379860 
	C145.860443,72.834061 145.615250,72.569778 145.111694,72.186035 
	C144.885361,72.036491 144.978775,72.042068 144.969818,72.087997 
	C144.790405,71.824570 144.574753,71.550842 144.084167,71.184067 
	C143.854538,71.055344 143.936203,71.003601 143.959656,71.045868 
	C143.740036,70.738846 143.445374,70.441711 142.782181,70.132919 
	C142.239166,70.085449 142.068939,69.992470 141.949127,69.628242 
	C141.852615,69.062408 141.677307,68.695808 141.143890,68.198090 
	C140.893890,68.013397 140.968567,68.039726 140.949585,68.074463 
	C137.240067,61.720783 135.714523,55.010521 137.886017,47.339893 
	C138.524857,45.491611 139.181488,44.051472 139.960327,42.280643 
	C140.306427,41.730389 140.522385,41.503239 140.839584,41.060379 
	C140.948792,40.852245 140.999084,40.941719 140.953125,40.964535 
	C141.240250,40.760204 141.523239,40.482086 141.843201,39.865746 
z"/>
<path fill="#409CB5" opacity="1.000000" stroke="none" 
	d="
M227.503387,85.265442 
	C230.021149,88.047577 229.079636,91.424675 228.687866,94.479507 
	C228.336594,97.218628 225.378372,95.518150 222.763611,95.980247 
	C220.429276,95.450409 218.932999,95.432228 217.437363,95.432930 
	C177.748947,95.451683 138.060486,95.337807 97.960831,95.541962 
	C97.296036,95.667931 97.042542,95.740631 96.444710,95.980995 
	C94.964951,96.731194 93.808533,96.762482 92.302559,96.184158 
	C90.071884,92.857285 88.807846,89.389603 88.157257,85.327499 
	C88.442352,84.810982 88.672424,84.680534 89.250000,84.741486 
	C89.597504,84.932877 89.792068,84.808731 89.878021,84.885719 
	C90.981400,85.779640 92.189842,85.503235 93.327278,85.502632 
	C137.902634,85.478821 182.478043,85.586937 227.503387,85.265442 
z"/>
<path fill="#F8AE28" opacity="1.000000" stroke="none" 
	d="
M221.637756,99.479950 
	C219.517227,109.995186 217.277115,120.091599 214.915466,130.562225 
	C212.990219,130.836121 213.094650,129.292526 212.621552,127.772011 
	C211.815994,124.206108 209.192780,125.683868 207.355560,125.417694 
	C205.607849,125.164505 203.790482,125.285828 201.692871,126.044937 
	C191.894760,126.788200 191.068649,125.866096 192.646149,116.827003 
	C193.377060,112.638817 194.776855,108.530365 194.233185,103.751884 
	C193.977219,101.498329 194.403809,99.821136 195.677917,97.953598 
	C203.456436,94.076546 211.348511,95.894455 219.088303,95.915001 
	C220.835403,95.919640 221.623657,97.299690 221.637756,99.479950 
z"/>
<path fill="#F9AE2A" opacity="1.000000" stroke="none" 
	d="
M213.648254,126.758064 
	C214.115875,128.167389 214.225052,129.300873 214.564087,130.685394 
	C213.401199,137.534012 212.062866,144.143906 210.571365,150.719070 
	C210.260590,152.089081 210.057236,153.698486 208.214859,154.622528 
	C201.208817,154.200943 194.529190,154.579590 187.451157,154.703186 
	C186.579575,154.910049 186.110519,154.950455 185.301727,154.887634 
	C184.649124,154.440659 184.504257,154.036667 184.614563,153.249664 
	C185.219269,151.959244 185.747192,150.994965 185.717911,149.501953 
	C185.965485,145.778305 187.217392,142.665329 188.433105,139.185333 
	C189.437180,137.719604 189.830643,136.409668 190.027313,134.648071 
	C190.150970,134.046555 190.211670,133.804611 190.395447,133.202545 
	C191.375580,129.149750 193.203613,126.444008 197.788391,126.073730 
	C203.235825,126.291779 208.323608,124.317345 213.648254,126.758064 
z"/>
<path fill="#018BAA" opacity="1.000000" stroke="none" 
	d="
M125.740936,173.824188 
	C145.835205,174.125168 165.656509,174.204758 185.477844,174.270477 
	C191.642639,174.290909 197.807709,174.251831 203.972336,174.290436 
	C205.384521,174.299271 207.633728,173.834290 207.592239,175.783691 
	C207.548706,177.828506 205.235962,177.046463 203.921432,177.048874 
	C177.595932,177.097061 151.270279,177.076889 124.478882,177.022919 
	C123.423035,176.019012 123.849319,175.175629 124.550468,174.078522 
	C125.019020,173.746735 125.243500,173.672089 125.740936,173.824188 
z"/>
<path fill="#FCB303" opacity="1.000000" stroke="none" 
	d="
M221.858673,99.593811 
	C220.920197,97.605446 219.392532,96.808029 216.876831,96.942245 
	C210.127914,97.302307 203.296631,96.279022 196.322418,98.123520 
	C187.214127,99.175987 178.388596,98.265747 169.585754,98.519768 
	C166.851059,98.598686 164.192337,98.599976 162.495209,101.844620 
	C162.138885,103.551338 160.363632,100.084969 160.828522,102.588127 
	C161.929169,108.514313 161.417679,114.476768 161.384125,120.423782 
	C161.366379,123.570900 159.606735,125.324753 156.375992,125.350639 
	C148.928802,125.410301 141.474228,125.832260 133.632874,124.753883 
	C131.600235,123.303764 130.875214,121.720963 131.675568,119.285675 
	C138.516495,122.653275 145.746597,121.201492 152.778549,121.447937 
	C156.232605,121.568985 157.517639,119.883156 157.464417,116.589363 
	C157.394562,112.263680 157.357697,107.931778 157.478531,103.608223 
	C157.579163,100.008354 156.047653,98.486649 152.444687,98.532761 
	C142.631317,98.658348 132.814941,98.369301 122.589523,98.784836 
	C116.279350,98.495392 110.374634,98.405922 104.465981,98.480736 
	C102.328644,98.507797 100.179543,98.458359 97.883987,99.838623 
	C94.839882,100.459747 94.975052,98.499039 94.952438,96.443665 
	C95.135384,96.057327 95.043556,96.045708 95.046982,96.091866 
	C96.546555,94.664818 98.460945,95.019722 100.254410,95.018723 
	C139.530411,94.996788 178.806412,94.998535 218.082413,95.010506 
	C219.408707,95.010910 220.751892,94.921364 222.433792,95.712448 
	C222.838409,96.002029 222.750748,96.084938 222.755737,96.145081 
	C222.493805,97.233101 222.226898,98.260979 221.858673,99.593811 
z"/>
<path fill="#BAD4DB" opacity="1.000000" stroke="none" 
	d="
M86.006393,171.267960 
	C86.596893,166.817657 89.246986,164.647141 92.993378,164.288849 
	C96.077324,163.993912 98.828949,165.491440 100.490166,168.251236 
	C102.273560,171.214035 101.992561,174.143097 99.998352,177.031616 
	C97.717529,180.335266 94.278389,180.724335 91.158051,179.713501 
	C87.718018,178.599121 85.453728,175.806107 86.006393,171.267960 
z"/>
<path fill="#BAD4DB" opacity="1.000000" stroke="none" 
	d="
M106.370560,55.926464 
	C103.543587,59.199158 100.625862,61.150925 96.532745,59.233536 
	C93.081436,57.616798 91.818657,54.758648 91.981827,51.100731 
	C92.150650,47.316372 95.672508,43.998646 99.529716,44.013794 
	C103.172638,44.028099 106.773445,47.140594 106.973351,50.659641 
	C107.066040,52.291389 106.734276,53.947243 106.370560,55.926464 
z"/>
<path fill="#FBB301" opacity="1.000000" stroke="none" 
	d="
M184.459198,152.455505 
	C185.013443,153.413193 185.004761,153.805161 184.979034,154.490768 
	C163.276779,154.858154 141.591553,154.931900 119.440727,155.075455 
	C118.730698,155.245590 118.486282,155.345932 117.844452,155.427078 
	C116.969910,155.130386 116.626945,154.735764 116.351791,153.826553 
	C116.321388,152.874817 116.500877,152.375366 117.207352,151.794922 
	C124.857224,152.840744 132.132156,153.211578 139.757294,151.631622 
	C140.986099,150.951859 141.815796,150.355240 143.076996,149.796173 
	C147.550674,153.679764 152.671478,152.564285 157.565216,152.542633 
	C159.894714,152.532318 160.542496,150.786606 161.242432,148.663452 
	C161.543671,148.187225 161.688507,148.021820 162.126846,147.762756 
	C162.579422,147.713043 162.737930,147.759109 162.897705,147.800369 
	C163.057449,147.841644 163.218445,147.878143 163.378891,147.916718 
	C162.025833,144.131454 162.920517,140.192947 162.591232,135.948502 
	C162.624832,133.610718 162.586304,131.661255 162.738495,129.274826 
	C162.920334,128.249847 163.142883,127.700211 163.761719,126.856087 
	C168.375076,124.736336 172.881653,125.808937 177.723740,125.589050 
	C180.341187,125.580879 182.535477,125.753326 185.119308,125.350693 
	C186.071045,125.163361 186.624283,125.160423 187.582916,125.353271 
	C188.492584,125.740555 188.918564,126.103363 189.448120,126.941711 
	C189.833847,128.513550 189.740509,129.582001 188.068375,130.169952 
	C181.896393,128.913940 176.065125,129.652405 170.266129,129.524475 
	C167.863281,129.471451 166.547134,130.578232 166.518494,133.096283 
	C166.459930,138.247864 166.483353,143.398804 166.507462,148.550339 
	C166.520126,151.255173 167.854813,152.403854 170.496033,152.499542 
	C174.984772,152.662155 179.443497,152.398270 184.459198,152.455505 
z"/>
<path fill="#2697B2" opacity="1.000000" stroke="none" 
	d="
M62.617775,48.598755 
	C63.443951,48.091019 63.932312,48.226036 64.424622,48.242405 
	C76.832497,48.654877 76.846764,48.647240 81.241699,60.115868 
	C83.435089,65.839531 85.565628,71.587280 87.765717,77.688049 
	C87.587379,78.845886 87.059692,79.309906 85.936447,79.315338 
	C82.613464,71.631393 79.293266,64.231224 76.754837,56.571964 
	C75.288109,52.146355 73.058365,50.387840 68.553322,51.131756 
	C67.097557,51.372147 65.566025,51.153725 63.626968,51.110790 
	C63.184788,51.076397 63.067886,51.113270 63.014351,51.083431 
	C62.421200,50.545052 62.224747,49.911732 62.617775,48.598755 
z"/>
<path fill="#018BAA" opacity="1.000000" stroke="none" 
	d="
M227.495651,84.981094 
	C226.797958,86.475861 225.192902,85.981422 223.760330,85.982201 
	C180.501968,86.005798 137.243607,86.004753 93.985245,85.982773 
	C92.845398,85.982193 91.705704,85.706024 90.264954,85.260544 
	C135.655273,84.938309 181.346573,84.913902 227.495651,84.981094 
z"/>
<path fill="#BAD4DB" opacity="1.000000" stroke="none" 
	d="
M251.269287,123.842056 
	C254.106720,128.929520 253.281937,133.005966 249.431030,134.671692 
	C245.771469,136.254639 241.831940,134.553970 240.453796,130.868301 
	C239.418243,128.098816 240.591034,125.940964 242.432648,124.149170 
	C245.031204,121.620911 247.962357,121.347885 251.269287,123.842056 
z"/>
<path fill="#BAD4DB" opacity="1.000000" stroke="none" 
	d="
M91.718605,158.151825 
	C89.358498,155.361481 89.195709,152.657242 91.380493,150.263626 
	C93.140518,148.335373 95.347641,147.426620 98.067520,148.991989 
	C100.637291,150.470947 101.393265,152.605621 100.935631,155.284607 
	C100.280785,159.118057 96.367401,160.449951 91.718605,158.151825 
z"/>
<path fill="#BAD4DB" opacity="1.000000" stroke="none" 
	d="
M116.154007,52.983467 
	C111.467789,51.941265 111.401421,48.558258 112.263878,45.489517 
	C112.966499,42.989460 115.467690,41.606510 118.199760,42.097282 
	C121.072487,42.613312 123.117218,44.511986 122.911911,47.579102 
	C122.663521,51.289875 120.320045,53.117859 116.154007,52.983467 
z"/>
<path fill="#BAD4DB" opacity="1.000000" stroke="none" 
	d="
M76.288361,169.785034 
	C73.876244,167.721176 73.348267,165.860733 75.697708,163.759628 
	C76.979538,162.613281 78.192612,161.432983 80.002876,162.667526 
	C82.081001,164.084763 82.620422,166.192139 81.648544,168.325562 
	C80.692078,170.425110 79.071938,171.905533 76.288361,169.785034 
z"/>
<path fill="#0A94B8" opacity="1.000000" stroke="none" 
	d="
M105.233551,130.250046 
	C103.277084,125.913483 101.670433,121.777298 100.059586,117.252388 
	C99.761620,115.585808 100.464378,114.948380 101.929321,114.553719 
	C105.048660,116.184570 105.246971,119.207588 106.369537,122.144943 
	C106.944527,124.537071 107.931900,126.444084 107.663467,128.985474 
	C107.124527,130.144012 106.467476,130.504593 105.233551,130.250046 
z"/>
<path fill="#2697B2" opacity="1.000000" stroke="none" 
	d="
M125.130402,173.762054 
	C124.733856,174.901962 124.488480,175.656357 124.128098,176.693039 
	C120.152481,173.799606 120.174744,168.763519 118.112442,164.338791 
	C118.310966,163.222916 118.817398,162.791122 119.880035,162.768845 
	C122.081711,165.887283 123.051460,169.224808 124.296310,172.814758 
	C124.762337,173.188797 125.021950,173.282669 125.130402,173.762054 
z"/>
<path fill="#0A94B8" opacity="1.000000" stroke="none" 
	d="
M94.838211,96.033257 
	C95.547707,97.331413 95.960022,98.605499 96.671036,100.044518 
	C99.111237,101.531158 99.361084,103.766869 99.721535,106.308258 
	C99.446411,107.891273 99.057007,109.036507 97.653778,109.830002 
	C94.761070,105.804207 94.052094,101.063354 92.052170,96.444855 
	C92.793442,94.903587 93.687675,96.127060 94.838211,96.033257 
z"/>
<path fill="#BAD4DB" opacity="1.000000" stroke="none" 
	d="
M130.301468,35.928268 
	C131.327545,38.406235 131.213120,40.278458 128.559967,40.885567 
	C127.094673,41.220863 125.482376,41.228901 124.541252,39.684357 
	C123.656952,38.233082 123.930199,36.805576 125.028183,35.548519 
	C126.725708,33.605057 128.415604,33.727047 130.301468,35.928268 
z"/>
<path fill="#1680A4" opacity="1.000000" stroke="none" 
	d="
M137.618469,47.218376 
	C138.389160,47.367554 138.844528,47.830353 138.617508,48.603859 
	C136.686783,55.182182 138.632401,61.275475 140.946045,67.714890 
	C135.956284,61.895802 135.094284,54.971500 137.618469,47.218376 
z"/>
<path fill="#BAD4DB" opacity="1.000000" stroke="none" 
	d="
M231.892563,132.308868 
	C232.095215,134.819351 231.851685,136.717682 229.157043,136.914871 
	C227.699127,137.021561 226.542099,136.393143 226.198624,134.932999 
	C225.820892,133.327316 225.639862,131.533401 227.346878,130.559525 
	C229.155762,129.527527 230.796692,129.905533 231.892563,132.308868 
z"/>
<path fill="#3A94AE" opacity="1.000000" stroke="none" 
	d="
M63.671482,129.029266 
	C65.294785,129.248077 66.724060,128.503662 68.110359,130.647354 
	C61.851772,131.118500 56.142082,131.119858 50.414059,130.112625 
	C54.605343,128.501694 58.948502,129.263290 63.671482,129.029266 
z"/>
<path fill="#1396B2" opacity="1.000000" stroke="none" 
	d="
M104.979630,130.414948 
	C105.507500,129.815552 106.131264,129.581436 106.944160,129.064087 
	C107.338028,128.730179 107.542763,128.679489 108.035027,128.766174 
	C108.468857,129.059280 108.615158,129.215027 108.945541,129.634323 
	C109.356339,130.266876 109.573486,130.641464 109.941589,131.310638 
	C110.965851,133.668015 111.995483,135.692688 111.700676,138.369537 
	C111.208565,139.565155 110.495232,140.113632 109.370056,140.673599 
	C107.183228,137.656967 106.168571,134.203018 104.979630,130.414948 
z"/>
<path fill="#3A94AE" opacity="1.000000" stroke="none" 
	d="
M233.140823,167.912170 
	C230.847534,167.709335 228.865051,168.383682 225.802765,166.465042 
	C232.904572,166.465042 238.555878,166.465042 244.207184,166.465042 
	C240.867447,168.712570 237.147659,167.525635 233.140823,167.912170 
z"/>
<path fill="#0E82A0" opacity="1.000000" stroke="none" 
	d="
M199.502899,48.997604 
	C198.576553,48.919537 197.928711,49.012962 197.644409,48.734810 
	C196.930710,48.036499 197.631577,47.519199 198.199234,47.512688 
	C203.338257,47.453766 208.478226,47.478180 213.617935,47.478180 
	C213.626511,47.985432 213.635101,48.492683 213.643692,48.999935 
	C209.078094,48.999935 204.512497,48.999935 199.502899,48.997604 
z"/>
<path fill="#3A94AE" opacity="1.000000" stroke="none" 
	d="
M201.281616,38.133572 
	C205.737015,38.394604 209.809265,37.578995 213.748734,39.533669 
	C208.255554,39.533669 202.762375,39.533669 197.184402,39.533669 
	C197.755371,37.287117 199.587891,38.483196 201.281616,38.133572 
z"/>
<path fill="#0A94B8" opacity="1.000000" stroke="none" 
	d="
M109.030716,141.164368 
	C109.142448,139.928024 109.452896,139.249344 110.689163,139.031372 
	C114.064346,140.527710 114.696556,143.409134 115.065796,146.826263 
	C114.743942,148.366669 114.262810,149.304092 112.552597,149.159637 
	C110.408028,146.798508 109.936775,144.079742 109.030716,141.164368 
z"/>
<path fill="#0E82A0" opacity="1.000000" stroke="none" 
	d="
M153.653992,76.402206 
	C159.318146,76.344231 165.077240,75.816673 170.862244,73.222229 
	C166.167572,77.985291 160.150055,77.981567 153.653992,76.402206 
z"/>
<path fill="#1396B2" opacity="1.000000" stroke="none" 
	d="
M97.314453,110.187073 
	C97.685753,109.004883 98.082359,108.185150 98.698883,107.188904 
	C102.659851,108.143875 102.275299,111.361565 102.362701,114.591156 
	C101.544937,115.412872 100.935631,115.878639 100.190857,116.604034 
	C98.463379,115.054344 97.991020,112.763458 97.314453,110.187073 
z"/>
<path fill="#2697B2" opacity="1.000000" stroke="none" 
	d="
M116.761398,153.723175 
	C117.120972,154.280380 117.289742,154.551437 117.650894,154.968414 
	C118.016495,155.221222 118.194611,155.325073 118.241318,155.708878 
	C118.332687,156.799683 118.555450,157.610504 118.789062,158.737656 
	C118.584038,159.849060 118.056442,160.311539 116.935287,160.316406 
	C115.642868,157.939529 114.680161,155.738739 113.676987,153.217072 
	C114.806442,152.035110 115.763290,152.321671 116.761398,153.723175 
z"/>
<path fill="#FBB301" opacity="1.000000" stroke="none" 
	d="
M187.512192,154.914307 
	C193.729614,153.065262 200.501343,154.169342 207.560196,154.485870 
	C201.244965,154.807770 194.610352,154.883362 187.512192,154.914307 
z"/>
<path fill="#085B89" opacity="1.000000" stroke="none" 
	d="
M59.930084,135.126068 
	C56.559185,134.928574 53.593269,135.571411 50.755142,134.234619 
	C56.235924,134.234619 61.716705,134.234619 68.200897,134.234619 
	C65.001511,135.622009 62.659527,134.901031 59.930084,135.126068 
z"/>
<path fill="#1396B2" opacity="1.000000" stroke="none" 
	d="
M116.948685,153.655701 
	C116.044624,153.663101 115.132133,153.319916 113.928085,152.936462 
	C113.144073,151.821915 112.651634,150.747635 112.179123,149.311264 
	C113.130852,148.884689 113.819702,148.522110 114.016602,147.187286 
	C116.651123,147.336853 116.898445,149.214005 116.584427,151.666870 
	C116.595139,152.436356 116.767708,152.870743 116.948685,153.655701 
z"/>
<path fill="#085B89" opacity="1.000000" stroke="none" 
	d="
M65.295296,124.859268 
	C66.276939,125.111282 68.529343,125.608604 66.079041,125.868271 
	C61.039341,126.402351 55.903461,126.028824 50.794464,124.856941 
	C55.486698,124.856941 60.178936,124.856941 65.295296,124.859268 
z"/>
<path fill="#085B89" opacity="1.000000" stroke="none" 
	d="
M201.281586,42.996216 
	C205.669922,42.996155 209.594498,42.996155 213.519073,42.996155 
	C213.519333,43.278271 213.519577,43.560390 213.519821,43.842506 
	C208.247101,43.842506 202.974380,43.842506 197.612885,43.842506 
	C198.414581,42.298344 199.789062,43.314281 201.281586,42.996216 
z"/>
<path fill="#1396B2" opacity="1.000000" stroke="none" 
	d="
M85.673065,79.497604 
	C86.156105,78.869179 86.706490,78.598114 87.531860,78.189514 
	C89.108566,79.881721 89.072731,82.056938 89.488861,84.538177 
	C89.366608,84.932198 89.135719,84.931511 88.558556,84.936127 
	C86.972580,83.447975 85.945869,81.851021 85.673065,79.497604 
z"/>
<path fill="#BAD4DB" opacity="1.000000" stroke="none" 
	d="
M82.004623,154.672592 
	C79.875969,153.647629 79.524506,152.317871 80.948074,150.768127 
	C81.564499,150.097061 82.464088,150.107452 83.079369,150.783051 
	C84.499229,152.342102 84.144348,153.665054 82.004623,154.672592 
z"/>
<path fill="#1396B2" opacity="1.000000" stroke="none" 
	d="
M116.669647,160.484100 
	C117.154449,159.870132 117.703316,159.599945 118.526047,159.191864 
	C119.251427,160.110809 119.702957,161.167664 120.176994,162.571716 
	C119.676109,163.189575 119.152710,163.460236 118.357933,163.847351 
	C117.635612,162.918488 117.184662,161.873184 116.669647,160.484100 
z"/>
<path fill="#0E82A0" opacity="1.000000" stroke="none" 
	d="
M171.469376,73.341484 
	C171.362503,72.473396 171.928223,72.115387 173.100769,72.090660 
	C172.920288,72.537453 172.371521,72.976624 171.469376,73.341484 
z"/>
<path fill="#0281A5" opacity="1.000000" stroke="none" 
	d="
M146.653595,35.524841 
	C146.769928,36.135494 146.406967,36.713188 145.236938,36.907539 
	C145.365158,36.507271 145.854340,36.077820 146.653595,35.524841 
z"/>
<path fill="#0281A5" opacity="1.000000" stroke="none" 
	d="
M142.659821,70.327362 
	C142.863831,70.223030 143.253815,70.385643 143.813477,70.818192 
	C143.604019,70.923515 143.224899,70.758904 142.659821,70.327362 
z"/>
<path fill="#0281A5" opacity="1.000000" stroke="none" 
	d="
M144.676147,36.946732 
	C144.700745,37.176090 144.418121,37.481358 143.820831,37.862579 
	C143.793747,37.633232 144.081345,37.327934 144.676147,36.946732 
z"/>
<path fill="#0281A5" opacity="1.000000" stroke="none" 
	d="
M141.687561,39.758175 
	C141.766617,39.947269 141.602798,40.315907 141.173065,40.835945 
	C141.086334,40.637474 141.265518,40.287598 141.687561,39.758175 
z"/>
<path fill="#0281A5" opacity="1.000000" stroke="none" 
	d="
M140.697784,40.934319 
	C140.915527,41.196484 140.771667,41.485683 140.299866,41.834900 
	C140.203934,41.638771 140.325348,41.327579 140.697784,40.934319 
z"/>
<path fill="#E5EEF0" opacity="1.000000" stroke="none" 
	d="
M125.242706,174.174866 
	C124.897652,173.973495 124.816063,173.799438 124.618599,173.360168 
	C124.887726,173.242355 125.272728,173.389771 125.835815,173.794067 
	C125.844658,174.101334 125.675423,174.151749 125.242706,174.174866 
z"/>
<path fill="#0281A5" opacity="1.000000" stroke="none" 
	d="
M143.911591,71.339020 
	C144.157196,71.244690 144.459854,71.434029 144.861694,71.878647 
	C144.630127,71.963516 144.299393,71.793106 143.911591,71.339020 
z"/>
<path fill="#0281A5" opacity="1.000000" stroke="none" 
	d="
M140.971680,68.314102 
	C141.192337,68.293808 141.490768,68.574211 141.862167,69.164810 
	C141.639893,69.188263 141.344681,68.901543 140.971680,68.314102 
z"/>
<path fill="#D8EDF8" opacity="1.000000" stroke="none" 
	d="
M118.295685,155.895233 
	C118.109924,155.988846 117.856934,155.589676 117.847656,155.353516 
	C118.028572,155.091995 118.218758,155.066605 118.692032,155.093231 
	C118.880547,155.416672 118.715988,155.635468 118.295685,155.895233 
z"/>
<path fill="#0281A5" opacity="1.000000" stroke="none" 
	d="
M144.964401,72.322021 
	C145.196899,72.231583 145.508423,72.426666 145.949066,72.872940 
	C145.733246,72.951935 145.388351,72.779747 144.964401,72.322021 
z"/>
<path fill="#018BAA" opacity="1.000000" stroke="none" 
	d="
M62.379265,46.624706 
	C62.643600,46.832256 62.781994,47.154491 62.937069,47.744003 
	C62.953747,48.011288 62.981667,47.983372 62.963226,47.978897 
	C62.486412,48.125717 62.109013,48.020763 61.919453,47.301186 
	C62.013996,46.981815 62.253326,46.739388 62.379265,46.624706 
z"/>
<path fill="#DAE7EB" opacity="1.000000" stroke="none" 
	d="
M189.479797,187.241821 
	C192.742950,186.354324 194.586777,188.012421 195.853897,190.162628 
	C196.496918,191.253815 195.922256,192.522598 194.629639,193.502228 
	C192.577118,195.057724 190.541656,196.014664 188.459824,194.054138 
	C185.989014,191.727295 186.573242,189.388489 189.479797,187.241821 
z"/>
<path fill="#D0E3E9" opacity="1.000000" stroke="none" 
	d="
M142.086273,188.900024 
	C143.286758,191.669769 143.078140,193.859070 140.319489,194.843689 
	C138.106796,195.633469 136.043259,195.080841 134.687729,192.946671 
	C133.527176,191.119476 133.976685,189.014023 135.274597,187.901642 
	C137.373047,186.103165 139.844894,186.427368 142.086273,188.900024 
z"/>
<path fill="#409CB5" opacity="1.000000" stroke="none" 
	d="
M61.544716,46.989677 
	C62.082191,47.308670 62.244232,47.579323 62.722450,47.884102 
	C62.952885,48.743927 62.960991,49.513432 62.964958,50.668266 
	C57.743458,55.045361 51.835087,52.464043 46.247116,52.655624 
	C44.684761,52.709183 45.078205,50.581741 45.053680,49.308208 
	C45.020462,47.582989 46.066338,47.020996 47.616673,47.020893 
	C52.102928,47.020599 56.589180,47.006321 61.544716,46.989677 
z"/>
<path fill="#E7B40A" opacity="1.000000" stroke="none" 
	d="
M167.075485,54.644623 
	C165.956772,55.636173 165.150848,56.320408 164.157730,57.196686 
	C160.295059,58.934460 161.408752,62.623413 160.148026,65.668816 
	C156.755539,62.675247 157.277740,57.527721 160.991409,56.052223 
	C164.591187,54.621983 166.766830,52.494003 166.005203,48.244133 
	C165.507065,45.464569 163.832611,43.008259 161.373810,43.260303 
	C157.772552,43.629456 153.086563,43.352966 152.019424,48.583309 
	C151.809128,49.613926 151.477646,50.442238 150.190994,51.315575 
	C150.150909,47.602394 150.405212,44.404472 153.748840,41.927338 
	C154.267349,41.660206 154.446152,41.535198 154.906128,41.242714 
	C155.187271,41.075233 155.037689,41.049202 155.033661,41.125011 
	C157.304276,39.568432 159.761154,40.051479 162.601257,40.859024 
	C162.980469,41.136864 162.984192,41.029484 162.930542,41.032326 
	C163.172028,41.221519 163.438324,41.442600 163.816132,41.918106 
	C163.956451,42.137859 163.957031,42.041336 163.909485,42.049698 
	C164.045258,42.184383 164.228546,42.310703 164.676620,42.640472 
	C165.328827,43.137661 165.716263,43.431404 166.293427,43.887852 
	C167.227371,44.264194 167.459000,44.865665 167.774414,45.818436 
	C167.944458,46.104469 167.985626,46.029114 167.946472,46.011520 
	C168.849579,48.844437 169.070923,51.650097 167.075485,54.644623 
z"/>
<path fill="#0281A5" opacity="1.000000" stroke="none" 
	d="
M160.244995,65.822876 
	C161.080200,63.256130 157.686890,58.708015 163.582336,57.552734 
	C161.317322,59.526947 162.966049,63.417988 160.244995,65.822876 
z"/>
<path fill="#0281A5" opacity="1.000000" stroke="none" 
	d="
M162.800201,40.823799 
	C160.625122,41.120937 158.269760,41.105015 155.472031,41.144958 
	C157.317444,38.305798 159.888016,38.521030 162.800201,40.823799 
z"/>
<path fill="#047CB1" opacity="1.000000" stroke="none" 
	d="
M167.134201,54.818447 
	C168.024033,52.380123 168.233978,49.649578 167.946625,46.421906 
	C169.687302,48.979374 169.812973,51.888378 167.134201,54.818447 
z"/>
<path fill="#047CB1" opacity="1.000000" stroke="none" 
	d="
M167.930267,45.751682 
	C167.535812,45.624073 167.127167,45.143673 166.600861,44.356915 
	C167.200058,44.245750 167.758606,44.609211 167.930267,45.751682 
z"/>
<path fill="#0281A5" opacity="1.000000" stroke="none" 
	d="
M163.861603,41.882336 
	C163.665192,41.936924 163.373947,41.735989 162.979797,41.285110 
	C163.173523,41.232384 163.470154,41.429596 163.861603,41.882336 
z"/>
<path fill="#0281A5" opacity="1.000000" stroke="none" 
	d="
M154.966278,41.131325 
	C154.987381,41.324623 154.787476,41.574009 154.338074,41.804306 
	C154.223831,41.494125 154.442734,41.294861 154.966278,41.131325 
z"/>
<path fill="#0281A5" opacity="1.000000" stroke="none" 
	d="
M164.823746,42.640968 
	C164.649734,42.737167 164.358063,42.630413 163.964172,42.290859 
	C164.188019,42.085464 164.469391,42.212116 164.823746,42.640968 
z"/>
<path fill="#0E9EBE" opacity="1.000000" stroke="none" 
	d="
M222.809540,95.601944 
	C180.550735,96.008751 138.263062,96.015472 95.512894,96.080109 
	C95.274277,93.614235 97.199730,94.031464 98.801201,94.030922 
	C138.959488,94.017395 179.117767,94.016594 219.276047,94.037483 
	C220.531174,94.038132 222.019882,93.599556 222.809540,95.601944 
z"/>
<path fill="#F9AE2B" opacity="1.000000" stroke="none" 
	d="
M161.493286,103.110321 
	C161.376495,97.858307 163.885681,96.593674 168.587250,96.903847 
	C177.507736,97.492355 186.481918,96.504601 195.706573,97.708084 
	C195.694443,99.454247 195.390900,100.900208 195.062317,102.717857 
	C194.846802,109.533401 193.394974,115.706253 190.743225,122.011139 
	C188.718277,124.281380 186.395615,124.375565 184.050781,124.393929 
	C179.912140,124.426315 175.773315,124.423370 171.634735,124.403664 
	C163.634598,124.365562 162.806900,123.553284 162.600891,115.230881 
	C162.598450,113.767380 162.655014,112.721878 162.466400,111.334000 
	C162.328888,110.765388 162.274323,110.541710 162.149719,109.987228 
	C161.781006,107.980408 161.933487,106.273758 161.682709,104.294861 
	C161.591766,103.802406 161.553711,103.605995 161.493286,103.110321 
z"/>
<path fill="#047CB1" opacity="1.000000" stroke="none" 
	d="
M189.907333,121.282715 
	C191.786667,115.304817 193.380783,109.590652 195.006073,103.483017 
	C197.762070,106.828773 194.323334,110.468307 194.820511,114.187828 
	C194.892807,114.728638 194.174164,115.329887 194.041275,115.950249 
	C192.185776,124.611412 192.195084,124.613403 201.561691,124.845108 
	C203.395432,124.558197 204.822830,123.996628 206.212921,125.510849 
	C203.734161,127.411552 200.962326,126.058411 198.026993,126.493156 
	C196.210571,126.841843 194.818161,127.072701 192.985336,126.837006 
	C191.203156,126.219315 190.789307,124.830002 189.793518,123.451614 
	C189.531525,122.581650 189.531906,122.064003 189.907333,121.282715 
z"/>
<path fill="#FCB303" opacity="1.000000" stroke="none" 
	d="
M196.846466,126.415054 
	C199.816833,126.094528 202.623184,125.967422 205.615189,125.831909 
	C204.751755,124.490005 203.657837,125.210007 202.405518,124.871918 
	C206.129761,124.134766 210.413544,122.064980 213.982574,126.619904 
	C208.651733,127.024918 203.296738,127.015938 197.474625,127.002380 
	C196.899139,126.868034 196.790802,126.738258 196.846466,126.415054 
z"/>
<path fill="#1680A4" opacity="1.000000" stroke="none" 
	d="
M189.850677,123.171204 
	C191.658966,123.145554 192.041321,124.117447 192.022888,125.745255 
	C193.529633,128.668472 190.994278,130.890076 191.071869,133.642029 
	C190.750351,133.914703 190.836365,133.953384 190.837692,133.906250 
	C190.141144,135.348679 190.731857,136.977478 190.012314,138.721710 
	C188.658279,142.199982 187.629547,145.456406 186.749756,149.061050 
	C186.823807,149.953079 186.635635,150.454269 185.960251,151.066666 
	C181.904617,148.044800 184.883118,144.332260 184.815079,140.498840 
	C185.120361,138.958588 185.608292,137.855545 185.882721,136.344910 
	C186.011993,135.800354 186.069336,135.586121 186.224640,135.059113 
	C186.693344,133.744247 186.893494,132.699768 187.188995,131.349945 
	C187.402176,130.865036 187.516647,130.684616 187.915054,130.355499 
	C189.147232,129.531342 188.872162,128.500229 188.987061,127.215317 
	C188.684677,126.621559 188.354767,126.394585 187.720886,126.146591 
	C187.330322,126.402557 187.140976,126.503242 186.720947,126.301811 
	C184.500656,126.680000 182.377121,126.421867 179.823975,126.486885 
	C178.282913,126.156708 176.374847,127.270355 176.229736,125.409790 
	C176.119644,123.998207 177.863937,124.113457 178.956863,124.056900 
	C181.425171,123.929146 183.899490,124.021378 186.785431,123.990494 
	C188.018265,123.962723 188.803162,123.818184 189.850677,123.171204 
z"/>
<path fill="#E7B40A" opacity="1.000000" stroke="none" 
	d="
M191.075317,133.748672 
	C191.170197,131.573410 191.590057,129.232117 192.021133,126.491791 
	C193.417419,126.095337 194.802490,126.097908 196.599014,126.161057 
	C197.010468,126.221634 197.013214,126.609764 197.010345,126.803787 
	C193.207077,127.548149 192.644165,130.855331 191.075317,133.748672 
z"/>
<path fill="#E7B40A" opacity="1.000000" stroke="none" 
	d="
M190.030731,138.750366 
	C189.870667,137.409439 190.054306,135.875320 190.538483,134.100159 
	C190.925522,135.448990 191.398468,137.077103 190.030731,138.750366 
z"/>
<path fill="#FBB301" opacity="1.000000" stroke="none" 
	d="
M185.677551,151.127670 
	C186.054260,150.520660 186.154068,150.076477 186.576294,149.520782 
	C186.880432,150.674606 187.387817,152.109375 185.403595,152.942581 
	C185.022110,153.021225 185.002090,153.000504 184.994843,152.989227 
	C184.633133,152.295013 184.919281,151.768875 185.677551,151.127670 
z"/>
<path fill="#F8AE2A" opacity="1.000000" stroke="none" 
	d="
M121.774765,98.218132 
	C122.988876,96.757118 124.386551,97.013298 125.691132,97.011330 
	C135.351669,96.996750 145.013840,97.102814 154.671890,96.947014 
	C157.830826,96.896049 159.183868,97.751328 159.057724,101.141655 
	C158.834900,107.129578 158.857162,113.136208 159.050766,119.126152 
	C159.153671,122.309830 157.813339,123.133484 154.903152,123.039703 
	C149.911514,122.878845 144.895126,122.754089 139.919418,123.078697 
	C136.403320,123.308075 133.792953,122.501228 131.763794,119.179848 
	C128.332153,117.324837 128.332077,113.858353 126.986839,111.165817 
	C126.187523,109.565941 125.615639,107.847870 124.507477,106.008339 
	C122.700058,103.991585 124.128914,101.228622 122.011215,99.355011 
	C121.709862,98.907524 121.642784,98.696114 121.774765,98.218132 
z"/>
<path fill="#F9AE2A" opacity="1.000000" stroke="none" 
	d="
M121.560791,97.910110 
	C121.981430,98.130310 121.989021,98.309052 122.003616,98.756073 
	C123.988701,100.519279 122.256920,103.148949 123.978745,105.058220 
	C124.315536,105.516220 124.446327,105.701279 124.706322,106.198708 
	C125.125534,107.573753 125.102562,108.690155 125.492020,110.062515 
	C125.661591,110.578468 125.731033,110.784874 125.901840,111.302834 
	C126.373055,112.877342 126.712967,114.149788 127.327240,115.689438 
	C127.549911,116.213036 127.641586,116.423958 127.874786,116.954941 
	C128.211090,117.714958 128.394302,118.159721 128.692413,118.968948 
	C128.866318,119.585403 128.916336,119.841125 128.978119,120.494766 
	C128.683929,123.698372 126.660896,124.173637 124.370392,124.326065 
	C122.404724,124.456871 120.396042,124.149490 118.073624,124.989594 
	C113.666061,125.142204 109.488945,126.566208 105.539429,123.294907 
	C104.373665,120.481873 103.568123,117.918098 102.458405,115.150711 
	C101.194069,112.505623 100.233902,110.064148 99.096268,107.317520 
	C98.281425,104.983406 97.644051,102.954422 96.988205,100.567444 
	C97.048363,98.713791 97.008713,96.981575 99.133331,97.067207 
	C106.470558,97.362907 113.867805,96.056595 121.560791,97.910110 
z"/>
<path fill="#0E82A0" opacity="1.000000" stroke="none" 
	d="
M161.312561,102.432053 
	C161.470917,102.811058 161.549011,102.770241 161.539825,102.727158 
	C163.457672,104.659592 162.022934,107.140549 162.683197,109.738754 
	C162.836624,110.147911 162.677750,110.010620 162.607956,110.089050 
	C163.788971,110.434929 163.372772,111.460953 163.485504,112.673523 
	C163.593536,116.167511 163.251419,119.245300 163.710785,122.704239 
	C162.849289,126.288597 159.797195,124.986076 158.601974,125.427490 
	C158.950485,125.184052 159.993347,125.372963 161.089035,126.533470 
	C160.996964,127.129807 160.817978,127.335281 160.276642,127.743271 
	C155.408722,128.694412 150.896164,128.537735 146.006378,127.898209 
	C144.763824,127.396011 145.414291,125.673004 143.355194,126.036461 
	C140.086899,126.613342 136.577042,127.059067 133.227051,124.637161 
	C141.038162,123.943413 148.979965,123.860321 156.916992,124.017303 
	C159.752716,124.073380 160.425247,123.323227 160.287613,120.354340 
	C159.940857,112.874107 160.172821,105.367065 160.686874,97.824402 
	C160.842651,99.233948 160.998428,100.643494 161.312561,102.432053 
z"/>
<path fill="#047CB1" opacity="1.000000" stroke="none" 
	d="
M124.224525,107.200439 
	C124.015694,106.882339 124.036369,106.471725 124.073799,106.269592 
	C124.208832,105.846664 124.306427,105.625870 124.723892,105.235352 
	C127.880287,109.170715 129.206589,113.947937 131.210419,118.780945 
	C131.929504,120.436966 132.463638,121.817978 133.048004,123.565376 
	C133.098251,123.931770 133.009186,123.936241 132.979065,123.969116 
	C131.931824,125.035973 132.029770,126.767952 130.346375,127.774521 
	C127.842430,128.594025 125.661713,128.403122 123.055252,128.074280 
	C118.569847,126.490807 113.825958,128.651230 109.373627,125.730522 
	C111.845154,123.840050 114.173409,124.812508 116.677734,124.513168 
	C119.691902,123.870010 122.354988,123.855965 124.985611,124.038399 
	C128.545700,124.285309 129.445541,122.729317 128.267242,119.232452 
	C128.090820,118.892235 128.057297,118.968010 128.098709,118.969154 
	C127.554482,118.582016 127.527229,117.934013 127.400528,117.029770 
	C127.418854,116.718742 127.466293,116.838699 127.479942,116.775665 
	C125.819107,115.363945 126.175781,113.219673 125.412201,111.124619 
	C125.373032,110.750389 125.293785,110.852066 125.357910,110.845528 
	C123.761360,110.128517 124.875214,108.591919 124.224525,107.200439 
z"/>
<path fill="#F9AE2A" opacity="1.000000" stroke="none" 
	d="
M122.606781,126.753929 
	C125.402939,126.978615 127.747406,127.012474 130.524292,127.125336 
	C131.837357,127.356743 132.529282,127.861977 132.827759,128.654068 
	C135.611176,136.040833 139.051331,143.169861 141.342545,151.047394 
	C140.983612,152.584335 140.645020,153.851181 139.206345,153.854691 
	C132.742966,153.870422 126.277870,153.833618 119.817551,153.660431 
	C118.946136,153.637054 118.098358,152.732666 116.831100,152.119110 
	C115.826477,150.408325 115.230377,148.814697 114.347031,147.046326 
	C113.797836,144.212631 112.415001,141.956192 111.210907,139.278397 
	C111.228935,136.486206 109.817223,134.453537 108.981575,131.895767 
	C108.894165,131.150223 108.742607,130.793594 108.323639,130.234772 
	C108.155357,129.990479 108.000755,129.588089 107.999481,129.372559 
	C106.970116,126.644485 108.464470,126.377556 110.385117,126.455566 
	C114.307060,126.614845 118.232674,126.421928 122.606781,126.753929 
z"/>
<path fill="#F9AE2A" opacity="1.000000" stroke="none" 
	d="
M162.095535,147.590515 
	C162.778687,152.677734 160.990570,154.712997 156.134323,154.031143 
	C154.032349,153.736023 151.834000,153.794250 149.715866,154.025528 
	C146.546906,154.371536 144.295380,153.402939 142.738617,150.226776 
	C138.417221,143.438568 135.410767,136.469574 135.705261,128.158905 
	C137.337372,126.628670 139.070190,126.366966 140.658554,126.674591 
	C146.389481,127.784561 152.164825,127.487717 157.930389,127.494148 
	C160.019196,127.496483 160.938416,128.583862 161.216034,130.440552 
	C161.535507,132.577194 161.376083,134.737549 161.446243,137.335007 
	C161.643829,140.916550 162.850815,143.971725 162.095535,147.590515 
z"/>
<path fill="#F8AE29" opacity="1.000000" stroke="none" 
	d="
M185.583206,150.813751 
	C185.705856,151.464050 185.457260,151.963272 185.098129,152.720230 
	C179.749451,154.346756 174.397247,153.854065 169.078857,154.023209 
	C166.195114,154.114899 164.848572,153.302917 164.946259,150.135559 
	C165.134979,144.017746 164.984573,137.889938 165.013107,131.766449 
	C165.020615,130.157379 164.708466,128.098999 167.165741,128.091385 
	C173.769012,128.070923 180.373154,128.205673 186.975418,128.348907 
	C187.300140,128.355942 187.610443,129.028030 188.063202,129.798615 
	C188.198975,130.206802 188.098068,130.124466 188.135681,130.071304 
	C186.791656,131.287399 187.837814,132.974121 187.262543,134.766205 
	C187.106796,135.123596 187.066498,135.032028 187.115540,135.022156 
	C185.864548,136.039001 186.864075,137.601044 186.172165,139.186401 
	C186.862686,143.355576 184.438690,146.886765 185.583206,150.813751 
z"/>
<path fill="#16829C" opacity="1.000000" stroke="none" 
	d="
M135.748413,129.204315 
	C137.918152,136.219620 139.994614,142.846817 142.219788,149.789337 
	C142.359756,150.670227 142.545242,151.342026 141.427643,151.410309 
	C137.892883,143.551514 134.578629,135.704132 131.110535,127.530540 
	C131.529663,126.116257 129.830597,124.088120 132.655029,123.905991 
	C137.097748,126.247826 141.640579,124.241966 145.905151,125.215797 
	C145.977921,125.232422 146.082016,125.502174 146.039825,125.564072 
	C145.858856,125.829559 145.628555,126.061409 145.211136,126.516602 
	C143.312775,128.269531 141.255234,127.127899 139.403488,127.491272 
	C138.092239,127.748596 136.309601,126.696930 135.748413,129.204315 
z"/>
<path fill="#0281A5" opacity="1.000000" stroke="none" 
	d="
M189.044525,124.496643 
	C185.183914,124.988220 181.227051,125.034538 177.270508,125.100113 
	C177.231049,125.100769 177.143646,125.465363 177.166321,125.476166 
	C177.558502,125.663170 177.964462,125.821274 178.689911,125.996544 
	C179.169754,126.126434 179.327133,126.245483 179.250183,126.545349 
	C174.309677,126.815346 169.603485,126.904503 164.428375,126.994576 
	C163.748611,127.092247 163.537781,127.189003 163.073914,127.051247 
	C162.898880,126.104866 163.279343,125.426582 163.974304,125.530510 
	C165.670074,125.784103 165.109192,124.727066 165.389832,123.737442 
	C173.466980,123.794327 181.230347,122.866096 189.044525,124.496643 
z"/>
<path fill="#047CB1" opacity="1.000000" stroke="none" 
	d="
M162.815063,126.776939 
	C163.137009,127.010254 163.548523,127.012733 163.753967,127.004105 
	C163.882706,127.449944 163.806000,127.904404 163.709106,128.707413 
	C163.293045,131.144165 163.533371,133.248199 163.684601,135.661957 
	C163.885452,140.464279 163.939224,144.950851 163.969376,149.437561 
	C163.971085,149.692657 163.779541,150.170761 163.677399,150.170914 
	C162.541473,150.172607 163.259491,149.195023 162.870605,148.373199 
	C161.038742,145.306381 162.006592,141.969849 160.626236,138.741898 
	C160.505798,134.848160 160.494781,131.370514 160.713501,127.494682 
	C160.891922,127.096481 160.988235,127.072495 161.016388,127.031624 
	C161.452606,126.599388 161.935455,126.450317 162.815063,126.776939 
z"/>
<path fill="#E7B40A" opacity="1.000000" stroke="none" 
	d="
M161.191772,138.661621 
	C162.018051,141.638885 162.430161,144.431625 162.812027,147.618103 
	C162.781769,148.011841 162.396133,148.013794 162.203445,148.011612 
	C159.950592,145.601074 161.833908,142.288330 160.086823,139.405792 
	C160.289825,138.834213 160.533722,138.655655 161.191772,138.661621 
z"/>
<path fill="#2E86A3" opacity="1.000000" stroke="none" 
	d="
M179.439117,126.782471 
	C179.015854,126.726189 178.988327,126.366821 179.000366,126.187103 
	C181.214523,126.034935 183.416672,126.062485 186.103378,126.136688 
	C184.457413,127.544136 182.104980,126.627762 179.439117,126.782471 
z"/>
<path fill="#0281A5" opacity="1.000000" stroke="none" 
	d="
M163.904816,135.547516 
	C162.385178,133.981400 163.011414,131.796555 163.475586,129.350861 
	C163.783554,131.076416 163.878189,133.096893 163.904816,135.547516 
z"/>
<path fill="#2E86A3" opacity="1.000000" stroke="none" 
	d="
M187.663040,126.293472 
	C187.819977,126.206955 188.217987,126.295670 188.813110,126.619629 
	C188.641525,126.726151 188.272827,126.597427 187.663040,126.293472 
z"/>
<path fill="#FBB301" opacity="1.000000" stroke="none" 
	d="
M122.829880,126.580063 
	C119.397736,126.963379 115.735916,126.936775 112.076805,127.023628 
	C110.678154,127.056831 108.982338,126.465919 108.084465,128.749054 
	C107.998199,129.157013 107.578773,128.938095 107.356033,128.859467 
	C106.505814,127.095703 105.878334,125.410545 105.215027,123.385521 
	C109.058846,124.465958 113.097679,123.891266 117.536484,124.001411 
	C118.098969,124.135025 118.207291,124.262741 118.152161,124.581215 
	C115.547600,124.913330 113.106499,125.054680 110.665398,125.196037 
	C110.665825,125.535820 110.666252,125.875595 110.666679,126.215378 
	C114.644882,126.215378 118.623085,126.215378 122.829880,126.580063 
z"/>
<path fill="#FBB301" opacity="1.000000" stroke="none" 
	d="
M108.148468,130.307526 
	C108.382065,130.311218 108.608772,130.631958 108.890991,131.250854 
	C108.678192,131.240875 108.409889,130.932724 108.148468,130.307526 
z"/>
<path fill="#FBB301" opacity="1.000000" stroke="none" 
	d="
M189.432144,124.842682 
	C184.798752,122.867447 180.203552,124.376076 175.737320,124.050545 
	C171.985992,123.777122 168.197464,124.014435 163.940430,124.172729 
	C163.848633,124.464790 164.372986,124.562157 163.904999,125.141716 
	C163.797928,125.274307 163.471283,125.116943 163.378799,124.535797 
	C163.339951,120.769814 163.105286,117.345901 162.931259,113.460678 
	C163.156265,112.833115 163.320633,112.666855 163.729950,112.751541 
	C164.139145,124.044098 162.707901,122.963554 174.190491,122.997055 
	C177.827652,123.007668 181.465118,122.972588 185.101929,123.009857 
	C186.788574,123.027130 188.435989,123.062431 189.843857,121.215332 
	C190.150421,121.457344 190.108292,121.895706 190.132477,122.659027 
	C190.040359,123.570869 189.881958,124.157761 189.432144,124.842682 
z"/>
<path fill="#FCB303" opacity="1.000000" stroke="none" 
	d="
M162.891922,109.704468 
	C161.234848,108.201950 162.425995,105.688164 161.518372,103.143814 
	C163.970413,104.452606 162.697830,107.020721 162.891922,109.704468 
z"/>
<path fill="#FCB303" opacity="1.000000" stroke="none" 
	d="
M163.980560,112.640701 
	C163.974899,113.002480 163.483398,113.000465 163.237640,112.999916 
	C162.797714,112.298927 162.603546,111.598480 162.473770,110.532761 
	C163.802292,110.335373 163.967621,111.256844 163.980560,112.640701 
z"/>
<path fill="#FBB301" opacity="1.000000" stroke="none" 
	d="
M187.418365,134.895538 
	C187.077408,133.554169 186.644562,131.947891 187.852966,130.240204 
	C188.025513,131.567917 187.877716,133.117706 187.418365,134.895538 
z"/>
<path fill="#FBB301" opacity="1.000000" stroke="none" 
	d="
M186.379379,139.320770 
	C186.114700,138.209915 185.710815,136.791885 186.836929,135.259338 
	C187.009155,136.362869 186.853729,137.713486 186.379379,139.320770 
z"/>
<path fill="#FBB301" opacity="1.000000" stroke="none" 
	d="
M124.908813,104.762177 
	C125.026711,105.421700 124.869804,105.698494 124.342133,105.981735 
	C121.212982,104.733795 122.186401,102.089790 122.006668,99.430878 
	C124.549690,97.920509 124.706108,99.922241 124.628426,101.369736 
	C124.571358,102.433151 123.967239,103.443192 124.908813,104.762177 
z"/>
<path fill="#E7B40A" opacity="1.000000" stroke="none" 
	d="
M118.449921,124.833984 
	C117.988701,124.771965 117.984825,124.389542 117.987732,124.198425 
	C119.929802,122.183472 122.326172,123.093498 124.499855,123.064667 
	C126.907204,123.032745 128.245987,122.339706 128.054871,119.316574 
	C131.160202,124.699898 131.160477,124.710770 124.848167,124.866516 
	C122.870117,124.915329 120.890205,124.888321 118.449921,124.833984 
z"/>
<path fill="#E7B40A" opacity="1.000000" stroke="none" 
	d="
M125.261139,111.137329 
	C126.049843,112.497627 126.726654,114.244858 127.448532,116.352356 
	C125.159599,115.684685 125.357658,113.512650 125.261139,111.137329 
z"/>
<path fill="#FBB301" opacity="1.000000" stroke="none" 
	d="
M124.006805,107.273941 
	C125.383118,107.567909 124.859467,109.060349 125.405952,110.471024 
	C123.654732,110.361237 124.104637,108.888496 124.006805,107.273941 
z"/>
<path fill="#E7B40A" opacity="1.000000" stroke="none" 
	d="
M127.309303,117.041969 
	C127.655373,117.260300 127.891899,117.801857 128.134277,118.656860 
	C127.467659,118.645592 127.134407,118.122154 127.309303,117.041969 
z"/>
<path fill="#FBB301" opacity="1.000000" stroke="none" 
	d="
M161.643982,138.393188 
	C161.345749,138.873886 161.085571,138.901627 160.435669,138.971069 
	C159.885941,127.999992 159.884415,127.893623 148.576813,128.056351 
	C144.490860,128.115143 140.302002,127.125916 136.073715,129.202728 
	C134.650513,128.127762 134.383804,126.951126 136.835709,126.871574 
	C139.255630,126.793053 141.679153,126.826416 144.553574,126.769188 
	C149.995239,126.832039 154.984451,126.936386 160.432770,127.068604 
	C161.155273,130.711060 161.418655,134.325653 161.643982,138.393188 
z"/>
<path fill="#2E86A3" opacity="1.000000" stroke="none" 
	d="
M163.154816,124.160378 
	C163.574615,124.193718 163.485092,124.369179 163.470276,124.344498 
	C164.508987,124.606339 165.562500,124.892868 167.336502,125.375359 
	C165.678192,125.833626 164.600296,126.131493 163.329712,126.719803 
	C162.671341,127.001930 162.205658,126.993599 161.392273,126.988014 
	C160.137009,125.451065 158.346771,126.397392 156.829865,125.441223 
	C158.980316,124.962639 160.857666,124.544838 163.154816,124.160378 
z"/>
<path fill="#047CB1" opacity="1.000000" stroke="none" 
	d="
M133.537949,126.468277 
	C133.569077,126.525612 133.506821,126.410950 133.537949,126.468277 
z"/>
</svg>