<svg width="192" height="47" viewBox="0 0 192 47" fill="none" xmlns="http://www.w3.org/2000/svg">
<path d="M27.9606 15.3004C28.2742 15.6924 28.2448 16.0452 27.8724 16.3588C26.1476 17.868 23.678 18.995 20.4636 19.7398C20.052 21.739 19.219 23.4344 17.9646 24.826C16.2006 26.786 14.0446 27.7856 11.4966 27.8248H11.379C10.399 27.8248 9.6052 27.5308 8.9976 26.9428C8.4096 26.3548 8.1156 25.5806 8.1156 24.6202C8.1156 22.7582 9.0466 21.3666 10.9086 20.4454C11.9082 19.975 13.4762 19.5438 15.6126 19.1518C15.7106 18.2306 15.7596 17.3878 15.7596 16.6234C15.7596 14.683 15.5342 12.8994 15.0834 11.2726C14.6522 9.64581 14.123 8.83241 13.4958 8.83241C12.7118 8.83241 11.8396 9.59681 10.8792 11.1256C9.9188 12.6544 9.1936 14.193 8.7036 15.7414V15.7708C8.684 15.8296 8.6546 15.8982 8.6154 15.9766V16.006C7.8118 18.652 7.1748 21.8566 6.7044 25.6198C6.1752 32.5582 6.2732 38.8204 6.9984 44.4064C7.0572 44.818 6.969 45.1708 6.7338 45.4648C6.4986 45.7588 6.1556 45.945 5.7048 46.0234C5.6264 46.043 5.499 46.0528 5.3226 46.0528C4.7738 46.0528 4.2446 45.9058 3.735 45.6118C3.2254 45.3178 2.9314 44.9258 2.853 44.4358C1.2654 35.1062 1.5496 24.4046 3.7056 12.331C3.8428 11.6254 3.931 11.1158 3.9702 10.8022C4.0486 10.1358 4.3818 9.60661 4.9698 9.21461C5.5578 8.80301 6.1752 8.62661 6.822 8.68541C7.41 8.72461 7.8902 8.95981 8.2626 9.39101C8.635 9.82221 8.7918 10.42 8.733 11.1844C8.733 11.204 8.7232 11.2334 8.7036 11.2726C8.7036 11.2922 8.6938 11.3412 8.6742 11.4196C8.6742 11.498 8.6644 11.5764 8.6448 11.6548C8.6448 11.694 8.635 11.743 8.6154 11.8018C8.5958 11.8606 8.586 11.8998 8.586 11.9194C10.2128 8.54821 12.212 6.86261 14.5836 6.86261C16.4064 6.86261 17.9156 7.89161 19.1112 9.94961C20.2088 11.8312 20.7576 14.1342 20.7576 16.8586C20.7576 17.1722 20.738 17.6034 20.6988 18.1522C23.3448 17.5054 25.4126 16.5352 26.9022 15.2416C27.059 15.1044 27.2354 15.0456 27.4314 15.0652C27.647 15.0652 27.8234 15.1436 27.9606 15.3004ZM14.2896 23.8264C14.7796 22.9052 15.1422 21.8664 15.3774 20.71C13.339 21.102 11.869 21.5724 10.9674 22.1212C10.0658 22.6504 9.615 23.4834 9.615 24.6202C9.615 25.1494 9.7718 25.5708 10.0854 25.8844C10.399 26.1784 10.8302 26.3254 11.379 26.3254C12.457 26.3254 13.4272 25.4924 14.2896 23.8264ZM47.7174 15.1828C47.8938 15.0652 48.08 15.026 48.276 15.0652C48.472 15.1044 48.619 15.2122 48.717 15.3886C48.8346 15.5454 48.8738 15.7316 48.8346 15.9472C48.3838 18.1816 47.6978 20.3082 46.7766 22.327C45.2674 25.6002 43.5328 27.2368 41.5728 27.2368C40.0048 27.2368 38.77 26.6488 37.8684 25.4728C36.8884 24.238 36.3004 22.3662 36.1044 19.8574V19.9162C35.8692 20.5042 35.683 20.9354 35.5458 21.2098V21.2686C34.2718 24.0126 32.7528 25.3846 30.9888 25.3846C29.6756 25.3846 28.5682 24.8456 27.6666 23.7676C26.7062 22.6112 26.1672 20.9256 26.0496 18.7108C25.8732 15.5356 26.8042 12.8602 28.8426 10.6846C30.3322 9.09701 31.9884 8.30321 33.8112 8.30321C35.1636 8.30321 36.222 8.70501 36.9864 9.50861C37.104 8.82261 37.1824 8.43061 37.2216 8.33261C37.3588 7.78381 37.6822 7.39181 38.1918 7.15661C38.7014 6.92141 39.2894 6.88221 39.9558 7.03901C40.6418 7.19581 41.171 7.49961 41.5434 7.95041C41.9158 8.38161 42.0432 8.85201 41.9256 9.36161C41.5532 10.9688 41.2396 12.821 40.9848 14.9182C40.7496 17.0154 40.6516 19.0734 40.6908 21.0922C40.7496 23.0914 41.0338 24.4046 41.5434 25.0318C41.7198 25.2278 41.8864 25.3258 42.0432 25.3258C42.6312 25.3258 43.278 24.9044 43.9836 24.0616C44.6892 23.2188 45.3164 22.1016 45.8652 20.71V20.6806C46.61 18.8186 47.1196 17.1428 47.394 15.6532C47.4332 15.4376 47.541 15.2808 47.7174 15.1828ZM36.4278 12.772C36.369 11.5372 35.9476 10.9198 35.1636 10.9198C34.6344 10.9198 34.0268 11.2922 33.3408 12.037C32.5372 12.8798 31.8708 14.0264 31.3416 15.4768C30.832 16.9076 30.6262 18.4952 30.7242 20.2396C30.7634 20.808 30.8516 21.3078 30.9888 21.739C31.1456 22.1506 31.3024 22.4446 31.4592 22.621C31.616 22.7974 31.763 22.8856 31.9002 22.8856C32.6842 22.8856 33.4192 22.18 34.1052 20.7688C34.2228 20.4944 34.311 20.2984 34.3698 20.1808C34.4874 19.926 34.6442 19.5438 34.8402 19.0342C35.2714 17.8582 35.732 16.2314 36.222 14.1538C36.222 14.1342 36.2318 14.0852 36.2514 14.0068C36.271 13.9284 36.2808 13.8794 36.2808 13.8598C36.3004 13.605 36.3494 13.2424 36.4278 12.772ZM79.6458 15.1534C79.8222 15.0358 80.0084 15.0064 80.2044 15.0652C80.4004 15.124 80.5474 15.2514 80.6454 15.4474C80.7434 15.6238 80.763 15.81 80.7042 16.006C79.9398 18.6128 79.1754 20.8178 78.411 22.621C78.411 22.6406 78.4012 22.6504 78.3816 22.6504C78.3816 22.6504 78.3816 22.6602 78.3816 22.6798C78.0288 23.503 77.6564 24.287 77.2644 25.0318C76.8724 25.757 76.402 26.5214 75.8532 27.325C75.3044 28.1286 74.6968 28.7754 74.0304 29.2654C73.3836 29.7358 72.7368 29.971 72.09 29.971C71.1884 29.971 70.4436 29.6574 69.8556 29.0302C69.2872 28.4226 68.905 27.4524 68.709 26.1196C68.5326 24.7868 68.4738 23.5912 68.5326 22.5328C68.5914 21.4744 68.709 19.877 68.8854 17.7406C69.101 16.0158 69.2088 14.2616 69.2088 12.478C69.2088 10.6944 68.9834 9.55761 68.5326 9.06761C68.3954 8.91081 68.1994 8.83241 67.9446 8.83241C67.729 8.83241 67.4252 9.01861 67.0332 9.39101C66.6608 9.76341 66.259 10.3318 65.8278 11.0962C65.0046 12.5858 64.3774 14.1244 63.9462 15.712C63.9462 15.7904 63.9364 15.8394 63.9168 15.859C63.1132 18.7402 62.7114 21.1902 62.7114 23.209V23.2384C62.6918 23.7284 62.5056 24.1302 62.1528 24.4438C61.8 24.7574 61.359 24.9142 60.8298 24.9142C60.085 24.9142 59.4676 24.6202 58.9776 24.0322C58.4288 23.405 58.1544 22.5524 58.1544 21.4744C58.1544 20.4944 58.2426 18.5246 58.419 15.565C58.5954 12.8406 58.664 10.8316 58.6248 9.53801C58.566 7.81321 58.3112 6.70581 57.8604 6.21581C57.7036 6.05901 57.5076 5.98061 57.2724 5.98061C57.2136 5.98061 57.1254 6.01001 57.0078 6.06881C56.8902 6.12761 56.6452 6.38241 56.2728 6.83321C55.92 7.26441 55.5476 7.88181 55.1556 8.68541C54.4696 10.0966 53.8914 11.6058 53.421 13.213C53.4014 13.2718 53.372 13.3796 53.3328 13.5364C53.2936 13.6932 53.2642 13.801 53.2446 13.8598C52.1666 17.7994 51.6276 20.9256 51.6276 23.2384C51.6276 23.3168 51.6374 23.4442 51.657 23.6206C51.6766 23.7774 51.6864 23.895 51.6864 23.9734C51.7256 24.3654 51.6276 24.7084 51.3924 25.0024C51.1572 25.2768 50.824 25.4532 50.3928 25.5316C50.3144 25.5512 50.187 25.561 50.0106 25.561C49.4618 25.561 48.9424 25.414 48.4524 25.12C47.982 24.826 47.688 24.4536 47.5704 24.0028C47.0412 21.8272 46.7766 19.2008 46.7766 16.1236C46.7766 14.0068 46.8844 11.8704 47.1 9.71441C47.1784 9.04801 47.5116 8.51881 48.0996 8.12681C48.6876 7.71521 49.305 7.53881 49.9518 7.59761C50.5202 7.63681 50.9906 7.88181 51.363 8.33261C51.755 8.76381 51.9216 9.36161 51.8628 10.126V10.2436C51.6864 12.1056 51.5786 13.4972 51.5394 14.4184C51.559 14.3204 51.5982 14.1734 51.657 13.9774C51.7158 13.7618 51.7648 13.5952 51.804 13.4776C51.9216 13.066 51.9902 12.8308 52.0098 12.772C52.1274 12.3016 52.2254 11.9586 52.3038 11.743C54.1266 6.05901 56.2826 3.21701 58.7718 3.21701C59.7126 3.21701 60.5064 3.55021 61.1532 4.21661C62.486 5.60821 63.1132 8.73441 63.0348 13.5952C63.074 13.4776 63.1328 13.3208 63.2112 13.1248C64.8968 8.42081 66.9744 6.06881 69.444 6.06881C70.4632 6.06881 71.3158 6.44121 72.0018 7.18601C72.531 7.75441 72.9328 8.50901 73.2072 9.44981C73.4816 10.3906 73.6188 11.5862 73.6188 13.0366C73.6384 14.487 73.6188 15.6826 73.56 16.6234C73.5208 17.5446 73.4228 18.9166 73.266 20.7394C73.07 22.9738 72.972 24.4536 72.972 25.1788C72.9524 26.1 73.021 26.7566 73.1778 27.1486C73.6678 27.1094 74.2264 26.7076 74.8536 25.9432C75.4808 25.1788 76.1374 24.042 76.8234 22.5328L76.8528 22.5034V22.474L77.0292 22.033C77.0292 22.0134 77.0292 22.0036 77.0292 22.0036C77.0488 22.0036 77.0586 21.9938 77.0586 21.9742C77.8426 20.171 78.5874 18.0444 79.293 15.5944C79.3518 15.3984 79.4694 15.2514 79.6458 15.1534ZM103.636 15.3004C103.95 15.6924 103.92 16.0452 103.548 16.3588C101.823 17.868 99.3536 18.995 96.1392 19.7398C95.7276 21.739 94.8946 23.4344 93.6402 24.826C91.8762 26.786 89.7202 27.7856 87.1722 27.8248H87.0546C86.0746 27.8248 85.2808 27.5308 84.6732 26.9428C84.0852 26.3548 83.7912 25.5806 83.7912 24.6202C83.7912 22.7582 84.7222 21.3666 86.5842 20.4454C87.5838 19.975 89.1518 19.5438 91.2882 19.1518C91.3862 18.2306 91.4352 17.3878 91.4352 16.6234C91.4352 14.683 91.2098 12.8994 90.759 11.2726C90.3278 9.64581 89.7986 8.83241 89.1714 8.83241C88.3874 8.83241 87.5152 9.59681 86.5548 11.1256C85.5944 12.6544 84.8692 14.193 84.3792 15.7414V15.7708C84.3596 15.8296 84.3302 15.8982 84.291 15.9766V16.006C83.4874 18.652 82.8504 21.8566 82.38 25.6198C81.8508 32.5582 81.9488 38.8204 82.674 44.4064C82.7328 44.818 82.6446 45.1708 82.4094 45.4648C82.1742 45.7588 81.8312 45.945 81.3804 46.0234C81.302 46.043 81.1746 46.0528 80.9982 46.0528C80.4494 46.0528 79.9202 45.9058 79.4106 45.6118C78.901 45.3178 78.607 44.9258 78.5286 44.4358C76.941 35.1062 77.2252 24.4046 79.3812 12.331C79.5184 11.6254 79.6066 11.1158 79.6458 10.8022C79.7242 10.1358 80.0574 9.60661 80.6454 9.21461C81.2334 8.80301 81.8508 8.62661 82.4976 8.68541C83.0856 8.72461 83.5658 8.95981 83.9382 9.39101C84.3106 9.82221 84.4674 10.42 84.4086 11.1844C84.4086 11.204 84.3988 11.2334 84.3792 11.2726C84.3792 11.2922 84.3694 11.3412 84.3498 11.4196C84.3498 11.498 84.34 11.5764 84.3204 11.6548C84.3204 11.694 84.3106 11.743 84.291 11.8018C84.2714 11.8606 84.2616 11.8998 84.2616 11.9194C85.8884 8.54821 87.8876 6.86261 90.2592 6.86261C92.082 6.86261 93.5912 7.89161 94.7868 9.94961C95.8844 11.8312 96.4332 14.1342 96.4332 16.8586C96.4332 17.1722 96.4136 17.6034 96.3744 18.1522C99.0204 17.5054 101.088 16.5352 102.578 15.2416C102.735 15.1044 102.911 15.0456 103.107 15.0652C103.323 15.0652 103.499 15.1436 103.636 15.3004ZM89.9652 23.8264C90.4552 22.9052 90.8178 21.8664 91.053 20.71C89.0146 21.102 87.5446 21.5724 86.643 22.1212C85.7414 22.6504 85.2906 23.4834 85.2906 24.6202C85.2906 25.1494 85.4474 25.5708 85.761 25.8844C86.0746 26.1784 86.5058 26.3254 87.0546 26.3254C88.1326 26.3254 89.1028 25.4924 89.9652 23.8264ZM117.454 15.8884V15.9472C117.454 16.0256 117.444 16.0844 117.425 16.1236V16.153C117.405 16.1726 117.395 16.1922 117.395 16.2118V16.2412L117.366 16.2706C117.366 16.2902 117.366 16.3 117.366 16.3H117.337L117.307 16.3294V16.3588V16.3882L117.278 16.4176L117.19 16.5058V16.5352C117.19 16.5352 117.18 16.5352 117.16 16.5352C117.141 16.5352 117.121 16.545 117.101 16.5646L117.043 16.594C117.023 16.594 117.013 16.6038 117.013 16.6234C117.013 16.6234 117.003 16.6234 116.984 16.6234C116.964 16.6234 116.954 16.6332 116.954 16.6528H116.896H116.866L116.837 16.6822H116.778H116.719H116.69C116.611 16.6822 116.553 16.6724 116.513 16.6528C115.769 16.4372 115.112 16.1236 114.544 15.712C113.995 15.2808 113.564 14.8496 113.25 14.4184C112.936 13.9872 112.662 13.4482 112.427 12.8014C112.211 12.135 112.064 11.6156 111.986 11.2432C111.927 10.8708 111.849 10.3808 111.751 9.77321C111.594 8.91081 111.496 8.43061 111.457 8.33261C110.731 8.52861 109.918 9.63601 109.016 11.6548L108.987 11.6842C108.752 12.2722 108.546 12.8406 108.37 13.3894C107.821 15.0554 107.38 16.8194 107.047 18.6814C106.713 20.5434 106.547 22.0624 106.547 23.2384C106.547 23.3168 106.557 23.4442 106.576 23.6206C106.596 23.7774 106.606 23.895 106.606 23.9734C106.645 24.3654 106.547 24.7084 106.312 25.0024C106.076 25.2768 105.743 25.4532 105.312 25.5316C105.234 25.5512 105.106 25.561 104.93 25.561C104.381 25.561 103.862 25.414 103.372 25.12C102.901 24.826 102.607 24.4536 102.49 24.0028C101.96 21.8272 101.696 19.2008 101.696 16.1236C101.696 14.0068 101.804 11.8704 102.019 9.71441C102.098 9.04801 102.431 8.51881 103.019 8.12681C103.607 7.71521 104.224 7.53881 104.871 7.59761C105.439 7.63681 105.91 7.88181 106.282 8.33261C106.674 8.76381 106.841 9.36161 106.782 10.126V10.2436C106.606 12.1448 106.498 13.5658 106.459 14.5066C106.557 14.095 106.655 13.7618 106.753 13.507V13.4776C106.949 12.7524 107.233 11.9684 107.605 11.1256C109.134 7.40161 110.967 5.53961 113.103 5.53961C114.455 5.53961 115.367 6.11781 115.837 7.27421C116.072 7.84261 116.249 8.95981 116.366 10.6258C116.543 12.9386 116.876 14.5948 117.366 15.5944V15.6238L117.395 15.6532L117.425 15.712V15.7414V15.7708C117.444 15.7708 117.454 15.7806 117.454 15.8002V15.8884ZM140.974 15.1828C141.151 15.0652 141.337 15.026 141.533 15.0652C141.729 15.1044 141.876 15.2122 141.974 15.3886C142.091 15.5454 142.131 15.7316 142.091 15.9472C141.641 18.1816 140.955 20.3082 140.033 22.327C138.524 25.6002 136.79 27.2368 134.83 27.2368C133.262 27.2368 132.027 26.6488 131.125 25.4728C130.145 24.238 129.557 22.3662 129.361 19.8574V19.9162C129.126 20.5042 128.94 20.9354 128.803 21.2098V21.2686C127.529 24.0126 126.01 25.3846 124.246 25.3846C122.932 25.3846 121.825 24.8456 120.923 23.7676C119.963 22.6112 119.424 20.9256 119.306 18.7108C119.13 15.5356 120.061 12.8602 122.099 10.6846C123.589 9.09701 125.245 8.30321 127.068 8.30321C128.42 8.30321 129.479 8.70501 130.243 9.50861C130.361 8.82261 130.439 8.43061 130.478 8.33261C130.616 7.78381 130.939 7.39181 131.449 7.15661C131.958 6.92141 132.546 6.88221 133.213 7.03901C133.899 7.19581 134.428 7.49961 134.8 7.95041C135.173 8.38161 135.3 8.85201 135.182 9.36161C134.81 10.9688 134.496 12.821 134.242 14.9182C134.006 17.0154 133.908 19.0734 133.948 21.0922C134.006 23.0914 134.291 24.4046 134.8 25.0318C134.977 25.2278 135.143 25.3258 135.3 25.3258C135.888 25.3258 136.535 24.9044 137.24 24.0616C137.946 23.2188 138.573 22.1016 139.122 20.71V20.6806C139.867 18.8186 140.376 17.1428 140.651 15.6532C140.69 15.4376 140.798 15.2808 140.974 15.1828ZM129.685 12.772C129.626 11.5372 129.204 10.9198 128.42 10.9198C127.891 10.9198 127.284 11.2922 126.598 12.037C125.794 12.8798 125.128 14.0264 124.598 15.4768C124.089 16.9076 123.883 18.4952 123.981 20.2396C124.02 20.808 124.108 21.3078 124.246 21.739C124.402 22.1506 124.559 22.4446 124.716 22.621C124.873 22.7974 125.02 22.8856 125.157 22.8856C125.941 22.8856 126.676 22.18 127.362 20.7688C127.48 20.4944 127.568 20.2984 127.627 20.1808C127.744 19.926 127.901 19.5438 128.097 19.0342C128.528 17.8582 128.989 16.2314 129.479 14.1538C129.479 14.1342 129.489 14.0852 129.508 14.0068C129.528 13.9284 129.538 13.8794 129.538 13.8598C129.557 13.605 129.606 13.2424 129.685 12.772ZM161.113 15.124C161.309 15.2024 161.437 15.3396 161.495 15.5356C161.574 15.7316 161.564 15.9276 161.466 16.1236C160.78 17.5544 159.888 19.0244 158.791 20.5336C157.713 22.0428 156.782 23.2286 155.998 24.091C155.214 24.9534 154.136 26.1098 152.764 27.5602C154.234 29.8926 154.969 32.7346 154.969 36.0862C154.969 38.7518 154.4 40.8294 153.263 42.319C152.205 43.691 150.921 44.377 149.412 44.377C147.511 44.377 146.139 43.544 145.296 41.878C144.786 40.8588 144.532 39.6142 144.532 38.1442V38.0266V37.9972V37.9678C144.571 36.4586 145.012 34.9886 145.855 33.5578C146.717 32.1466 147.952 30.559 149.559 28.795C148.481 26.5214 146.972 25.3846 145.031 25.3846C144.541 25.3846 144.198 25.1102 144.002 24.5614C143.865 24.2282 143.846 23.846 143.944 23.4148C144.042 22.964 144.247 22.621 144.561 22.3858C144.581 22.3662 144.63 22.3368 144.708 22.2976C146.452 21.4548 147.707 20.4258 148.471 19.2106C149.236 17.9758 149.618 16.3784 149.618 14.4184C149.618 13.0856 149.343 11.9292 148.795 10.9492C148.265 9.94961 147.638 9.44981 146.913 9.44981C146.266 9.44981 145.659 9.63601 145.09 10.0084C144.208 10.714 143.512 11.6352 143.003 12.772C142.493 13.9088 142.199 14.9378 142.121 15.859C142.101 16.055 142.013 16.2216 141.856 16.3588C141.699 16.496 141.513 16.5548 141.298 16.5352C141.102 16.5156 140.935 16.4372 140.798 16.3C140.661 16.1432 140.602 15.957 140.621 15.7414C140.739 14.389 141.16 13.0268 141.886 11.6548C141.886 11.5764 141.925 11.4588 142.003 11.302C142.748 10.1064 143.463 9.27341 144.149 8.80301C145.365 7.82301 146.766 7.33301 148.354 7.33301C150.294 7.33301 151.852 8.13661 153.028 9.74381C154.028 11.1354 154.528 12.821 154.528 14.8006C154.528 16.643 153.969 18.3874 152.852 20.0338C151.735 21.6606 150.372 22.9248 148.765 23.8264C149.922 24.3948 150.951 25.2278 151.852 26.3254C153.146 24.973 154.175 23.8754 154.939 23.0326C155.704 22.1702 156.595 21.0334 157.615 19.6222C158.634 18.1914 159.467 16.8096 160.114 15.4768C160.192 15.2808 160.329 15.1534 160.525 15.0946C160.721 15.0162 160.917 15.026 161.113 15.124ZM148.559 42.0838C148.893 42.0838 149.226 41.8682 149.559 41.437C149.912 41.0058 150.216 40.2904 150.47 39.2908C150.745 38.2912 150.882 37.1152 150.882 35.7628C150.882 33.7636 150.637 31.9604 150.147 30.3532C147.442 33.352 146.07 35.9 146.031 37.9972C146.031 39.2124 146.266 40.1924 146.737 40.9372C147.207 41.7016 147.815 42.0838 148.559 42.0838ZM180.576 15.124C180.772 15.2024 180.899 15.3396 180.958 15.5356C181.037 15.7316 181.027 15.9276 180.929 16.1236C180.243 17.5544 179.351 19.0244 178.253 20.5336C177.175 22.0428 176.244 23.2286 175.46 24.091C174.676 24.9534 173.598 26.1098 172.226 27.5602C173.696 29.8926 174.431 32.7346 174.431 36.0862C174.431 38.7518 173.863 40.8294 172.726 42.319C171.668 43.691 170.384 44.377 168.875 44.377C166.974 44.377 165.602 43.544 164.759 41.878C164.249 40.8588 163.994 39.6142 163.994 38.1442V38.0266V37.9972V37.9678C164.034 36.4586 164.475 34.9886 165.317 33.5578C166.18 32.1466 167.415 30.559 169.022 28.795C167.944 26.5214 166.435 25.3846 164.494 25.3846C164.004 25.3846 163.661 25.1102 163.465 24.5614C163.328 24.2282 163.308 23.846 163.406 23.4148C163.504 22.964 163.71 22.621 164.024 22.3858C164.043 22.3662 164.092 22.3368 164.171 22.2976C165.915 21.4548 167.17 20.4258 167.934 19.2106C168.698 17.9758 169.081 16.3784 169.081 14.4184C169.081 13.0856 168.806 11.9292 168.257 10.9492C167.728 9.94961 167.101 9.44981 166.376 9.44981C165.729 9.44981 165.121 9.63601 164.553 10.0084C163.671 10.714 162.975 11.6352 162.466 12.772C161.956 13.9088 161.662 14.9378 161.584 15.859C161.564 16.055 161.476 16.2216 161.319 16.3588C161.162 16.496 160.976 16.5548 160.76 16.5352C160.564 16.5156 160.398 16.4372 160.261 16.3C160.123 16.1432 160.065 15.957 160.084 15.7414C160.202 14.389 160.623 13.0268 161.348 11.6548C161.348 11.5764 161.388 11.4588 161.466 11.302C162.211 10.1064 162.926 9.27341 163.612 8.80301C164.827 7.82301 166.229 7.33301 167.816 7.33301C169.757 7.33301 171.315 8.13661 172.491 9.74381C173.491 11.1354 173.99 12.821 173.99 14.8006C173.99 16.643 173.432 18.3874 172.315 20.0338C171.197 21.6606 169.835 22.9248 168.228 23.8264C169.384 24.3948 170.413 25.2278 171.315 26.3254C172.609 24.973 173.638 23.8754 174.402 23.0326C175.166 22.1702 176.058 21.0334 177.077 19.6222C178.097 18.1914 178.93 16.8096 179.576 15.4768C179.655 15.2808 179.792 15.1534 179.988 15.0946C180.184 15.0162 180.38 15.026 180.576 15.124ZM168.022 42.0838C168.355 42.0838 168.689 41.8682 169.022 41.437C169.375 41.0058 169.678 40.2904 169.933 39.2908C170.208 38.2912 170.345 37.1152 170.345 35.7628C170.345 33.7636 170.1 31.9604 169.61 30.3532C166.905 33.352 165.533 35.9 165.494 37.9972C165.494 39.2124 165.729 40.1924 166.199 40.9372C166.67 41.7016 167.277 42.0838 168.022 42.0838ZM190.572 15.1828C190.748 15.0652 190.935 15.026 191.131 15.0652C191.327 15.1044 191.474 15.2122 191.572 15.3886C191.689 15.5454 191.728 15.7316 191.689 15.9472C191.513 17.0252 191.121 18.2894 190.513 19.7398C190.513 19.7594 190.513 19.7692 190.513 19.7692L190.484 19.828C190.464 19.8476 190.435 19.8868 190.396 19.9456C190.376 19.9848 190.366 20.024 190.366 20.0632C188.798 23.6108 186.868 25.3846 184.574 25.3846C182.889 25.3846 181.576 24.777 180.635 23.5618C179.322 21.8958 178.773 19.191 178.988 15.4474C179.126 13.2326 179.488 10.861 180.076 8.33261C180.213 7.78381 180.537 7.39181 181.046 7.15661C181.556 6.92141 182.144 6.88221 182.81 7.03901C183.496 7.19581 184.026 7.49961 184.398 7.95041C184.77 8.38161 184.898 8.85201 184.78 9.36161C184.408 11.008 184.104 12.7328 183.869 14.536C183.653 16.3392 183.575 18.0836 183.634 19.7692C183.692 21.4548 183.947 22.5818 184.398 23.1502C184.555 23.3658 184.761 23.4736 185.015 23.4736C185.701 23.4736 186.407 23.0914 187.132 22.327C187.877 21.5626 188.534 20.5238 189.102 19.2106C189.631 17.9562 190.013 16.7704 190.249 15.6532C190.288 15.4376 190.396 15.2808 190.572 15.1828ZM183.075 5.95121C182.33 5.95121 181.723 5.70621 181.252 5.21621C180.801 4.70661 180.576 4.05981 180.576 3.27581C180.576 2.51141 180.85 1.85481 181.399 1.30601C181.948 0.757215 182.605 0.482815 183.369 0.482815C184.114 0.482815 184.712 0.727815 185.162 1.21781C185.613 1.70781 185.839 2.35461 185.839 3.15821C185.839 3.86381 185.574 4.51061 185.045 5.09861C184.516 5.66701 183.859 5.95121 183.075 5.95121Z" fill="#533A71"/>
</svg>
