<svg width="14" height="15" viewBox="0 0 14 15" fill="none" xmlns="http://www.w3.org/2000/svg">
<g id="star 1" clip-path="url(#clip0_6573_3504)">
<path id="Vector" d="M13.9635 5.79043C13.8719 5.49462 13.6204 5.28452 13.3229 5.25654L9.28216 4.87368L7.68432 0.97114C7.56651 0.685135 7.29819 0.5 7.00007 0.5C6.70195 0.5 6.43364 0.685134 6.31582 0.971809L4.71798 4.87368L0.67656 5.25654C0.379616 5.28519 0.128816 5.49462 0.0366355 5.79043C-0.0555452 6.08625 0.0295858 6.41071 0.254216 6.61523L3.30857 9.41042L2.40791 13.5504C2.34201 13.8548 2.45523 14.1694 2.69727 14.352C2.82737 14.4501 2.97958 14.5 3.13307 14.5C3.26542 14.5 3.39669 14.4628 3.51451 14.3892L7.00007 12.2154L10.4844 14.3892C10.7393 14.5493 11.0607 14.5347 11.3022 14.352C11.5444 14.1689 11.6575 13.8541 11.5916 13.5504L10.6909 9.41042L13.7453 6.61579C13.9699 6.41071 14.0557 6.0868 13.9635 5.79043Z" fill="#FFC107"/>
</g>
<defs>
<clipPath id="clip0_6573_3504">
<rect width="14" height="14" fill="white" transform="translate(0 0.5)"/>
</clipPath>
</defs>
</svg>
