<svg version="1.1" id="Layer_1" xmlns="http://www.w3.org/2000/svg" xmlns:xlink="http://www.w3.org/1999/xlink" x="0px" y="0px"
	 width="100%" viewBox="0 0 85 85" enable-background="new 0 0 85 85" xml:space="preserve">
<path fill="#F8F8F8" opacity="1.000000" stroke="none" 
	d="
M6.000001,86.000000 
	C4.337940,86.000000 2.675881,86.000000 1.010366,86.000000 
	C1.006911,57.749596 1.006911,29.499187 1.006911,1.124390 
	C29.332863,1.124390 57.666412,1.124390 86.000000,1.124390 
	C86.000000,2.676938 86.000000,4.338998 85.658005,6.354220 
	C83.330200,5.800815 81.370491,4.186250 79.353996,4.111922 
	C71.219437,3.812081 63.067078,3.946052 54.921864,4.002193 
	C49.623650,4.038712 48.037075,5.591755 48.016232,10.775190 
	C47.970772,22.079111 47.980946,33.383396 48.011208,44.687420 
	C48.026081,50.241695 49.543320,51.813766 55.057529,51.861824 
	C62.703842,51.928463 70.363373,52.124786 77.991516,51.746628 
	C80.699738,51.612370 83.332687,49.959572 86.000000,49.000000 
	C86.000000,53.024544 86.000000,57.049088 85.689972,61.322189 
	C83.768799,60.617832 82.181366,58.890984 80.542557,58.840755 
	C71.590347,58.566391 62.625271,58.664928 53.665115,58.718510 
	C49.799591,58.741623 47.958675,60.822025 48.004021,64.697586 
	C48.058380,69.343262 47.681187,74.023857 48.146400,78.623024 
	C48.402248,81.152344 50.004688,83.545471 51.000000,86.000000 
	C46.975456,86.000000 42.950912,86.000000 38.609451,85.657715 
	C39.194218,83.335930 40.832359,81.372505 40.875973,79.374283 
	C41.126091,67.914398 41.027748,56.446148 40.984295,44.980976 
	C40.964657,39.799282 39.368233,38.190338 34.113773,38.141068 
	C26.138586,38.066277 18.161884,38.079235 10.186399,38.135838 
	C4.639413,38.175205 3.022433,39.767391 3.000714,45.217327 
	C2.956348,56.350163 2.809186,67.488342 3.124386,78.612419 
	C3.194874,81.100113 4.995768,83.538765 6.000001,86.000000 
M23.492065,3.997864 
	C18.674536,3.998336 13.856975,3.988092 9.039489,4.002704 
	C5.257623,4.014175 3.072155,5.818184 3.022573,9.703684 
	C2.954751,15.018666 2.946367,20.336094 3.027955,25.650702 
	C3.082544,29.206593 4.956264,31.252331 8.583141,31.274614 
	C17.553047,31.329733 26.523960,31.341698 35.493568,31.265377 
	C39.090969,31.234770 40.975533,29.269701 40.977863,25.617697 
	C40.981255,20.301821 40.981693,14.985940 40.977554,9.670065 
	C40.974689,5.990853 38.974564,4.158369 35.448185,4.036855 
	C31.797745,3.911067 28.139845,4.001825 23.492065,3.997864 
z"/>
<path fill="#0E0E0E" opacity="1.000000" stroke="none" 
	d="
M86.000000,48.531342 
	C83.332687,49.959572 80.699738,51.612370 77.991516,51.746628 
	C70.363373,52.124786 62.703842,51.928463 55.057529,51.861824 
	C49.543320,51.813766 48.026081,50.241695 48.011208,44.687420 
	C47.980946,33.383396 47.970772,22.079111 48.016232,10.775190 
	C48.037075,5.591755 49.623650,4.038712 54.921864,4.002193 
	C63.067078,3.946052 71.219437,3.812081 79.353996,4.111922 
	C81.370491,4.186250 83.330200,5.800815 85.658005,6.853692 
	C86.000000,20.687561 86.000000,34.375122 86.000000,48.531342 
M61.596169,7.293025 
	C59.603130,7.293619 57.602352,7.405880 55.618885,7.268410 
	C52.706295,7.066544 51.388016,8.103284 51.419312,11.216100 
	C51.531174,22.342724 51.496277,33.471317 51.438641,44.598759 
	C51.426365,46.968460 51.991604,48.327461 54.743233,48.293213 
	C62.880161,48.191944 71.019722,48.205631 79.157051,48.290287 
	C81.742081,48.317173 82.683723,47.231915 82.671059,44.725769 
	C82.614792,33.598316 82.593552,22.469961 82.685112,11.342965 
	C82.710007,8.317983 81.473206,7.191946 78.515579,7.259526 
	C73.203621,7.380899 67.886879,7.293308 61.596169,7.293025 
z"/>
<path fill="#0E0E0E" opacity="1.000000" stroke="none" 
	d="
M6.468658,86.000000 
	C4.995768,83.538765 3.194874,81.100113 3.124386,78.612419 
	C2.809186,67.488342 2.956348,56.350163 3.000714,45.217327 
	C3.022433,39.767391 4.639413,38.175205 10.186399,38.135838 
	C18.161884,38.079235 26.138586,38.066277 34.113773,38.141068 
	C39.368233,38.190338 40.964657,39.799282 40.984295,44.980976 
	C41.027748,56.446148 41.126091,67.914398 40.875973,79.374283 
	C40.832359,81.372505 39.194218,83.335930 38.146263,85.657715 
	C27.645771,86.000000 17.291542,86.000000 6.468658,86.000000 
M29.323395,82.706940 
	C38.385475,82.659340 37.510590,83.657509 37.534580,74.366989 
	C37.553024,67.224739 37.538254,60.082397 37.538254,52.940098 
	C37.538254,49.355904 37.538254,45.771709 37.538254,41.746906 
	C27.631937,41.746906 18.515202,41.617443 9.412931,41.921253 
	C8.351645,41.956673 6.516088,44.368412 6.486724,45.710159 
	C6.246920,56.667519 6.404226,67.632835 6.315758,78.594727 
	C6.291791,81.564392 7.412776,82.801994 10.424204,82.741570 
	C16.401392,82.621635 22.382690,82.706627 29.323395,82.706940 
z"/>
<path fill="#090909" opacity="1.000000" stroke="none" 
	d="
M51.468658,86.000000 
	C50.004688,83.545471 48.402248,81.152344 48.146400,78.623024 
	C47.681187,74.023857 48.058380,69.343262 48.004021,64.697586 
	C47.958675,60.822025 49.799591,58.741623 53.665115,58.718510 
	C62.625271,58.664928 71.590347,58.566391 80.542557,58.840755 
	C82.181366,58.890984 83.768799,60.617832 85.689972,61.785378 
	C86.000000,69.940193 86.000000,77.880394 86.000000,86.000000 
	C74.646286,86.000000 63.291801,86.000000 51.468658,86.000000 
M77.126236,82.730392 
	C81.551895,83.390656 83.084442,81.423439 82.738319,77.092789 
	C82.435173,73.300003 82.870491,69.447777 82.559685,65.656235 
	C82.456490,64.397308 81.076973,62.223183 80.235107,62.200912 
	C70.849480,61.952618 61.454861,62.044292 51.434265,62.044292 
	C51.434265,67.944595 51.565094,73.224052 51.386406,78.493004 
	C51.274799,81.784012 52.591328,82.858330 55.788391,82.780022 
	C62.588371,82.613487 69.395287,82.729935 77.126236,82.730392 
z"/>
<path fill="#080808" opacity="1.000000" stroke="none" 
	d="
M23.988636,3.997865 
	C28.139845,4.001825 31.797745,3.911067 35.448185,4.036855 
	C38.974564,4.158369 40.974689,5.990853 40.977554,9.670065 
	C40.981693,14.985940 40.981255,20.301821 40.977863,25.617697 
	C40.975533,29.269701 39.090969,31.234770 35.493568,31.265377 
	C26.523960,31.341698 17.553047,31.329733 8.583141,31.274614 
	C4.956264,31.252331 3.082544,29.206593 3.027955,25.650702 
	C2.946367,20.336094 2.954751,15.018666 3.022573,9.703684 
	C3.072155,5.818184 5.257623,4.014175 9.039489,4.002704 
	C13.856975,3.988092 18.674536,3.998336 23.988636,3.997865 
M34.098141,27.983532 
	C35.250961,26.988258 37.317356,26.062449 37.399220,24.985746 
	C37.763050,20.200636 37.805958,15.350511 37.385689,10.574865 
	C37.280239,9.376633 35.062172,7.468848 33.756283,7.418765 
	C25.967745,7.120059 18.161024,7.341084 10.362512,7.234112 
	C7.324463,7.192439 6.208819,8.488223 6.294104,11.421771 
	C6.414621,15.567188 6.452105,19.723888 6.284380,23.866018 
	C6.149393,27.199654 7.614484,28.116610 10.762619,28.041647 
	C18.226448,27.863922 25.697376,27.984362 34.098141,27.983532 
z"/>
<path fill="#F7F7F7" opacity="1.000000" stroke="none" 
	d="
M62.084152,7.293029 
	C67.886879,7.293308 73.203621,7.380899 78.515579,7.259526 
	C81.473206,7.191946 82.710007,8.317983 82.685112,11.342965 
	C82.593552,22.469961 82.614792,33.598316 82.671059,44.725769 
	C82.683723,47.231915 81.742081,48.317173 79.157051,48.290287 
	C71.019722,48.205631 62.880161,48.191944 54.743233,48.293213 
	C51.991604,48.327461 51.426365,46.968460 51.438641,44.598759 
	C51.496277,33.471317 51.531174,22.342724 51.419312,11.216100 
	C51.388016,8.103284 52.706295,7.066544 55.618885,7.268410 
	C57.602352,7.405880 59.603130,7.293619 62.084152,7.293029 
z"/>
<path fill="#F7F7F7" opacity="1.000000" stroke="none" 
	d="
M28.842842,82.706940 
	C22.382690,82.706627 16.401392,82.621635 10.424204,82.741570 
	C7.412776,82.801994 6.291791,81.564392 6.315758,78.594727 
	C6.404226,67.632835 6.246920,56.667519 6.486724,45.710159 
	C6.516088,44.368412 8.351645,41.956673 9.412931,41.921253 
	C18.515202,41.617443 27.631937,41.746906 37.538254,41.746906 
	C37.538254,45.771709 37.538254,49.355904 37.538254,52.940098 
	C37.538254,60.082397 37.553024,67.224739 37.534580,74.366989 
	C37.510590,83.657509 38.385475,82.659340 28.842842,82.706940 
z"/>
<path fill="#F4F4F4" opacity="1.000000" stroke="none" 
	d="
M76.662796,82.730392 
	C69.395287,82.729935 62.588371,82.613487 55.788391,82.780022 
	C52.591328,82.858330 51.274799,81.784012 51.386406,78.493004 
	C51.565094,73.224052 51.434265,67.944595 51.434265,62.044292 
	C61.454861,62.044292 70.849480,61.952618 80.235107,62.200912 
	C81.076973,62.223183 82.456490,64.397308 82.559685,65.656235 
	C82.870491,69.447777 82.435173,73.300003 82.738319,77.092789 
	C83.084442,81.423439 81.551895,83.390656 76.662796,82.730392 
z"/>
<path fill="#F4F4F4" opacity="1.000000" stroke="none" 
	d="
M33.631790,27.983906 
	C25.697376,27.984362 18.226448,27.863922 10.762619,28.041647 
	C7.614484,28.116610 6.149393,27.199654 6.284380,23.866018 
	C6.452105,19.723888 6.414621,15.567188 6.294104,11.421771 
	C6.208819,8.488223 7.324463,7.192439 10.362512,7.234112 
	C18.161024,7.341084 25.967745,7.120059 33.756283,7.418765 
	C35.062172,7.468848 37.280239,9.376633 37.385689,10.574865 
	C37.805958,15.350511 37.763050,20.200636 37.399220,24.985746 
	C37.317356,26.062449 35.250961,26.988258 33.631790,27.983906 
z"/>
</svg>