<svg version="1.1" id="Layer_1" xmlns="http://www.w3.org/2000/svg" xmlns:xlink="http://www.w3.org/1999/xlink" x="0px" y="0px"
	 width="100%" viewBox="0 0 88 82" enable-background="new 0 0 88 82" xml:space="preserve">
<path fill="#FBFBFB" opacity="1.000000" stroke="none" 
	d="
M8.000000,83.000000 
	C5.671537,83.000000 3.343075,83.000000 1.010959,83.000000 
	C1.007306,55.728596 1.007306,28.457188 1.007306,1.092890 
	C30.209915,1.092890 59.420223,1.092890 89.000000,1.092890 
	C89.000000,11.684723 89.000000,22.373703 88.683952,33.340073 
	C86.319359,29.728281 84.221672,25.863947 82.238762,21.941582 
	C80.806465,19.108385 78.972931,16.321703 78.297310,13.295698 
	C76.996315,7.468710 72.930328,2.980438 67.113205,2.077186 
	C61.687523,1.234715 54.748772,3.913555 53.688717,9.203915 
	C52.183598,16.715391 47.792305,22.089840 43.870003,28.040684 
	C42.569466,30.013840 42.202591,32.681622 41.709686,35.093307 
	C40.104153,42.948849 44.002033,49.236984 47.483200,55.708069 
	C47.033928,56.011192 46.863396,56.145561 46.349678,56.168812 
	C40.177670,50.922630 32.813622,52.446175 25.160538,51.919979 
	C26.126818,50.119274 26.566687,48.936199 27.305391,47.985271 
	C30.673008,43.650177 34.152363,39.402073 37.538563,35.081173 
	C41.288696,30.295887 42.440922,24.916086 40.554058,19.121372 
	C38.187840,11.854515 32.817017,7.878791 25.413363,7.294812 
	C18.650311,6.761362 13.018281,9.537460 9.459680,15.524914 
	C5.689314,21.868670 6.116969,28.272665 10.216526,34.295391 
	C14.569566,40.690517 19.068417,46.994316 23.751577,53.149319 
	C24.567934,54.222244 26.585766,54.757660 28.092670,54.854115 
	C31.817135,55.092514 35.567116,54.932320 39.566601,54.932320 
	C36.843651,60.029499 36.843651,60.030502 32.118538,60.033386 
	C28.787483,60.035416 25.456160,60.007198 22.125431,60.040230 
	C15.446686,60.106461 12.540624,62.972759 12.065944,69.687996 
	C11.970029,71.044899 11.686024,73.250702 10.900596,73.556999 
	C5.734663,75.571602 7.038084,79.281044 8.000000,83.000000 
z"/>
<path fill="#161616" opacity="1.000000" stroke="none" 
	d="
M8.444164,83.000000 
	C7.038084,79.281044 5.734663,75.571602 10.900596,73.556999 
	C11.686024,73.250702 11.970029,71.044899 12.065944,69.687996 
	C12.540624,62.972759 15.446686,60.106461 22.125431,60.040230 
	C25.456160,60.007198 28.787483,60.035416 32.118538,60.033386 
	C36.843651,60.030502 36.843651,60.029499 39.566601,54.932320 
	C35.567116,54.932320 31.817135,55.092514 28.092670,54.854115 
	C26.585766,54.757660 24.567934,54.222244 23.751577,53.149319 
	C19.068417,46.994316 14.569566,40.690517 10.216526,34.295391 
	C6.116969,28.272665 5.689314,21.868670 9.459680,15.524914 
	C13.018281,9.537460 18.650311,6.761362 25.413363,7.294812 
	C32.817017,7.878791 38.187840,11.854515 40.554058,19.121372 
	C42.440922,24.916086 41.288696,30.295887 37.538563,35.081173 
	C34.152363,39.402073 30.673008,43.650177 27.305391,47.985271 
	C26.566687,48.936199 26.126818,50.119274 25.160538,51.919979 
	C32.813622,52.446175 40.177670,50.922630 46.403847,56.390167 
	C46.801201,56.722641 47.168217,56.992886 47.241966,57.359173 
	C46.839214,59.951435 47.040367,62.904682 45.675095,64.176819 
	C44.551720,65.223557 41.555668,64.406044 39.416798,64.169083 
	C37.844692,63.994919 36.327335,63.143478 34.766777,63.083553 
	C30.613487,62.924061 26.449896,63.008099 22.290648,63.034378 
	C16.300787,63.072220 14.999849,64.403404 15.015216,70.390930 
	C15.030826,76.473885 17.083029,78.794823 22.482128,78.799469 
	C31.466457,78.807190 40.450798,78.801582 49.435135,78.801582 
	C53.329624,78.801582 57.224113,78.801575 62.109100,78.801575 
	C57.193207,70.851112 52.861534,63.845520 48.454575,56.595684 
	C48.173504,56.080734 47.967724,55.810024 47.761944,55.539314 
	C44.002033,49.236984 40.104153,42.948849 41.709686,35.093307 
	C42.202591,32.681622 42.569466,30.013840 43.870003,28.040684 
	C47.792305,22.089840 52.183598,16.715391 53.688717,9.203915 
	C54.748772,3.913555 61.687523,1.234715 67.113205,2.077186 
	C72.930328,2.980438 76.996315,7.468710 78.297310,13.295698 
	C78.972931,16.321703 80.806465,19.108385 82.238762,21.941582 
	C84.221672,25.863947 86.319359,29.728281 88.683952,33.808731 
	C89.000000,36.700012 89.000000,39.400028 88.707794,42.765709 
	C87.233833,46.139580 86.309601,48.998810 84.825417,51.529652 
	C78.642029,62.073578 72.290108,72.518661 66.000000,83.000000 
	C65.555557,83.000000 65.111107,83.000000 64.355179,82.578171 
	C63.334255,81.841125 62.625881,81.253654 61.915203,81.250847 
	C47.620369,81.194489 33.324989,81.168907 19.030828,81.280121 
	C18.016153,81.288025 17.010077,82.400917 16.000000,83.000000 
	C13.629442,83.000000 11.258885,83.000000 8.444164,83.000000 
M81.462814,51.917042 
	C88.229416,40.698387 87.870422,31.620461 80.342682,24.428312 
	C79.288567,25.109982 78.226227,25.796968 77.138885,26.500118 
	C80.654404,32.755646 80.897408,38.716354 76.321869,44.313374 
	C72.310234,49.220615 66.751884,51.064548 61.083141,48.909542 
	C50.090561,44.730652 48.432144,36.491959 53.130077,26.272419 
	C51.938271,25.627993 50.808300,25.017004 49.723637,24.430510 
	C43.882774,31.224699 41.817516,37.890121 45.568043,45.285309 
	C51.315063,56.617138 58.297821,67.322258 65.112564,78.898933 
	C70.766457,69.547356 75.909653,61.040466 81.462814,51.917042 
M31.383436,11.856128 
	C24.163509,8.620749 17.815224,9.674051 13.237103,14.866950 
	C9.122635,19.533936 8.334777,26.651712 12.004343,31.925114 
	C15.679798,37.206974 19.944056,42.079109 24.175911,47.415409 
	C27.889256,42.795315 31.349726,38.599403 34.690140,34.309994 
	C40.863922,26.382273 39.927216,18.706593 31.383436,11.856128 
M57.313351,18.194021 
	C57.296173,19.848221 57.138779,21.515211 57.288277,23.154207 
	C57.725876,27.951639 60.903145,31.079275 65.179375,31.080849 
	C69.670013,31.082500 72.838982,27.741459 73.067215,22.688416 
	C73.145645,20.952087 73.079681,19.209238 73.079681,18.314045 
	C69.261658,17.391205 66.377869,16.350557 63.427734,16.104088 
	C61.518276,15.944564 59.511795,16.946354 57.313351,18.194021 
M66.433495,11.465783 
	C67.951485,12.004881 69.469475,12.543978 71.122993,13.131205 
	C71.685913,12.204710 72.624832,10.659366 73.652328,8.968247 
	C70.516838,4.939438 66.154350,3.600122 61.382366,5.427045 
	C57.376789,6.960553 54.692112,10.069886 54.873363,13.575381 
	C58.321636,13.575381 61.370266,13.650301 64.409439,13.514056 
	C65.039856,13.485794 65.635147,12.673842 66.433495,11.465783 
M77.073853,36.035351 
	C76.519592,33.437508 75.965332,30.839668 75.285767,27.654528 
	C73.005493,30.069307 71.485397,31.679066 70.028442,33.221958 
	C71.882942,34.881199 73.421204,36.374325 75.119118,37.655949 
	C75.386703,37.857929 76.376663,37.102901 77.073853,36.035351 
M56.740589,36.112988 
	C57.947903,35.127243 59.155212,34.141495 60.544357,33.007286 
	C58.619953,31.295124 57.060558,29.907717 54.548279,27.672520 
	C54.114170,31.872725 53.779377,35.112038 53.444580,38.351353 
	C53.873421,38.419548 54.302258,38.487740 54.731098,38.555935 
	C55.228607,37.904114 55.726112,37.252293 56.740589,36.112988 
M59.305050,37.343529 
	C55.082813,42.188164 55.365952,43.824593 60.734421,45.196037 
	C61.156269,43.279911 61.814640,41.373978 61.884701,39.446659 
	C61.913425,38.656429 60.672138,37.820034 59.305050,37.343529 
M73.145256,43.827549 
	C74.996941,39.854710 72.309792,38.346741 68.194679,37.194546 
	C68.819862,39.807949 69.445053,42.421356 70.070244,45.034760 
	C70.880142,44.792927 71.690048,44.551098 73.145256,43.827549 
z"/>
<path fill="#FBFBFB" opacity="1.000000" stroke="none" 
	d="
M66.468735,83.000000 
	C72.290108,72.518661 78.642029,62.073578 84.825417,51.529652 
	C86.309601,48.998810 87.233833,46.139580 88.707794,43.215691 
	C89.000000,56.240005 89.000000,69.480011 89.000000,83.000000 
	C81.648186,83.000000 74.292831,83.000000 66.468735,83.000000 
z"/>
<path fill="#D2D2D2" opacity="1.000000" stroke="none" 
	d="
M16.468658,83.000000 
	C17.010077,82.400917 18.016153,81.288025 19.030828,81.280121 
	C33.324989,81.168907 47.620369,81.194489 61.915203,81.250847 
	C62.625881,81.253654 63.334255,81.841125 64.021851,82.578171 
	C48.312439,83.000000 32.624878,83.000000 16.468658,83.000000 
z"/>
<path fill="#F6F6F6" opacity="1.000000" stroke="none" 
	d="
M81.257828,52.225311 
	C75.909653,61.040466 70.766457,69.547356 65.112564,78.898933 
	C58.297821,67.322258 51.315063,56.617138 45.568043,45.285309 
	C41.817516,37.890121 43.882774,31.224699 49.723637,24.430510 
	C50.808300,25.017004 51.938271,25.627993 53.130077,26.272419 
	C48.432144,36.491959 50.090561,44.730652 61.083141,48.909542 
	C66.751884,51.064548 72.310234,49.220615 76.321869,44.313374 
	C80.897408,38.716354 80.654404,32.755646 77.138885,26.500118 
	C78.226227,25.796968 79.288567,25.109982 80.342682,24.428312 
	C87.870422,31.620461 88.229416,40.698387 81.257828,52.225311 
M68.637001,56.148174 
	C67.384819,57.906170 66.132637,59.664165 65.042488,61.194672 
	C62.667477,59.682701 61.530327,58.958771 60.393181,58.234840 
	C59.996117,58.574917 59.599056,58.914989 59.201996,59.255062 
	C60.603420,60.993916 62.004845,62.732769 63.418701,64.487045 
	C71.795868,58.128178 74.858261,54.210812 72.789299,50.233601 
	C71.375816,52.309956 70.253441,53.958683 68.637001,56.148174 
z"/>
<path fill="#F8F8F8" opacity="1.000000" stroke="none" 
	d="
M48.529865,56.839924 
	C52.861534,63.845520 57.193207,70.851112 62.109100,78.801575 
	C57.224113,78.801575 53.329624,78.801582 49.435135,78.801582 
	C40.450798,78.801582 31.466457,78.807190 22.482128,78.799469 
	C17.083029,78.794823 15.030826,76.473885 15.015216,70.390930 
	C14.999849,64.403404 16.300787,63.072220 22.290648,63.034378 
	C26.449896,63.008099 30.613487,62.924061 34.766777,63.083553 
	C36.327335,63.143478 37.844692,63.994919 39.416798,64.169083 
	C41.555668,64.406044 44.551720,65.223557 45.675095,64.176819 
	C47.040367,62.904682 46.839214,59.951435 47.582874,57.325329 
	C48.076645,56.896774 48.303257,56.868347 48.529865,56.839924 
z"/>
<path fill="#F4F4F4" opacity="1.000000" stroke="none" 
	d="
M31.730328,12.019721 
	C39.927216,18.706593 40.863922,26.382273 34.690140,34.309994 
	C31.349726,38.599403 27.889256,42.795315 24.175911,47.415409 
	C19.944056,42.079109 15.679798,37.206974 12.004343,31.925114 
	C8.334777,26.651712 9.122635,19.533936 13.237103,14.866950 
	C17.815224,9.674051 24.163509,8.620749 31.730328,12.019721 
M19.961267,16.241314 
	C15.061625,19.900379 13.713092,23.605198 15.663462,28.048639 
	C17.728403,32.753105 22.801397,34.900055 27.578297,33.091137 
	C31.953712,31.434256 34.283237,26.517227 32.978462,21.692781 
	C31.626566,16.694118 26.813046,14.433623 19.961267,16.241314 
z"/>
<path fill="#EAEAEA" opacity="1.000000" stroke="none" 
	d="
M57.431068,17.810890 
	C59.511795,16.946354 61.518276,15.944564 63.427734,16.104088 
	C66.377869,16.350557 69.261658,17.391205 73.079681,18.314045 
	C73.079681,19.209238 73.145645,20.952087 73.067215,22.688416 
	C72.838982,27.741459 69.670013,31.082500 65.179375,31.080849 
	C60.903145,31.079275 57.725876,27.951639 57.288277,23.154207 
	C57.138779,21.515211 57.296173,19.848221 57.431068,17.810890 
z"/>
<path fill="#F2F2F2" opacity="1.000000" stroke="none" 
	d="
M66.340057,11.844427 
	C65.635147,12.673842 65.039856,13.485794 64.409439,13.514056 
	C61.370266,13.650301 58.321636,13.575381 54.873363,13.575381 
	C54.692112,10.069886 57.376789,6.960553 61.382366,5.427045 
	C66.154350,3.600122 70.516838,4.939438 73.652328,8.968247 
	C72.624832,10.659366 71.685913,12.204710 71.122993,13.131205 
	C69.469475,12.543978 67.951485,12.004881 66.340057,11.844427 
z"/>
<path fill="#EAEAEA" opacity="1.000000" stroke="none" 
	d="
M77.053238,36.412857 
	C76.376663,37.102901 75.386703,37.857929 75.119118,37.655949 
	C73.421204,36.374325 71.882942,34.881199 70.028442,33.221958 
	C71.485397,31.679066 73.005493,30.069307 75.285767,27.654528 
	C75.965332,30.839668 76.519592,33.437508 77.053238,36.412857 
z"/>
<path fill="#E5E5E5" opacity="1.000000" stroke="none" 
	d="
M56.482105,36.356728 
	C55.726112,37.252293 55.228607,37.904114 54.731098,38.555935 
	C54.302258,38.487740 53.873421,38.419548 53.444580,38.351353 
	C53.779377,35.112038 54.114170,31.872725 54.548279,27.672520 
	C57.060558,29.907717 58.619953,31.295124 60.544357,33.007286 
	C59.155212,34.141495 57.947903,35.127243 56.482105,36.356728 
z"/>
<path fill="#E4E4E4" opacity="1.000000" stroke="none" 
	d="
M59.656815,37.174080 
	C60.672138,37.820034 61.913425,38.656429 61.884701,39.446659 
	C61.814640,41.373978 61.156269,43.279911 60.734421,45.196037 
	C55.365952,43.824593 55.082813,42.188164 59.656815,37.174080 
z"/>
<path fill="#EBEBEB" opacity="1.000000" stroke="none" 
	d="
M72.822601,44.068409 
	C71.690048,44.551098 70.880142,44.792927 70.070244,45.034760 
	C69.445053,42.421356 68.819862,39.807949 68.194679,37.194546 
	C72.309792,38.346741 74.996941,39.854710 72.822601,44.068409 
z"/>
<path fill="#FBFBFB" opacity="1.000000" stroke="none" 
	d="
M48.454575,56.595684 
	C48.303257,56.868347 48.076645,56.896774 47.509125,56.959042 
	C47.168217,56.992886 46.801201,56.722641 46.747032,56.501286 
	C46.863396,56.145561 47.033928,56.011192 47.483200,55.708069 
	C47.967724,55.810024 48.173504,56.080734 48.454575,56.595684 
z"/>
<path fill="#1A1A1A" opacity="1.000000" stroke="none" 
	d="
M68.884033,55.877792 
	C70.253441,53.958683 71.375816,52.309956 72.789299,50.233601 
	C74.858261,54.210812 71.795868,58.128178 63.418701,64.487045 
	C62.004845,62.732769 60.603420,60.993916 59.201996,59.255062 
	C59.599056,58.914989 59.996117,58.574917 60.393181,58.234840 
	C61.530327,58.958771 62.667477,59.682701 65.042488,61.194672 
	C66.132637,59.664165 67.384819,57.906170 68.884033,55.877792 
z"/>
<path fill="#1E1E1E" opacity="1.000000" stroke="none" 
	d="
M20.310970,16.074747 
	C26.813046,14.433623 31.626566,16.694118 32.978462,21.692781 
	C34.283237,26.517227 31.953712,31.434256 27.578297,33.091137 
	C22.801397,34.900055 17.728403,32.753105 15.663462,28.048639 
	C13.713092,23.605198 15.061625,19.900379 20.310970,16.074747 
M25.172392,18.047623 
	C22.824577,19.458372 19.557232,20.368584 18.428177,22.442753 
	C17.568962,24.021204 18.762369,27.644285 20.220432,29.351988 
	C22.774939,32.343861 27.248585,31.429193 29.562014,28.106724 
	C32.102951,24.457512 30.881981,21.100458 25.172392,18.047623 
z"/>
<path fill="#F9F9F9" opacity="1.000000" stroke="none" 
	d="
M25.562073,18.113976 
	C30.881981,21.100458 32.102951,24.457512 29.562014,28.106724 
	C27.248585,31.429193 22.774939,32.343861 20.220432,29.351988 
	C18.762369,27.644285 17.568962,24.021204 18.428177,22.442753 
	C19.557232,20.368584 22.824577,19.458372 25.562073,18.113976 
z"/>
</svg>