<svg version="1.1" id="Layer_1" xmlns="http://www.w3.org/2000/svg" xmlns:xlink="http://www.w3.org/1999/xlink" x="0px" y="0px"
	 width="100%" viewBox="0 0 77 82" enable-background="new 0 0 77 82" xml:space="preserve">
<path fill="#FCFCFC" opacity="1.000000" stroke="none" 
	d="
M23.000000,83.000000 
	C15.679675,83.000000 8.359349,83.000000 1.019512,83.000000 
	C1.019512,55.728172 1.019512,28.456326 1.019512,1.092239 
	C26.559349,1.092239 52.119141,1.092239 78.000000,1.092239 
	C78.000000,22.686504 78.000000,44.374596 77.596703,66.763306 
	C68.732727,67.599136 68.739929,67.596275 65.631760,59.775444 
	C64.414665,56.712978 63.157196,53.666561 61.992401,50.795914 
	C63.134514,49.876431 64.567505,49.302624 64.950836,48.319527 
	C67.340141,42.191795 63.338955,35.907524 56.838230,36.221764 
	C52.042595,36.453583 49.374702,35.018898 48.402672,30.317877 
	C48.107533,28.890474 47.366741,27.555216 46.830067,26.177755 
	C47.260017,26.249828 47.689972,26.321901 48.119926,26.393974 
	C48.660789,24.375925 50.118961,21.981686 49.488373,20.444052 
	C48.838383,18.859104 46.198849,17.240107 44.352501,17.145573 
	C37.066624,16.772530 29.750378,16.992544 22.564554,16.992544 
	C16.275742,0.970047 15.397896,0.277257 4.328826,2.651907 
	C4.400320,3.403102 4.344890,4.222156 4.567929,4.956647 
	C8.753852,18.741335 12.830104,32.563393 17.370155,46.231194 
	C17.921362,47.890606 20.895594,49.439022 22.944843,49.755051 
	C26.624264,50.322479 30.454004,49.915169 33.905331,49.915169 
	C37.276478,59.055603 26.596676,57.512833 24.408279,63.958645 
	C28.292931,62.364841 31.129038,61.201237 33.993732,60.025906 
	C35.504581,66.256599 34.728165,71.256516 28.180292,73.464729 
	C23.362764,75.089386 23.175369,78.983200 23.000000,83.000000 
z"/>
<path fill="#181818" opacity="1.000000" stroke="none" 
	d="
M23.468658,83.000000 
	C23.175369,78.983200 23.362764,75.089386 28.180292,73.464729 
	C34.728165,71.256516 35.504581,66.256599 33.993732,60.025906 
	C31.129038,61.201237 28.292931,62.364841 24.408279,63.958645 
	C26.596676,57.512833 37.276478,59.055603 33.905331,49.915169 
	C30.454004,49.915169 26.624264,50.322479 22.944843,49.755051 
	C20.895594,49.439022 17.921362,47.890606 17.370155,46.231194 
	C12.830104,32.563393 8.753852,18.741335 4.567929,4.956647 
	C4.344890,4.222156 4.400320,3.403102 4.328826,2.651907 
	C15.397896,0.277257 16.275742,0.970047 22.564554,16.992544 
	C29.750378,16.992544 37.066624,16.772530 44.352501,17.145573 
	C46.198849,17.240107 48.838383,18.859104 49.488373,20.444052 
	C50.118961,21.981686 48.660789,24.375925 48.119926,26.393974 
	C47.689972,26.321901 47.260017,26.249828 46.830067,26.177755 
	C47.366741,27.555216 48.107533,28.890474 48.402672,30.317877 
	C49.374702,35.018898 52.042595,36.453583 56.838230,36.221764 
	C63.338955,35.907524 67.340141,42.191795 64.950836,48.319527 
	C64.567505,49.302624 63.134514,49.876431 61.992401,50.795914 
	C63.157196,53.666561 64.414665,56.712978 65.631760,59.775444 
	C68.739929,67.596275 68.732727,67.599136 77.596703,67.231964 
	C78.000000,68.066673 78.000000,69.133339 77.627197,70.323608 
	C75.755516,70.425156 74.221779,70.186630 72.764206,70.421249 
	C68.221375,71.152504 65.745491,69.505219 64.523628,64.898163 
	C63.427094,60.763691 61.536102,56.811321 59.698944,52.918617 
	C59.117599,51.686829 57.661858,50.190273 56.465763,50.054718 
	C53.053043,49.667946 49.568058,49.918793 45.735332,49.918793 
	C45.735332,54.994427 46.012257,59.640293 45.651566,64.236122 
	C45.338161,68.229492 46.518661,70.860390 50.288059,72.377892 
	C55.027248,74.285828 57.896561,77.480164 57.000000,83.000000 
	C45.979103,83.000000 34.958210,83.000000 23.468658,83.000000 
M19.504246,44.103157 
	C20.729708,45.091537 21.857985,46.734753 23.200565,46.934010 
	C26.130718,47.368885 29.169865,47.069809 32.164478,47.069870 
	C42.086327,47.070072 52.008175,47.069946 61.902740,47.069946 
	C62.098763,39.357071 61.720024,38.941044 54.886993,38.932564 
	C46.402267,38.922035 37.916107,38.843426 29.433617,38.981514 
	C26.824686,39.023987 25.619408,38.155563 24.893049,35.606289 
	C22.533394,27.324688 19.880644,19.127096 17.404135,10.878129 
	C15.541735,4.674693 15.088512,4.359628 7.692674,5.341535 
	C11.562543,18.044725 15.410511,30.676025 19.504246,44.103157 
M47.069000,34.965561 
	C46.115177,32.509319 45.350414,29.952696 44.123325,27.641542 
	C43.557194,26.575274 42.117355,25.345499 41.022041,25.294306 
	C35.795834,25.050037 30.551905,25.184874 25.239902,25.184874 
	C27.251671,36.096455 27.251743,36.117992 37.439064,36.083588 
	C40.576164,36.072994 43.712746,35.909676 47.069000,34.965561 
M45.447701,81.219025 
	C48.296532,81.219025 51.145363,81.219025 53.994194,81.219025 
	C54.053207,80.574455 54.112225,79.929886 54.171238,79.285316 
	C51.459827,78.809868 48.748421,78.334419 45.301750,77.730042 
	C46.560616,76.400841 47.306126,75.613670 48.074482,74.802383 
	C42.446564,70.237801 36.504707,70.621964 31.200689,75.733147 
	C35.134464,75.912193 38.989170,76.087639 42.843872,76.263084 
	C42.832024,76.874130 42.820179,77.485176 42.808331,78.096222 
	C37.285656,78.388123 31.762983,78.680016 26.240311,78.971916 
	C26.288181,79.720985 26.336052,80.470055 26.383923,81.219124 
	C32.409798,81.219124 38.435673,81.219124 45.447701,81.219025 
M37.368065,51.331276 
	C38.108906,52.727345 38.849751,54.123413 39.590591,55.519482 
	C39.211716,55.417015 38.832840,55.314552 38.453968,55.212086 
	C37.967392,59.644669 37.480820,64.077248 36.973198,68.701584 
	C39.493919,68.701584 41.065464,68.701584 42.816826,68.701584 
	C42.816826,62.391045 42.816826,56.318436 42.816826,49.725182 
	C40.885185,50.010216 39.184807,50.261124 37.368065,51.331276 
M38.433830,19.805702 
	C33.427773,19.805702 28.421713,19.805702 22.718084,19.805702 
	C25.971111,23.328428 44.029343,23.555288 48.010815,19.805695 
	C44.425606,19.805695 41.914562,19.805695 38.433830,19.805702 
z"/>
<path fill="#FCFCFC" opacity="1.000000" stroke="none" 
	d="
M57.468910,83.000000 
	C57.896561,77.480164 55.027248,74.285828 50.288059,72.377892 
	C46.518661,70.860390 45.338161,68.229492 45.651566,64.236122 
	C46.012257,59.640293 45.735332,54.994427 45.735332,49.918793 
	C49.568058,49.918793 53.053043,49.667946 56.465763,50.054718 
	C57.661858,50.190273 59.117599,51.686829 59.698944,52.918617 
	C61.536102,56.811321 63.427094,60.763691 64.523628,64.898163 
	C65.745491,69.505219 68.221375,71.152504 72.764206,70.421249 
	C74.221779,70.186630 75.755516,70.425156 77.627197,70.723602 
	C78.000000,74.946114 78.000000,78.892227 78.000000,83.000000 
	C71.313232,83.000000 64.625526,83.000000 57.468910,83.000000 
z"/>
<path fill="#FBFBFB" opacity="1.000000" stroke="none" 
	d="
M19.381363,43.705242 
	C15.410511,30.676025 11.562543,18.044725 7.692674,5.341535 
	C15.088512,4.359628 15.541735,4.674693 17.404135,10.878129 
	C19.880644,19.127096 22.533394,27.324688 24.893049,35.606289 
	C25.619408,38.155563 26.824686,39.023987 29.433617,38.981514 
	C37.916107,38.843426 46.402267,38.922035 54.886993,38.932564 
	C61.720024,38.941044 62.098763,39.357071 61.902740,47.069946 
	C52.008175,47.069946 42.086327,47.070072 32.164478,47.069870 
	C29.169865,47.069809 26.130718,47.368885 23.200565,46.934010 
	C21.857985,46.734753 20.729708,45.091537 19.381363,43.705242 
z"/>
<path fill="#F7F7F7" opacity="1.000000" stroke="none" 
	d="
M46.959282,35.390923 
	C43.712746,35.909676 40.576164,36.072994 37.439064,36.083588 
	C27.251743,36.117992 27.251671,36.096455 25.239902,25.184874 
	C30.551905,25.184874 35.795834,25.050037 41.022041,25.294306 
	C42.117355,25.345499 43.557194,26.575274 44.123325,27.641542 
	C45.350414,29.952696 46.115177,32.509319 46.959282,35.390923 
z"/>
<path fill="#E2E2E2" opacity="1.000000" stroke="none" 
	d="
M44.954624,81.219070 
	C38.435673,81.219124 32.409798,81.219124 26.383923,81.219124 
	C26.336052,80.470055 26.288181,79.720985 26.240311,78.971916 
	C31.762983,78.680016 37.285656,78.388123 42.808331,78.096222 
	C42.820179,77.485176 42.832024,76.874130 42.843872,76.263084 
	C38.989170,76.087639 35.134464,75.912193 31.200689,75.733147 
	C36.504707,70.621964 42.446564,70.237801 48.074482,74.802383 
	C47.306126,75.613670 46.560616,76.400841 45.301750,77.730042 
	C48.748421,78.334419 51.459827,78.809868 54.171238,79.285316 
	C54.112225,79.929886 54.053207,80.574455 53.994194,81.219025 
	C51.145363,81.219025 48.296532,81.219025 44.954624,81.219070 
z"/>
<path fill="#ECECEC" opacity="1.000000" stroke="none" 
	d="
M37.426247,50.921654 
	C39.184807,50.261124 40.885185,50.010216 42.816826,49.725182 
	C42.816826,56.318436 42.816826,62.391045 42.816826,68.701584 
	C41.065464,68.701584 39.493919,68.701584 36.973198,68.701584 
	C37.480820,64.077248 37.967392,59.644669 38.453968,55.212086 
	C38.832840,55.314552 39.211716,55.417015 39.590591,55.519482 
	C38.849751,54.123413 38.108906,52.727345 37.426247,50.921654 
z"/>
<path fill="#D1D1D1" opacity="1.000000" stroke="none" 
	d="
M38.918678,19.805698 
	C41.914562,19.805695 44.425606,19.805695 48.010815,19.805695 
	C44.029343,23.555288 25.971111,23.328428 22.718084,19.805702 
	C28.421713,19.805702 33.427773,19.805702 38.918678,19.805698 
z"/>
</svg>