<svg version="1.1" id="Layer_1" xmlns="http://www.w3.org/2000/svg" xmlns:xlink="http://www.w3.org/1999/xlink" x="0px" y="0px"
	 width="100%" viewBox="0 0 343 342" enable-background="new 0 0 343 342" xml:space="preserve">
<path fill="#F7F9FA" opacity="1.000000" stroke="none" 
	d="
M344.000000,123.000000 
	C344.000000,195.307114 343.974152,267.114258 344.084076,338.921234 
	C344.089050,342.171417 343.667755,343.108795 340.081421,343.104675 
	C228.455658,342.976807 116.829681,342.975464 5.203922,343.106873 
	C1.475682,343.111267 0.909134,342.190552 0.912472,338.706818 
	C1.018922,227.580826 1.016476,116.454681 0.921525,5.328660 
	C0.918636,1.947413 1.338840,0.880739 5.168451,0.885590 
	C116.794189,1.026986 228.420166,1.021851 340.045929,0.899309 
	C343.559662,0.895452 344.103699,1.715862 344.091583,5.043479 
	C343.948975,44.195244 344.000000,83.347717 344.000000,123.000000 
z"/>
<path fill="#060607" opacity="1.000000" stroke="none" 
	d="
M102.988564,36.114002 
	C114.981224,36.114002 114.979454,36.114002 114.991089,24.581066 
	C114.992599,23.081455 114.864098,21.559065 115.074593,20.087090 
	C115.494774,17.148741 117.392395,15.739654 120.294250,15.857461 
	C123.171043,15.974252 125.036095,17.365942 125.077011,20.463490 
	C125.129837,24.462774 125.251610,28.470444 125.056633,32.460476 
	C124.924377,35.166889 125.602852,36.254482 128.569275,36.181114 
	C136.564346,35.983368 144.570908,35.980263 152.565720,36.183289 
	C155.494019,36.257656 156.239914,35.269108 156.077255,32.526630 
	C155.860535,28.872986 155.960159,25.194914 156.049637,21.530403 
	C156.135391,18.018457 157.852844,15.798823 161.545364,15.852879 
	C165.048035,15.904156 166.539215,18.107807 166.581650,21.410698 
	C166.628769,25.076763 166.746140,28.751207 166.558258,32.407890 
	C166.423508,35.030106 166.899048,36.272800 169.982437,36.187813 
	C177.976334,35.967472 185.984131,35.971802 193.978333,36.186573 
	C197.007278,36.267948 197.585480,35.129089 197.446457,32.446949 
	C197.248322,28.624765 197.341232,24.781425 197.451782,20.951218 
	C197.541748,17.833479 199.155273,15.907193 202.399063,15.871019 
	C205.786987,15.833240 207.722046,17.745886 207.912415,21.030811 
	C208.124207,24.685457 208.174210,28.375656 207.915390,32.023472 
	C207.691071,35.184910 208.535080,36.315380 211.933441,36.200455 
	C219.924255,35.930229 227.931046,36.052135 235.930267,36.129536 
	C248.136230,36.247643 255.855484,43.947994 255.880890,56.176846 
	C255.940796,85.009933 255.952927,113.843460 255.825119,142.676102 
	C255.811508,145.749649 256.738464,147.293411 259.453705,148.793716 
	C293.887360,167.819763 307.183746,209.871170 289.851624,245.187531 
	C288.095337,248.766220 288.625092,250.374832 291.563599,252.788467 
	C304.429626,263.356567 317.217682,274.033508 329.710083,285.038696 
	C343.296692,297.007751 340.234344,318.057556 324.163940,325.149048 
	C314.176544,329.556274 302.802155,326.905518 295.273895,318.168091 
	C284.406921,305.555695 273.696625,292.808350 262.839172,280.187683 
	C261.813263,278.995178 261.311066,276.703766 258.650848,277.680389 
	C256.036407,278.640259 255.800964,280.460419 255.868439,282.792389 
	C255.984100,286.788940 255.979218,290.793549 255.875885,294.790924 
	C255.599075,305.499512 247.997345,313.222656 237.289993,313.746246 
	C235.959610,313.811279 234.623871,313.772247 233.290604,313.772247 
	C171.624207,313.773163 109.957802,313.774445 48.291397,313.771973 
	C32.495281,313.771332 25.554354,306.784912 25.553623,290.871307 
	C25.550068,213.538300 25.549263,136.205292 25.554495,58.872288 
	C25.555569,43.007282 32.487007,36.117157 48.402775,36.114216 
	C55.569408,36.112888 62.743240,35.924530 69.899536,36.196476 
	C73.297478,36.325603 74.178833,35.170776 73.952003,31.988422 
	C73.691971,28.340412 73.933975,24.658901 73.883858,20.992958 
	C73.839233,17.728365 75.407646,15.914163 78.635536,15.867727 
	C82.013321,15.819137 83.937004,17.595165 83.987946,21.058575 
	C84.046783,25.057726 84.135254,29.063826 83.962791,33.056194 
	C83.861000,35.412441 84.532303,36.253139 86.993324,36.167538 
	C92.153679,35.988049 97.324646,36.113663 102.988564,36.114002 
z"/>
<path fill="#F6F8F9" opacity="1.000000" stroke="none" 
	d="
M219.000122,94.257111 
	C226.831467,94.257187 234.166916,94.400215 241.492264,94.190506 
	C244.645981,94.100212 245.851227,94.820488 245.800629,98.269951 
	C245.602676,111.763397 245.664764,125.261871 245.764542,138.757477 
	C245.785156,141.547409 245.367035,142.569092 242.176331,141.761307 
	C217.323517,135.469345 195.115158,141.072647 175.482712,157.244781 
	C173.317337,159.028503 171.221161,159.421738 168.667252,159.416870 
	C147.173141,159.375885 125.678925,159.393448 104.184738,159.394470 
	C102.851799,159.394531 101.515633,159.345734 100.186539,159.419678 
	C96.668449,159.615356 94.405373,161.338211 94.609291,165.021408 
	C94.797737,168.425308 97.023964,169.859802 100.376427,169.850143 
	C112.539703,169.815125 124.703140,169.838806 136.866516,169.839645 
	C145.488083,169.840256 154.109634,169.839783 163.509979,169.839783 
	C158.903809,177.277786 154.964249,184.306854 152.756729,192.141724 
	C152.051071,194.646286 149.781540,193.790619 148.092514,193.795731 
	C132.430222,193.842957 116.767670,193.845840 101.105347,193.805527 
	C98.236481,193.798157 95.767128,194.223404 94.818398,197.433823 
	C93.702194,201.211014 95.966721,203.962570 100.492958,203.981079 
	C115.488655,204.042313 130.486008,204.109726 145.479767,203.929932 
	C148.989609,203.887848 150.491425,204.367462 150.100861,208.443222 
	C149.579025,213.888702 149.481384,219.460678 150.735794,224.860855 
	C151.432632,227.860718 150.100800,228.039825 147.721161,228.028503 
	C132.225708,227.954880 116.729675,228.011597 101.233971,227.972107 
	C98.370171,227.964813 95.886719,228.420380 94.879677,231.556915 
	C93.669739,235.325378 95.927773,238.126419 100.415634,238.141861 
	C116.744362,238.198090 133.074158,238.247986 149.401688,238.098541 
	C152.796677,238.067490 154.707367,238.751160 156.021744,242.319199 
	C158.652771,249.461304 163.147217,255.641556 168.586456,262.200684 
	C162.463974,262.200684 157.212082,262.200653 151.960175,262.200653 
	C135.631256,262.200745 119.302330,262.194641 102.973427,262.211273 
	C101.480843,262.212799 99.935417,262.140900 98.507126,262.486206 
	C95.688736,263.167480 94.373802,265.227112 94.599068,268.044739 
	C94.810638,270.691162 96.349602,272.305267 99.100098,272.490204 
	C100.593521,272.590668 102.095093,272.599060 103.593002,272.599457 
	C127.753136,272.605743 151.913300,272.620636 176.073349,272.579620 
	C178.622040,272.575287 180.842072,272.958740 183.106644,274.416260 
	C201.224091,286.076813 220.815506,289.533844 241.780838,284.316956 
	C244.728424,283.583496 246.187378,283.673126 245.761719,287.232452 
	C245.525986,289.203766 245.778946,291.228516 245.707397,293.225403 
	C245.457428,300.201843 242.509155,303.265625 235.513153,303.270691 
	C172.363602,303.316528 109.213989,303.316589 46.064438,303.271973 
	C38.691704,303.266754 35.980877,300.331940 35.979527,292.818573 
	C35.967926,228.169388 36.025970,163.520081 35.854496,98.871346 
	C35.842808,94.464561 37.543880,94.193893 41.048222,94.198723 
	C100.198769,94.280327 159.349457,94.257111 219.000122,94.257111 
z"/>
<path fill="#F5F7F8" opacity="1.000000" stroke="none" 
	d="
M190.884735,46.281776 
	C196.645691,45.189781 198.120987,47.645756 197.453613,52.509792 
	C197.139481,54.799370 197.498093,57.172844 197.379181,59.499474 
	C197.174576,63.502289 198.338791,66.852432 202.825851,66.745468 
	C206.916031,66.647972 208.148849,63.475876 207.999573,59.653141 
	C207.869644,56.325748 208.111832,52.981552 207.927734,49.659290 
	C207.786697,47.114075 208.525497,46.164417 211.237793,46.221870 
	C219.232132,46.391201 227.233948,46.183746 235.229813,46.312321 
	C242.371475,46.427158 245.577713,49.647861 245.693970,56.797897 
	C245.818573,64.460556 245.511826,72.135124 245.814148,79.787872 
	C245.959763,83.473793 244.621170,84.073395 241.296997,84.063736 
	C202.973938,83.952301 164.650421,83.992569 126.327026,83.992561 
	C97.667793,83.992554 69.008301,83.935516 40.349693,84.069389 
	C37.001202,84.085030 35.728462,83.485001 35.875015,79.806801 
	C36.186558,71.987885 35.935772,64.147766 35.983601,56.316753 
	C36.021282,50.147682 38.818527,46.633797 44.748505,46.404903 
	C53.566555,46.064541 62.407349,46.351963 71.237007,46.248268 
	C73.590027,46.220634 73.965210,47.353916 73.921936,49.318893 
	C73.833916,53.315861 74.000305,57.319450 73.871758,61.314198 
	C73.756767,64.887787 75.694260,66.786919 78.877556,66.819962 
	C82.125305,66.853661 83.999481,64.765015 83.999710,61.334370 
	C83.999977,57.335430 84.130005,53.331181 83.960732,49.339535 
	C83.858231,46.922527 84.685196,46.197071 87.080269,46.233471 
	C95.409515,46.360069 103.743729,46.381058 112.071953,46.224499 
	C114.689308,46.175297 115.100372,47.287369 115.027832,49.491268 
	C114.901833,53.319447 115.037979,57.155441 114.981590,60.986942 
	C114.927200,64.682518 116.924904,66.831215 120.355209,66.790680 
	C123.594368,66.752388 125.292953,64.622116 125.141251,61.105919 
	C124.969040,57.114445 125.196739,53.106750 125.068565,49.111942 
	C124.998093,46.915714 125.833351,46.227245 127.970421,46.248520 
	C136.467377,46.333107 144.966064,46.327702 153.463165,46.251610 
	C155.421188,46.234077 156.116547,46.923992 156.055527,48.858074 
	C155.950500,52.187222 156.160675,55.528828 155.993271,58.852852 
	C155.784683,62.994373 156.793579,66.680107 161.462448,66.699394 
	C166.421555,66.719872 166.762817,62.656841 166.618408,58.725906 
	C166.520615,56.063530 166.800003,53.375751 166.550323,50.733391 
	C166.229019,47.333126 167.278320,46.035309 170.908401,46.199326 
	C177.393417,46.492344 183.901184,46.281788 190.884735,46.281776 
z"/>
<path fill="#F3F4F5" opacity="1.000000" stroke="none" 
	d="
M160.082672,208.316833 
	C163.146210,182.864502 175.722137,164.477600 199.017502,154.700455 
	C221.269379,145.361237 242.912277,148.043015 262.118225,162.745682 
	C281.495331,177.579391 289.763306,197.812958 286.350525,222.046326 
	C282.041138,252.646484 256.786316,275.068451 226.427185,276.102325 
	C195.017853,277.171997 168.253769,256.854401 161.480347,226.636185 
	C160.169830,220.789642 159.571152,214.805542 160.082672,208.316833 
z"/>
<path fill="#F5F7F8" opacity="1.000000" stroke="none" 
	d="
M274.810059,278.197937 
	C269.028656,271.541809 269.028717,271.541870 275.148682,265.605225 
	C275.268036,265.489441 275.367035,265.349274 275.497284,265.248627 
	C278.070770,263.259949 279.415527,258.677673 282.479736,258.915649 
	C285.047760,259.115021 287.375702,262.561157 289.787170,264.596649 
	C300.456512,273.602631 311.132080,282.601318 321.776794,291.636322 
	C329.177399,297.917786 330.129517,306.794373 324.123962,312.942505 
	C318.088013,319.121765 309.047119,318.473236 302.772247,311.177917 
	C293.450867,300.340729 284.280243,289.373932 274.810059,278.197937 
z"/>
<path fill="#0D0D0D" opacity="1.000000" stroke="none" 
	d="
M119.000084,135.587738 
	C112.503738,135.585129 106.507187,135.557922 100.510933,135.589249 
	C96.956741,135.607803 94.537315,134.094498 94.614243,130.392273 
	C94.694916,126.509407 97.284081,125.009613 100.991951,125.013474 
	C122.978844,125.036362 144.965775,125.020622 166.952698,125.029205 
	C170.638229,125.030647 173.185074,126.543007 173.071259,130.562012 
	C172.964081,134.347198 170.425064,135.593445 166.971725,135.590591 
	C151.147812,135.577515 135.323914,135.586594 119.000084,135.587738 
z"/>
<path fill="#0D0D0D" opacity="1.000000" stroke="none" 
	d="
M67.778854,133.062820 
	C66.725685,127.427887 68.424950,125.212654 73.539848,125.035912 
	C75.366226,124.972809 77.219139,124.877060 79.021622,125.102547 
	C82.071243,125.484070 83.915367,127.342674 83.777672,130.452820 
	C83.656570,133.187881 82.190506,135.457687 79.212860,135.409424 
	C75.410828,135.347794 71.164635,137.138290 67.778854,133.062820 
z"/>
<path fill="#0F0F0F" opacity="1.000000" stroke="none" 
	d="
M68.686829,263.580383 
	C72.431732,261.478577 76.125275,262.029449 79.711456,262.440308 
	C82.336357,262.740997 83.808975,264.706055 83.746567,267.330261 
	C83.681702,270.057953 82.421890,272.178986 79.392464,272.458435 
	C77.251564,272.655914 75.077713,272.723175 72.932442,272.602325 
	C67.185463,272.278656 65.665634,269.284485 68.686829,263.580383 
z"/>
<path fill="#0F0F0F" opacity="1.000000" stroke="none" 
	d="
M80.778847,159.920105 
	C83.715996,161.524277 84.377892,163.712906 83.446640,166.415298 
	C82.472557,169.241989 80.250366,169.986084 77.508118,169.873642 
	C75.513435,169.791855 73.499275,169.968964 71.520508,169.767868 
	C68.870682,169.498581 67.258263,167.841629 67.047897,165.217072 
	C66.822235,162.401886 68.113335,160.293121 70.992455,159.711395 
	C74.102135,159.083099 77.267952,159.095901 80.778847,159.920105 
z"/>
<path fill="#090909" opacity="1.000000" stroke="none" 
	d="
M69.168495,203.193726 
	C66.940193,201.135696 66.400429,199.040268 67.541321,196.635803 
	C68.725258,194.140594 70.940308,193.731705 73.400597,193.810654 
	C75.390953,193.874527 77.390831,193.768829 79.373558,193.914444 
	C82.398582,194.136566 83.833694,196.115189 83.797310,198.906479 
	C83.761589,201.646667 82.403671,203.842499 79.366875,203.916916 
	C76.081276,203.997437 72.738678,204.550095 69.168495,203.193726 
z"/>
<path fill="#080808" opacity="1.000000" stroke="none" 
	d="
M79.474075,238.125549 
	C76.724716,238.156479 74.410286,238.139160 72.096313,238.164108 
	C68.772278,238.199936 67.202614,236.219467 67.125664,233.251923 
	C67.046547,230.201096 68.884659,228.334976 71.956665,228.047607 
	C73.923775,227.863571 75.921272,228.026520 77.903961,227.981567 
	C80.903976,227.913559 83.215370,229.018005 83.690948,232.151260 
	C84.126755,235.022476 83.153313,237.378387 79.474075,238.125549 
z"/>
<path fill="#070707" opacity="1.000000" stroke="none" 
	d="
M252.896210,169.054535 
	C271.570038,182.677032 279.720978,200.712021 275.332550,223.093185 
	C271.037079,245.000244 257.076050,258.738159 235.489273,264.342010 
	C199.342911,273.725464 164.038956,239.948990 171.635239,203.404709 
	C179.468796,165.719070 219.817917,148.507629 252.896210,169.054535 
z"/>
<path fill="#F7F9FA" opacity="1.000000" stroke="none" 
	d="
M260.426392,234.293793 
	C249.994873,250.401703 235.424332,257.656921 216.882568,254.751022 
	C199.002914,251.948868 187.299561,241.050598 182.402466,223.588745 
	C176.361115,202.046875 188.621811,180.159958 210.515915,172.584045 
	C230.718048,165.593597 254.355194,176.209991 262.708496,196.121628 
	C268.129944,209.044601 267.294159,221.692551 260.426392,234.293793 
z"/>
</svg>