<svg width="19" height="18" viewBox="0 0 19 18" fill="none" xmlns="http://www.w3.org/2000/svg">
<g clip-path="url(#clip0_727_5465)">
<path d="M18.3111 5.29205C18.269 4.33564 18.1143 3.67812 17.8927 3.10836C17.6642 2.50359 17.3125 1.96213 16.8519 1.51201C16.4017 1.05489 15.8567 0.699691 15.2589 0.474702C14.6859 0.253147 14.0318 0.0984842 13.0754 0.0563159C12.1118 0.0105764 11.8059 0 9.36211 0C6.91827 0 6.61238 0.0105764 5.6524 0.0527447C4.69599 0.0949129 4.03847 0.249713 3.46885 0.471131C2.86394 0.699691 2.32248 1.05132 1.87237 1.51201C1.41525 1.96213 1.06018 2.50716 0.835054 3.10493C0.613499 3.67812 0.458836 4.33207 0.416667 5.28848C0.370928 6.25203 0.360352 6.55792 0.360352 9.00176C0.360352 11.4456 0.370928 11.7515 0.413096 12.7115C0.455265 13.6679 0.610065 14.3254 0.83162 14.8952C1.06018 15.4999 1.41525 16.0414 1.87237 16.4915C2.32248 16.9486 2.86751 17.3038 3.46528 17.5288C4.03847 17.7504 4.69242 17.905 5.64897 17.9472C6.60881 17.9895 6.91484 17.9999 9.35868 17.9999C11.8025 17.9999 12.1084 17.9895 13.0684 17.9472C14.0248 17.905 14.6823 17.7504 15.2519 17.5288C16.4616 17.0611 17.418 16.1047 17.8857 14.8952C18.1072 14.322 18.262 13.6679 18.3041 12.7115C18.3463 11.7515 18.3569 11.4456 18.3569 9.00176C18.3569 6.55792 18.3533 6.25203 18.3111 5.29205ZM16.6902 12.6411C16.6515 13.5202 16.5038 13.9949 16.3807 14.3114C16.0783 15.0956 15.4559 15.7179 14.6717 16.0204C14.3553 16.1434 13.8771 16.2911 13.0015 16.3297C12.0521 16.372 11.7674 16.3824 9.36568 16.3824C6.96401 16.3824 6.6757 16.372 5.72973 16.3297C4.85065 16.2911 4.37595 16.1434 4.05948 16.0204C3.66926 15.8761 3.31405 15.6476 3.02574 15.3487C2.72686 15.0568 2.4983 14.7052 2.35407 14.315C2.231 13.9985 2.08334 13.5202 2.04475 12.6447C2.00244 11.6953 1.992 11.4104 1.992 9.00876C1.992 6.60709 2.00244 6.31878 2.04475 5.37295C2.08334 4.49387 2.231 4.01917 2.35407 3.7027C2.4983 3.31234 2.72686 2.95727 3.02931 2.66883C3.32106 2.36994 3.67269 2.14138 4.06306 1.99729C4.37952 1.87422 4.8578 1.72656 5.7333 1.68783C6.68271 1.64566 6.96758 1.63508 9.36911 1.63508C11.7744 1.63508 12.0591 1.64566 13.0051 1.68783C13.8841 1.72656 14.3588 1.87422 14.6753 1.99729C15.0655 2.14138 15.4207 2.36994 15.7091 2.66883C16.0079 2.96071 16.2365 3.31234 16.3807 3.7027C16.5038 4.01917 16.6515 4.49731 16.6902 5.37295C16.7324 6.32236 16.7429 6.60709 16.7429 9.00876C16.7429 11.4104 16.7324 11.6917 16.6902 12.6411Z" fill="white"/>
<path d="M9.36223 4.37793C6.80947 4.37793 4.73828 6.44898 4.73828 9.00188C4.73828 11.5548 6.80947 13.6258 9.36223 13.6258C11.9151 13.6258 13.9862 11.5548 13.9862 9.00188C13.9862 6.44898 11.9151 4.37793 9.36223 4.37793ZM9.36223 12.0013C7.70613 12.0013 6.36279 10.6581 6.36279 9.00188C6.36279 7.34564 7.70613 6.00244 9.36223 6.00244C11.0185 6.00244 12.3617 7.34564 12.3617 9.00188C12.3617 10.6581 11.0185 12.0013 9.36223 12.0013Z" fill="white"/>
<path d="M15.2489 4.1952C15.2489 4.79133 14.7656 5.27468 14.1693 5.27468C13.5732 5.27468 13.0898 4.79133 13.0898 4.1952C13.0898 3.59894 13.5732 3.11572 14.1693 3.11572C14.7656 3.11572 15.2489 3.59894 15.2489 4.1952Z" fill="white"/>
</g>
<defs>
<clipPath id="clip0_727_5465">
<rect width="18" height="18" fill="white" transform="translate(0.329102)"/>
</clipPath>
</defs>
</svg>
