<svg width="39" height="38" viewBox="0 0 39 38" fill="none" xmlns="http://www.w3.org/2000/svg">
<rect x="0.829102" y="0.5" width="37" height="37" rx="7.5" stroke="white"/>
<g clip-path="url(#clip0_727_5375)">
<path d="M26.7471 12.6719H11.9111C11.037 12.6719 10.3291 13.3842 10.3291 14.2539V23.7461C10.3291 24.621 11.0422 25.3281 11.9111 25.3281H26.7471C27.6138 25.3281 28.3291 24.6239 28.3291 23.7461V14.2539C28.3291 13.3858 27.624 12.6719 26.7471 12.6719ZM26.5255 13.7266C26.2023 14.0481 20.6398 19.5812 20.4478 19.7723C20.1489 20.0711 19.7517 20.2356 19.3291 20.2356C18.9065 20.2356 18.5093 20.0711 18.2094 19.7713C18.0803 19.6428 12.5792 14.1707 12.1327 13.7266H26.5255ZM11.3838 23.5314V14.4692L15.9414 19.0028L11.3838 23.5314ZM12.1334 24.2734L16.6891 19.7466L17.4647 20.518C17.9627 21.0161 18.6248 21.2903 19.3291 21.2903C20.0334 21.2903 20.6955 21.0161 21.1926 20.519L21.9691 19.7466L26.5248 24.2734H12.1334ZM27.2744 23.5314L22.7168 19.0028L27.2744 14.4692V23.5314Z" fill="white"/>
</g>
<defs>
<clipPath id="clip0_727_5375">
<rect width="18" height="18" fill="white" transform="translate(10.3291 10)"/>
</clipPath>
</defs>
</svg>
