<svg width="39" height="38" viewBox="0 0 39 38" fill="none" xmlns="http://www.w3.org/2000/svg">
<rect x="0.829102" y="0.5" width="37" height="37" rx="7.5" stroke="white"/>
<g clip-path="url(#clip0_727_5369)">
<path d="M23.4595 20.7301L23.4527 20.7864C21.8035 19.9644 21.631 19.8549 21.418 20.1744C21.2702 20.3956 20.8397 20.8974 20.71 21.0459C20.5787 21.1921 20.4482 21.2034 20.2255 21.1021C20.0005 20.9896 19.2782 20.7534 18.4232 19.9884C17.7572 19.3921 17.3102 18.6609 17.1782 18.4359C16.9585 18.0564 17.4182 18.0024 17.8367 17.2104C17.9117 17.0529 17.8735 16.9291 17.818 16.8174C17.7617 16.7049 17.314 15.6024 17.1265 15.1629C16.9465 14.7249 16.7612 14.7804 16.6225 14.7804C16.1905 14.7429 15.8747 14.7489 15.5965 15.0384C14.386 16.3689 14.6912 17.7414 15.727 19.2009C17.7625 21.8649 18.847 22.3554 20.83 23.0364C21.3655 23.2066 21.8537 23.1826 22.24 23.1271C22.6705 23.0589 23.5652 22.5864 23.752 22.0576C23.9432 21.5289 23.9432 21.0901 23.887 20.9889C23.8315 20.8876 23.6845 20.8314 23.4595 20.7301Z" fill="white"/>
<path d="M25.7191 12.5866C19.9524 7.01184 10.4086 11.0551 10.4049 18.9196C10.4049 20.4916 10.8166 22.0246 11.6011 23.3783L10.3291 27.9998L15.0804 26.7608C21.0091 29.9633 28.3261 25.7108 28.3291 18.9241C28.3291 16.5421 27.3991 14.3003 25.7079 12.6158L25.7191 12.5866ZM26.8306 18.8993C26.8261 24.6241 20.5419 28.1993 15.5716 25.2773L15.3016 25.1168L12.4891 25.8481L13.2429 23.1143L13.0636 22.8331C9.9706 17.9093 13.5241 11.4743 19.3831 11.4743C21.3736 11.4743 23.2419 12.2506 24.6489 13.6568C26.0551 15.0511 26.8306 16.9193 26.8306 18.8993Z" fill="white"/>
</g>
<defs>
<clipPath id="clip0_727_5369">
<rect width="18" height="18" fill="white" transform="translate(10.3291 10)"/>
</clipPath>
</defs>
</svg>
