<svg width="19" height="18" viewBox="0 0 19 18" fill="none" xmlns="http://www.w3.org/2000/svg">
<g clip-path="url(#clip0_727_5469)">
<path d="M13.4595 10.7301L13.4527 10.7864C11.8035 9.96438 11.631 9.85488 11.418 10.1744C11.2702 10.3956 10.8397 10.8974 10.71 11.0459C10.5787 11.1921 10.4482 11.2034 10.2255 11.1021C10.0005 10.9896 9.2782 10.7534 8.4232 9.98838C7.7572 9.39213 7.3102 8.66088 7.17821 8.43588C6.95845 8.05638 7.41821 8.00238 7.8367 7.21038C7.91171 7.05288 7.87345 6.92913 7.81795 6.81738C7.7617 6.70488 7.31395 5.60238 7.12645 5.16288C6.94645 4.72488 6.7612 4.78038 6.62245 4.78038C6.19045 4.74288 5.8747 4.74888 5.59645 5.03838C4.38595 6.36888 4.6912 7.74138 5.72695 9.20088C7.76245 11.8649 8.84696 12.3554 10.83 13.0364C11.3655 13.2066 11.8537 13.1826 12.24 13.1271C12.6705 13.0589 13.5652 12.5864 13.752 12.0576C13.9432 11.5289 13.9432 11.0901 13.887 10.9889C13.8315 10.8876 13.6845 10.8314 13.4595 10.7301Z" fill="white"/>
<path d="M15.7191 2.58659C9.95235 -2.98816 0.408602 1.05509 0.404852 8.91959C0.404852 10.4916 0.816602 12.0246 1.6011 13.3783L0.329102 17.9998L5.08035 16.7608C11.0091 19.9633 18.3261 15.7108 18.3291 8.92409C18.3291 6.54209 17.3991 4.30034 15.7079 2.61584L15.7191 2.58659ZM16.8306 8.89934C16.8261 14.6241 10.5419 18.1993 5.5716 15.2773L5.3016 15.1168L2.4891 15.8481L3.24285 13.1143L3.0636 12.8331C-0.0293986 7.90934 3.5241 1.47434 9.3831 1.47434C11.3736 1.47434 13.2419 2.25059 14.6489 3.65684C16.0551 5.05109 16.8306 6.91934 16.8306 8.89934Z" fill="white"/>
</g>
<defs>
<clipPath id="clip0_727_5469">
<rect width="18" height="18" fill="white" transform="translate(0.329102)"/>
</clipPath>
</defs>
</svg>
